<svg version="1.1" xmlns="http://www.w3.org/2000/svg" xmlns:xlink="http://www.w3.org/1999/xlink" width="207.8771" height="223.59116" viewBox="0,0,207.8771,223.59116"><g transform="translate(-136.57029,-68.77903)"><g data-paper-data="{&quot;isPaintingLayer&quot;:true}" fill-rule="nonzero" stroke-width="0" stroke-linejoin="miter" stroke-miterlimit="10" stroke-dasharray="" stroke-dashoffset="0" style="mix-blend-mode: normal"><path d="M304.34084,167.03062c0,0 39.87404,-16.6119 40.10562,-54.97061c0.12286,-20.35047 -11.77892,-35.99371 -25.26313,-40.70886l-4.40721,-0.72606c0,0 -12.1782,1.50384 -17.81487,3.30758c-4.30888,1.37884 -13.10468,6.58668 -13.10468,6.58668l-14.68679,24.11725l0.6184,43.28738z" fill="#0867af" stroke="#49ff00" stroke-linecap="round"/><path d="M261.70189,146.17971c0,0 -2.14334,-14.4474 -1.93672,-30.56289c0.16668,-13.00106 12.82363,-46.42998 51.65869,-45.66496c2.52556,0.04975 5.0555,0.50189 7.52873,1.31929c0,0 -13.66765,-1.53414 -28.27527,9.61582c-11.36767,8.67692 -14.60143,23.7694 -14.96627,40.86669c-0.41072,19.24766 3.47068,33.05428 3.47068,33.05428c0,0 -4.0618,-1.30538 -9.49097,-4.06251c-3.56009,-1.80794 -7.98887,-4.56573 -7.98887,-4.56573z" fill="#ffffff" stroke="#49ff00" stroke-linecap="round"/><path d="M171.77318,160.29178c0,0 -31.32042,-16.43157 -30.63994,-54.09928c0.04322,-2.39224 1.50187,-20.57694 14.18759,-30.73572l5.35024,-2.47678l11.28171,-2.20131l19.12388,3.30197l13.89577,13.48302l4.12746,23.80167l-8.39249,27.37879l0.55033,4.40262z" fill="#0867af" stroke="#00ffba" stroke-linecap="round"/><path d="M215.06055,127.98085c0,0 0.46661,-10.27636 0.35459,-23.55838c-0.22672,-26.88162 -23.28428,-35.39937 -37.47558,-35.63624c-10.00455,-0.16699 -17.29452,2.58738 -22.60508,6.67435c0,0 5.65948,-3.01357 15.36143,-2.86974c34.67039,0.51399 32.21278,40.42549 32.21278,40.42549z" fill="#ffffff" stroke="#00ffba" stroke-linecap="round"/><path d="M281.06509,258.88244c0,0 3.73408,-0.08256 10.26707,-0.13879c11.5602,-0.09949 23.57351,-3.67787 37.25702,-5.03214c4.77486,-0.47258 9.3603,0.20242 9.3603,0.20242c0,0 -4.49908,-12.02675 -7.53077,-17.47351c-2.94849,-5.29729 -10.41671,-14.77112 -10.41671,-14.77112c0,0 8.07455,-13.55223 10.65035,-20.90136c2.197,-6.26838 3.84958,-20.4691 3.84958,-20.4691c0,0 -8.12358,3.16166 -12.11322,4.40629c-3.56732,1.11289 -10.69972,2.71058 -10.69972,2.71058c0,0 -5.0384,-64.34001 -77.82916,-63.5491c-71.03136,0.77179 -72.95397,71.38985 -72.95397,71.38985c0,0 -3.98043,-1.64827 -5.82679,-2.60328c-2.05251,-1.06164 -5.9354,-3.48061 -5.9354,-3.48061c0,0 -3.50715,8.10335 -3.21661,15.56225c0.43609,11.19549 7.06974,22.76627 7.06974,22.76627c0,0 -6.07378,4.81893 -10.38813,10.3619c-2.91263,3.74208 -6.03838,11.64151 -6.03838,11.64151c0,0 13.44824,1.14696 20.2151,3.25162c9.33837,2.90446 25.31269,8.00358 25.31269,8.00358z" fill="#2e2e2e" stroke="#49ff00" stroke-linecap="round"/><path d="M182.28258,168.71206c-3.00428,6.26626 -8.706,21.35473 -8.90718,33.15876c-0.15825,9.28491 2.34826,21.77472 2.34826,21.77472c0,0 -7.16256,7.20642 -7.12967,18.07356c0.02923,9.65809 11.82412,30.01065 58.09616,29.67916c49.65396,0.90076 66.97597,-20.46627 70.05616,-24.94558l1.11879,-21.0584l-6.87641,-52.29865l-87.90436,-13.83029z" fill="#f6deac" stroke="#ff0000" stroke-linecap="round"/><path d="M297.13478,245.84169c-1.20459,0.51645 -4.45899,1.54957 -8.59553,1.57363c-10.21091,0.0594 -13.76283,-13.38525 -13.84447,-19.53531c-0.18578,-13.99582 9.69314,-27.64965 9.17629,-40.92313c-0.45866,-11.77888 -10.54214,-14.41529 -18.744,-14.21386c-19.74519,0.48493 -29.31907,13.9095 -50.74678,14.22754c-18.13782,0.26922 -30.14659,-12.39308 -32.29933,-18.36953l-2.47963,-3.92327l30.5225,-10.08794l84.58355,13.19193l9.31195,60.26901z" fill="#2e2e2e" stroke="#b8ff00" stroke-linecap="round"/><path d="M224.6994,128.9422l-39.14781,15.96318l10.83216,-39.14781z" fill="#2e2e2e" stroke="#49ff00" stroke-linecap="round"/><path d="M235.52213,274.93223c0,4.66944 -3.92727,8.45477 -8.77182,8.45477c-4.84455,0 -8.77183,-3.78533 -8.77183,-8.45477c0,-4.66944 3.92728,-8.45478 8.77183,-8.45478c4.84455,0 8.77182,3.78533 8.77182,8.45478z" fill="#0867af" stroke="#ff6f00" stroke-linecap="butt"/><path d="M200.64618,256.12035c0,0 8.26036,3.18955 12.19402,5.8313c7.06962,4.74777 14.12147,8.0134 14.12147,8.0134c0,0 9.14684,-5.74756 16.54711,-8.95723c4.57435,-1.98401 13.67871,-4.88746 13.67871,-4.88746c0,0 2.58108,9.16979 2.7478,17.86071c0.14274,7.44087 -2.7478,16.27544 -2.7478,16.27544c0,0 -9.11891,-0.64117 -14.42403,-3.66291c-4.71967,-2.68828 -15.59043,-7.11692 -15.59043,-7.11692c0,0 -8.31459,5.23481 -12.41976,7.4908c-3.66562,2.01444 -11.04224,5.40273 -11.04224,5.40273c0,0 -4.63996,-8.83014 -4.68422,-19.76909c-0.05204,-7.51785 1.61937,-16.48076 1.61937,-16.48076z" fill="#0867af" stroke="#ff6f00" stroke-linecap="round"/><path d="M217.02661,214.99191c-1.7533,14.36322 -12.61507,24.87736 -24.26045,23.484c-11.64538,-1.39336 -19.66449,-14.16659 -17.91119,-28.52981c1.7533,-14.36322 12.61508,-24.87736 24.26046,-23.484c11.64538,1.39336 19.66449,14.16659 17.91119,28.52981z" fill="#ffffff" stroke="#ff6f00" stroke-linecap="butt"/><path d="M274.19514,217.54376c-1.25144,16.26796 -14.31315,28.52899 -29.17414,27.38578c-14.861,-1.1432 -25.89373,-15.25774 -24.64229,-31.5257c1.25144,-16.26795 14.31315,-28.52899 29.17415,-27.38578c14.86099,1.1432 25.89372,15.25775 24.64228,31.5257z" fill="#ffffff" stroke="#ff6f00" stroke-linecap="butt"/><path d="M191.86659,214.50106c-1.04145,6.46653 -5.70045,11.09741 -10.40617,10.34335c-4.70572,-0.75405 -7.6762,-6.60749 -6.63475,-13.07402c1.04145,-6.46653 5.70046,-11.09741 10.40618,-10.34335c4.70572,0.75405 7.67619,6.60749 6.63474,13.07402z" fill="#0867af" stroke="#ff6f00" stroke-linecap="butt"/><path d="M240.05642,216.53507c-0.83038,6.9537 -5.89956,12.0433 -11.32235,11.36794c-5.42279,-0.67536 -9.14567,-6.85994 -8.3153,-13.81364c0.83038,-6.9537 5.89956,-12.0433 11.32234,-11.36793c5.42279,0.67536 9.14568,6.85993 8.3153,13.81363z" fill="#0867af" stroke="#ff6f00" stroke-linecap="butt"/></g></g></svg>