<svg version="1.1" xmlns="http://www.w3.org/2000/svg" xmlns:xlink="http://www.w3.org/1999/xlink" width="212.7115" height="218.41396" viewBox="0,0,212.7115,218.41396"><g transform="translate(-133.64425,-70.79301)"><g data-paper-data="{&quot;isPaintingLayer&quot;:true}" fill-rule="nonzero" stroke-width="0" stroke-linejoin="miter" stroke-miterlimit="10" stroke-dasharray="" stroke-dashoffset="0" style="mix-blend-mode: normal"><path d="M275.64055,246.97197l11.2963,11.66667c0,0 -12.68579,10.84158 -29.83507,18.28479c-21.9718,9.5363 -45.04588,12.70757 -54.76653,12.23901c-12.64014,-0.60928 -18.35299,-7.53989 -22.35865,-14.74355c-3.207,-5.76739 -5.91806,-11.37738 -5.76809,-16.52828c0.27316,-9.38255 13.83945,-12.02975 13.83945,-12.02975z" fill="#00cbff" stroke="#d4ff00" stroke-linecap="round"/><path d="M184.21784,196.30532l-2.41379,44.65517c0,0 -3.03831,2.30239 -5.62035,5.01221c-2.18459,2.29271 -4.03482,6.71193 -4.03482,6.71193c0,0 -4.45597,-3.50011 -6.90987,-10.91159c-1.86347,-5.6282 -0.84875,-13.91599 -0.84875,-13.91599c0,0 -6.89345,3.19118 -11.96777,7.16219c-6.76899,5.29721 -10.71326,13.18263 -10.71326,13.18263c0,0 -8.20579,-9.80269 -8.06314,-23.90099c0.16758,-16.56175 13.67521,-24.20245 13.67521,-24.20245z" fill="#000000" stroke="#d4ff00" stroke-linecap="round"/><path d="M178.57457,193.95719l30.89286,-33.92857l54.82143,2.14286l24.28571,23.21429l12.14286,28.92857l-27.5,35.35714c0,0 -13.19388,10.08512 -40.69673,9.831c-40.20556,-0.3715 -58.45671,-19.89318 -58.63516,-34.90182c-0.09379,-7.88878 5.5819,-15.10776 5.5819,-15.10776z" fill="#f6deac" stroke="#ff0000" stroke-linecap="round"/><path d="M189.73796,70.79303c0,0 9.82423,5.71788 19.2564,15.71263c9.36887,9.92767 14.83451,22.46919 14.83451,22.46919l-15.54669,18.91693l-41.95331,11.53761c0,0 -0.544,-21.207 3.88327,-34.16173c6.90523,-20.20554 19.52582,-34.47464 19.52582,-34.47464z" fill="#ffffff" stroke="#ff0000" stroke-linecap="round"/><path d="M270.05919,197.7914l13.20513,-1.15385l-12.5641,4.35897z" fill="#00cbff" stroke="#ffad00" stroke-linecap="round"/><path d="M271.34124,210.22729l11.41026,3.58974l-11.92308,0.25641z" fill="#00cbff" stroke="#ffad00" stroke-linecap="round"/><path d="M267.36689,222.7914l7.94872,8.33333l-9.35897,-6.28205z" fill="#00cbff" stroke="#ffad00" stroke-linecap="round"/><path d="M182.24263,215.95523l-10.5102,0.5102l9.28571,-3.77551z" fill="#00cbff" stroke="#ffad00" stroke-linecap="round"/><path d="M218.54331,206.13148c-3.84737,13.37176 -16.3638,21.97774 -27.07513,19.00171c-10.71133,-2.97603 -14.48995,-14.08568 -10.64259,-27.45744c3.84737,-13.37176 15.64952,-24.29917 26.36085,-21.32314c10.71133,2.97603 15.20424,16.4071 11.35687,29.77887z" fill="#ffffff" stroke="#ff0000" stroke-linecap="butt"/><path d="M218.79331,204.39865c-1.71198,5.94971 -6.59558,9.69582 -10.90783,8.36716c-4.31225,-1.32866 -6.42018,-7.22894 -4.70821,-13.17865c1.71198,-5.94971 6.59558,-9.69582 10.90783,-8.36716c4.31225,1.32866 6.42018,7.22894 4.70821,13.17865z" fill="#00cbff" stroke="#ff0000" stroke-linecap="butt"/><path d="M273.28769,210.35915c-1.43576,15.21901 -13.49038,26.52904 -26.92475,25.26164c-13.43437,-1.26739 -23.16118,-14.63227 -21.72542,-29.85128c1.43576,-15.21901 13.49038,-26.52904 26.92475,-25.26164c13.43437,1.26739 23.16118,14.63227 21.72542,29.85128z" fill="#ffffff" stroke="#ff0000" stroke-linecap="butt"/><path d="M242.45798,207.00132c-0.77732,6.60504 -5.30688,11.43604 -10.11705,10.79035c-4.81017,-0.64569 -8.07944,-6.52357 -7.30212,-13.12861c0.77732,-6.60504 5.30688,-11.43604 10.11705,-10.79035c4.81017,0.64569 8.07944,6.52357 7.30212,13.12861z" fill="#00cbff" stroke="#ff0000" stroke-linecap="butt"/><path d="M197.73178,193.12295c0,0 0.40345,15.11325 -10.51791,15.23503c-3.39771,0.03788 -8.41826,-3.32014 -8.41826,-3.32014l-3.51064,-5.10638l9.3617,-10.74468c0,0 1.27676,9.25246 5.41837,8.85358c4.19376,-0.4039 7.66673,-4.91741 7.66673,-4.91741z" fill="#000000" stroke="#d4ff00" stroke-linecap="round"/><path d="M260.45616,117.56572c0,0 41.31095,42.56488 51.75751,59.17424c6.7301,10.70043 4.83414,30.80287 4.83414,30.80287l-11.77492,-6.09186l-53.78731,-62.12054l-46.02941,-18.82353c0,0 -2.49851,-3.05663 -6.03214,-5.43683c-2.41543,-1.627 -8.23256,-3.53376 -8.23256,-3.53376c0,0 7.85298,-3.24202 23.54525,-3.12308c23.6641,0.17936 45.71946,9.15249 45.71946,9.15249z" fill="#2e2e2e" stroke="#d4ff00" stroke-linecap="round"/><path d="M249.24135,134.23778c0,0 8.80882,-23.94454 28.84521,-35.26347c27.89655,-15.75926 59.56388,-9.73653 59.56388,-9.73653c0,0 3.47537,36.30495 -8.64564,65.31046c-6.87844,16.46007 -29.08163,33.55318 -29.08163,33.55318z" fill="#ffffff" stroke="#ff0000" stroke-linecap="round"/><path d="M266.96862,143.57345c0,0 6.81955,-10.21929 16.432,-14.45029c10.89858,-4.79709 22.02954,-4.20356 22.02954,-4.20356c0,0 1.45987,13.7417 -2.90791,22.29813c-4.29135,8.4067 -13.82286,18.4711 -13.82286,18.4711z" fill="#00cbff" stroke="#ff0000" stroke-linecap="round"/><path d="M262.61202,195.99586c0,0 -0.74937,-6.50412 -0.1758,-13.46296c0.52435,-6.36178 1.50913,-10.20371 1.50913,-10.20371c0,0 -13.95872,4.52137 -23.35797,9.78855c-15.71221,8.80486 -23.3087,15.87812 -23.3087,15.87812c0,0 -2.12032,-6.12549 -4.12948,-17.06395c-1.54137,-8.39167 -1.53719,-15.76939 -1.53719,-15.76939c0,0 -12.84856,9.16183 -24.73193,22.57428c-21.48241,24.24664 -25.93474,46.59238 -25.93474,46.59238c0,0 -16.15276,-19.30785 -15.09316,-53.87032c0.57146,-18.64017 10.9871,-39.82897 28.96565,-51.08051c14.62261,-9.1513 31.29417,-9.88251 31.29417,-9.88251l43.33333,15.16667c0,0 16.22164,4.9073 30.34541,18.67911c14.7542,14.38653 21.56039,35.21219 21.56039,35.21219l8.5942,11.94203c0,0 5.91384,-2.3772 12.34601,-2.15951c15.53626,0.52581 23.21675,10.64846 23.99705,26.20829c1.26385,25.20213 -15.67639,42.45123 -15.67639,42.45123c0,0 -2.22763,-11.80292 -12.77149,-22.23017c-8.4129,-8.31986 -18.22851,-9.26983 -18.22851,-9.26983c0,0 1.65343,9.42336 -1.01885,15.82638c-3.64657,8.73752 -9.98115,14.00695 -9.98115,14.00695c0,0 -1.22644,-5.29811 -5.91446,-9.79008c-7.48918,-7.17598 -11.29854,-3.95977 -15.73257,-12.68409c-2.26717,-4.46085 -0.6863,-14.02583 -0.6863,-14.02583c0,0 1.76231,4.94831 7.04028,4.74287c8.82399,-0.34348 16.41183,-18.27179 16.40491,-25.53237c-0.01259,-13.21539 -7.3939,-17.77928 -12.53536,-17.88537c-8.06487,-0.16641 -14.5765,5.84153 -14.5765,5.84153z" fill="#2e2e2e" stroke="#ffad00" stroke-linecap="round"/></g></g></svg>