<?xml version="1.0" encoding="UTF-8" standalone="no" ?>
<!DOCTYPE svg PUBLIC "-//W3C//DTD SVG 1.1//EN" "http://www.w3.org/Graphics/SVG/1.1/DTD/svg11.dtd">
<svg xmlns="http://www.w3.org/2000/svg" xmlns:xlink="http://www.w3.org/1999/xlink" version="1.1" width="400" height="300" viewBox="0 0 400 300" xml:space="preserve">
<desc>Created with Fabric.js 5.3.0</desc>
<g transform="matrix(2.3926941169 0 0 1.7945205877 200 150)" id="c9hjROenBMUUXl3HI_Ub0"  >
<path style="stroke: rgb(223,29,133); stroke-width: 0; stroke-dasharray: none; stroke-linecap: butt; stroke-dashoffset: 0; stroke-linejoin: miter; stroke-miterlimit: 4; fill: #d4deeb; fill-rule: nonzero; opacity: 1;"  transform=" translate(0, 0)" d="M -83.58778 -83.58778 L 83.58779 -83.58778 L 83.58779 83.58779 L -83.58778 83.58779 z" stroke-linecap="round" />
</g>
<g transform="matrix(1 0 0 1 200 150)" id="rrCBtTt7dDT-JIbPUoQK-"  >
<g style=""   >
		<g transform="matrix(1 0 0 1 -87.202945 0)" id="Cn5YNh1avXiiQ7WY3GDPO"  >
<path style="stroke: none; stroke-width: 1; stroke-dasharray: none; stroke-linecap: butt; stroke-dashoffset: 0; stroke-linejoin: miter; stroke-miterlimit: 10; fill: rgb(26,124,240); fill-rule: nonzero; opacity: 1;"  transform=" translate(-152.797055, -180)" d="M 125.68299 242.58196 L 145.67472 117.41804 L 202.9973 230.4658 L 90.10977 172.69022999999999 L 215.48434 153.04241" stroke-linecap="round" />
</g>
		<g transform="matrix(1 0 0 1 47.60896 -31.811805)" id="9SR9cnmWde9rNjSzKDXAT"  >
<path style="stroke: rgb(26,124,240); stroke-width: 0; stroke-dasharray: none; stroke-linecap: butt; stroke-dashoffset: 0; stroke-linejoin: miter; stroke-miterlimit: 10; fill: rgb(26,124,240); fill-rule: nonzero; opacity: 1;"  transform=" translate(-287.60896, -148.188195)" d="M 357.87943 167.77406 L 217.33849 173.38939 L 333.66947 122.987 z" stroke-linecap="round" />
</g>
		<g transform="matrix(1 0 0 1 64.913875 29.195165)" id="vUBmoHU8e1erQiqXFPkNl"  >
<path style="stroke: rgb(26,124,240); stroke-width: 0; stroke-dasharray: none; stroke-linecap: butt; stroke-dashoffset: 0; stroke-linejoin: miter; stroke-miterlimit: 10; fill: rgb(26,124,240); fill-rule: nonzero; opacity: 1;"  transform=" translate(-304.913875, -209.195165)" d="M 389.89023 238.80047 L 219.93751999999998 179.58986 L 365.68026 194.01341 z" stroke-linecap="round" />
</g>
</g>
</g>
</svg>