<svg width="2900" height="500" viewBox="0 0 2900 500" fill="none" xmlns="http://www.w3.org/2000/svg">
<g clip-path="url(#clip0_20_75)">
<circle cx="250" cy="250" r="250" fill="#F01ACE"/>
<g clip-path="url(#clip1_20_75)">
<path d="M275.981 64.2454C275.981 64.2454 304.774 34.388 342.818 41.3521C358.376 44.1999 359.756 90.8017 359.756 90.8017C359.756 90.8017 403.569 78.9895 412.402 90.8017C441.739 130.034 399.584 182.375 399.584 182.375L261.79 224.499L249.429 242.813L231.118 222.667L275.981 64.2454Z" fill="#F34ED9"/>
<path d="M433.17 212.949C433.17 212.949 469.251 233.406 471.979 271.992C473.095 287.772 428.312 300.712 428.312 300.712C428.312 300.712 450.659 340.211 441.419 351.708C410.733 389.894 349.553 362.091 349.553 362.091L253.479 242.938L253.644 231.687L268.593 208.933L433.17 212.949Z" fill="#F34ED9"/>
<path d="M332.551 397.957C332.551 397.957 327.793 439.166 293.335 456.731C279.243 463.915 249.86 427.721 249.86 427.721C249.86 427.721 222.214 463.71 208.026 459.686C160.9 446.323 162.629 379.135 162.629 379.135L246.559 261.996L245.265 239.937L272.044 244.828L332.551 397.957Z" fill="#F34ED9"/>
<path d="M128.282 371.108C128.282 371.108 87.9923 380.954 59.5576 354.733C47.9299 344.01 71.6637 303.883 71.6637 303.883C71.6637 303.883 28.3208 290.449 27.1666 275.743C23.3332 226.902 86.9312 205.196 86.9312 205.196L225.906 243.245L246.139 234.372L250.851 261.187L128.282 371.108Z" fill="#F34ED9"/>
<path d="M91.8963 165.662C91.8963 165.662 71.8303 129.358 89.6724 95.0373C96.9685 81.0026 141.908 93.3859 141.908 93.3859C141.908 93.3859 143.504 48.0297 157.389 43.0591C203.507 26.5502 241.13 82.2398 241.13 82.2398L240.866 226.351L254.733 243.553L230.097 255.134L91.8963 165.662Z" fill="#F34ED9"/>
<path d="M247.14 246.934C247.14 246.934 189.932 207.989 196.326 146.204C205.283 59.6539 293.377 57.8353 293.377 57.8353C293.377 57.8353 284.246 64.884 283.46 72.3025C280.732 98.0507 315.088 87.418 315.438 108.675C315.776 129.218 283.247 124.482 284.18 139.323C284.754 148.458 296.399 148.588 294.455 161.087C291.45 180.399 276.666 178.577 261.127 185.95C253.811 189.422 246.596 199.762 244.231 209.306C240.14 225.814 250.463 244.959 250.463 244.959L247.14 246.934Z" fill="white"/>
<path d="M233.857 217.71C233.857 217.71 221.108 189.481 221.369 167.792C221.617 147.174 230.607 116.9 244.49 119.874C257.41 122.641 232.492 158.335 241.021 154.767C246.877 152.317 256.903 151.424 252.788 161.931C250.319 168.236 240.158 174.847 236.606 187.072C232.084 202.637 233.857 217.71 233.857 217.71Z" fill="#FBC1F2"/>
<path d="M248.091 241.439C248.091 241.439 268.663 175.354 329.62 163.462C415.008 146.803 442.425 230.556 442.425 230.556C442.425 230.556 433.022 223.875 425.698 225.286C400.277 230.18 420.46 259.951 400.232 266.481C380.683 272.793 375.731 240.291 361.808 245.51C353.239 248.722 356.51 259.901 343.988 261.684C324.642 264.438 322.075 249.763 310.494 237.045C305.042 231.058 293.049 227.168 283.232 227.687C266.25 228.586 250.949 244.042 250.949 244.042L248.091 241.439Z" fill="white"/>
<path d="M272.17 220.213C272.17 220.213 295.452 199.786 316.272 193.714C336.064 187.942 367.638 187.718 368.841 201.868C369.96 215.035 328.56 201.6 334.458 208.719C338.508 213.608 342.285 222.94 331.036 222.066C324.286 221.542 315.002 213.747 302.274 213.912C286.069 214.123 272.17 220.213 272.17 220.213Z" fill="#FBC1F2"/>
<path d="M248.765 239.465C248.765 239.465 317.879 235.954 350.087 289.064C395.204 363.461 326.084 418.117 326.084 418.117C326.084 418.117 329.106 406.984 325.254 400.596C311.882 378.425 290.918 407.65 277.805 390.919C265.131 374.748 293.92 358.876 284.215 347.61C278.242 340.676 268.881 347.606 262.884 336.468C253.619 319.261 266.503 311.783 274.437 296.522C278.173 289.336 277.681 276.736 273.804 267.7C267.097 252.071 247.31 243.046 247.31 243.046L248.765 239.465Z" fill="white"/>
<path d="M276.998 254.736C276.998 254.736 304.204 269.536 317.091 286.982C329.342 303.566 340.455 333.126 327.593 339.141C315.625 344.738 313.935 301.238 309.292 309.233C306.103 314.723 298.651 321.49 295.586 310.63C293.747 304.113 297.855 292.707 293.305 280.817C287.511 265.68 276.998 254.736 276.998 254.736Z" fill="#FBC1F2"/>
<path d="M253.849 240.034C253.849 240.034 279.133 304.464 239.014 351.88C182.816 418.301 109.042 370.113 109.042 370.113C109.042 370.113 120.556 369.442 125.388 363.76C142.16 344.036 107.793 333.438 119.49 315.686C130.794 298.531 154.986 320.79 162.584 308.008C167.26 300.14 157.717 293.465 166.371 284.239C179.742 269.986 190.923 279.829 207.912 282.506C215.911 283.766 227.7 279.297 235.035 272.749C247.721 261.423 249.992 239.791 249.992 239.791L253.849 240.034Z" fill="white"/>
<path d="M248.34 271.66C248.34 271.66 242.952 302.162 230.506 319.926C218.676 336.813 194.182 356.742 184.394 346.456C175.285 336.883 215.988 321.462 206.933 319.598C200.716 318.318 191.933 313.401 201.255 307.044C206.849 303.23 218.968 303.502 228.794 295.41C241.305 285.107 248.34 271.66 248.34 271.66Z" fill="#FBC1F2"/>
<path d="M252.985 247.142C252.985 247.142 198.208 289.44 141.472 264.176C61.995 228.787 87.6201 144.468 87.6201 144.468C87.6201 144.468 91.4841 155.337 98.2907 158.388C121.915 168.977 122.477 133.012 142.788 139.28C162.418 145.337 147.816 174.793 162.211 178.514C171.071 180.804 174.81 169.773 186.087 175.503C203.508 184.356 197.186 197.846 199.368 214.909C200.396 222.942 207.983 233.013 216.319 238.225C230.739 247.24 252.139 243.37 252.139 243.37L252.985 247.142Z" fill="white"/>
<path d="M221.086 250.697C221.086 250.697 190.298 254.053 169.765 247.07C150.247 240.432 124.266 222.486 131.403 210.209C138.044 198.786 164.231 233.558 163.488 224.342C162.978 218.014 165.242 208.204 173.951 215.379C179.177 219.684 182.304 231.397 192.821 238.57C206.21 247.702 221.086 250.697 221.086 250.697Z" fill="#FBC1F2"/>
</g>
</g>
<g clip-path="url(#clip2_20_75)">
<mask id="mask0_20_75" style="mask-type:alpha" maskUnits="userSpaceOnUse" x="600" y="0" width="500" height="500">
<circle cx="850" cy="250" r="250" fill="black"/>
</mask>
<g mask="url(#mask0_20_75)">
<path d="M516 0H1183V500H516V0Z" fill="black"/>
<path d="M516 150H1183V350H516V150Z" fill="#B212D2"/>
<path d="M847.007 379.592C847.007 379.592 913.08 277.452 913.622 242.555C914.376 194.02 880.636 178.593 844.859 178.75C811.953 178.895 780.045 199.813 777.401 229.928C774.147 266.998 812.73 294.407 812.73 294.407C812.73 294.407 730.252 290.242 729.355 228.667C728.375 161.29 777.437 121.104 842.502 120.417C910.255 119.701 970.657 163.471 970.217 237C969.775 310.527 847.007 379.592 847.007 379.592Z" fill="white"/>
<path d="M640.644 343.903C623.284 331.199 622.118 302.355 676.135 328.808C722.54 351.533 783 407 783 407C783 407 658.005 356.605 640.644 343.903Z" fill="white"/>
<path d="M918 407C918 407 978.46 351.533 1024.87 328.808C1078.88 302.355 1077.72 331.199 1060.36 343.903C1043 356.605 918 407 918 407Z" fill="white"/>
</g>
</g>
<g clip-path="url(#clip3_20_75)">
<circle cx="1450" cy="250" r="228" fill="#B5D9B1" stroke="#09721A" stroke-width="44"/>
<path d="M1450.04 388.6C1429.4 388.6 1411.16 384.52 1395.32 376.36C1379.72 368.2 1366.28 355.96 1355 339.64L1381.64 309.04C1393.4 325.84 1404.68 337.48 1415.48 343.96C1426.28 350.44 1439.12 353.68 1454 353.68C1463.12 353.68 1471.4 352.24 1478.84 349.36C1486.28 346.48 1492.16 342.52 1496.48 337.48C1500.8 332.44 1502.96 326.68 1502.96 320.2C1502.96 315.88 1502.24 311.8 1500.8 307.96C1499.36 304.12 1497.08 300.64 1493.96 297.52C1491.08 294.4 1487.24 291.52 1482.44 288.88C1477.88 286.24 1472.48 283.96 1466.24 282.04C1460 279.88 1452.8 278.08 1444.64 276.64C1427.36 273.28 1412.96 268.24 1401.44 261.52C1390.16 254.8 1381.64 246.28 1375.88 235.96C1370.36 225.64 1367.6 213.64 1367.6 199.96C1367.6 189.88 1369.76 180.52 1374.08 171.88C1378.64 163.24 1384.76 155.8 1392.44 149.56C1400.36 143.08 1409.6 138.16 1420.16 134.8C1430.72 131.2 1442.12 129.4 1454.36 129.4C1473.8 129.4 1490.72 133.24 1505.12 140.92C1519.76 148.36 1531.28 159.28 1539.68 173.68L1512.32 200.68C1505.12 188.92 1496.48 179.92 1486.4 173.68C1476.56 167.44 1465.52 164.32 1453.28 164.32C1443.92 164.32 1435.76 165.76 1428.8 168.64C1421.84 171.52 1416.32 175.6 1412.24 180.88C1408.4 185.92 1406.48 191.92 1406.48 198.88C1406.48 203.92 1407.44 208.6 1409.36 212.92C1411.28 217 1414.16 220.72 1418 224.08C1422.08 227.2 1427.48 230.08 1434.2 232.72C1440.92 235.12 1448.96 237.28 1458.32 239.2C1471.52 242.08 1483.28 245.8 1493.6 250.36C1503.92 254.68 1512.68 259.84 1519.88 265.84C1527.08 271.84 1532.48 278.56 1536.08 286C1539.92 293.44 1541.84 301.48 1541.84 310.12C1541.84 326.2 1538.12 340.12 1530.68 351.88C1523.24 363.64 1512.68 372.76 1499 379.24C1485.32 385.48 1469 388.6 1450.04 388.6ZM1428.44 417.76V254.32L1463.36 266.2V417.76H1428.44ZM1477.76 266.2L1442.84 254.32V103.48H1477.76V266.2Z" fill="#09721A"/>
</g>
<g clip-path="url(#clip4_20_75)">
<mask id="mask1_20_75" style="mask-type:alpha" maskUnits="userSpaceOnUse" x="1800" y="0" width="500" height="500">
<circle cx="2050" cy="250" r="250" fill="#169986"/>
</mask>
<g mask="url(#mask1_20_75)">
<rect x="2050" width="250" height="500" fill="#0E6357"/>
<rect x="1800" width="250" height="500" fill="#169986"/>
</g>
<g clip-path="url(#clip5_20_75)">
<path d="M2112.94 230.682C2115.18 239.591 2113.72 254.265 2113.72 254.265L2093.03 260.712L2076.5 245.937C2076.5 245.937 2083.59 239.452 2089.7 227.021C2094.36 217.533 2095.45 205.372 2095.45 205.372C2095.45 205.372 2108.77 214.128 2112.94 230.682Z" fill="#4B2D03"/>
<path d="M2086.81 253.458C2086.81 253.458 2101.66 253.801 2110.98 248.521C2129.27 238.163 2145.21 203.694 2158.75 174.657C2173.13 143.809 2183.17 135.974 2189.38 135.905C2202.45 135.76 2209.09 154.281 2216.29 154.563C2226.66 154.968 2223.1 125.532 2234.29 126.215C2249.43 127.142 2247.96 150.781 2252.12 152.11C2255.24 153.108 2256.14 147.501 2260.1 147.732C2276.8 148.709 2262.99 195.433 2264.74 198.572C2267.14 202.852 2271.18 199.4 2271.72 204.543C2274.14 227.729 2238.88 267.48 2202.49 280.591C2189.49 285.276 2165.06 280.973 2165.06 280.973L2096.19 264.022L2086.81 253.458Z" fill="#605039"/>
<path d="M2003.39 204.168C2003.39 204.168 2004.48 216.329 2009.14 225.817C2015.24 238.248 2022.33 244.733 2022.33 244.733L2005.81 259.508L1985.12 253.061C1985.12 253.061 1983.65 238.387 1985.9 229.479C1990.06 212.924 2003.39 204.168 2003.39 204.168Z" fill="#4B2D03"/>
<path d="M2012.03 252.254C2012.03 252.254 1997.17 252.598 1987.85 247.317C1969.56 236.959 1953.62 202.49 1940.09 173.453C1925.71 142.605 1915.67 134.771 1909.45 134.702C1896.39 134.556 1889.74 153.077 1882.54 153.359C1872.18 153.765 1875.73 124.328 1864.55 125.012C1849.4 125.938 1850.88 149.577 1846.71 150.907C1843.59 151.904 1842.69 146.298 1838.74 146.529C1822.03 147.505 1835.85 194.229 1834.09 197.369C1831.7 201.648 1827.65 198.196 1827.12 203.339C1824.7 226.525 1859.96 266.276 1896.34 279.387C1909.34 284.072 1933.77 279.769 1933.77 279.769L2002.65 262.818L2012.03 252.254Z" fill="#605039"/>
<path d="M2081.38 406.686C2089.39 399.982 2084.34 380.278 2084.47 368.703C2084.79 339.981 2101.83 296.904 2099.59 272.882C2098.45 260.694 2092.5 249.459 2077.23 241.19C2067.06 235.682 2032.08 235.682 2021.91 241.19C2006.64 249.459 2000.69 260.694 1999.55 272.882C1997.31 296.904 2014.35 339.981 2014.67 368.703C2014.8 380.278 2009.75 399.982 2017.76 406.686C2024.18 412.062 2036.94 418.749 2049.76 418.792C2062.1 418.834 2074.49 412.45 2081.38 406.686Z" fill="#72470B"/>
<path d="M2014.54 261.317C2014.54 261.317 2017.6 262.937 2016.82 268.648C2015.99 274.708 2013.41 276.306 2013.41 276.306C2013.41 276.306 1995.12 276.959 1972.41 278.068C1951.49 279.089 1928.87 286.298 1917.02 286.034C1899.28 285.638 1877.07 275.533 1877.77 252.388C1878.26 236.256 1894.76 206.484 1916.81 206.206C1930.91 206.028 1905.21 228.703 1906.76 246.51C1907.22 251.868 1909.82 257.866 1913.45 257.886C1929.21 257.975 1947.31 204.197 1978.3 203.91C1987.56 203.824 1977.08 215.109 1968.19 228.111C1962.54 236.378 1959.2 244.549 1957.9 249.373C1956.54 254.411 1956.66 257.125 1957.94 257.372C1962.96 258.344 1974.46 235.613 1989.83 235.366C1993.31 235.31 1992.83 240.366 1988.95 244.824C1985.23 249.091 1982.79 254.374 1984.64 258.237C1986.19 261.483 1993.13 261.035 1999.93 261.031C2007.32 261.027 2014.54 261.317 2014.54 261.317Z" fill="#907A5A"/>
<path d="M2098.9 262.235C2105.7 262.238 2112.64 262.687 2114.19 259.441C2116.04 255.578 2113.6 250.294 2109.89 246.028C2106 241.569 2105.53 236.514 2109.01 236.57C2124.37 236.817 2135.87 259.548 2140.9 258.575C2142.17 258.329 2142.29 255.614 2140.93 250.577C2139.63 245.752 2136.3 237.582 2130.65 229.315C2121.76 216.312 2111.28 205.028 2120.53 205.114C2151.53 205.4 2169.62 259.178 2185.39 259.09C2189.01 259.07 2191.61 253.072 2192.08 247.713C2193.63 229.907 2167.92 207.231 2182.03 207.409C2204.07 207.688 2220.58 237.459 2221.07 253.592C2221.77 276.736 2199.56 286.842 2181.81 287.238C2169.96 287.502 2147.35 280.292 2126.42 279.271C2103.71 278.163 2085.42 277.509 2085.42 277.509C2085.42 277.509 2082.85 275.912 2082.02 269.852C2081.23 264.141 2084.3 262.521 2084.3 262.521C2084.3 262.521 2091.52 262.231 2098.9 262.235Z" fill="#907A5A"/>
<path d="M2021.92 340.194C2022.95 347.285 2021.06 353.428 2017.71 353.914C2014.36 354.4 2012.42 349.046 2011.39 341.955C2010.36 334.865 2010.63 328.722 2013.99 328.236C2017.34 327.75 2020.89 333.104 2021.92 340.194Z" fill="#4B2D03"/>
<path d="M2034.8 398.136C2031.55 399.439 2029.01 404.422 2028.9 407.726C2028.69 414.055 2034.34 418.499 2050.2 418.595C2064.3 418.681 2070.36 413.655 2070.17 407.727C2070.06 404.424 2067.52 399.441 2064.26 398.138C2061.24 396.927 2055.34 398.974 2049.54 398.966C2043.66 398.958 2037.87 396.911 2034.8 398.136Z" fill="#4B2D03"/>
<path d="M2084.85 329.44C2088.2 329.926 2088.47 336.068 2087.45 343.159C2086.42 350.25 2084.48 355.604 2081.12 355.118C2077.77 354.631 2075.89 348.489 2076.92 341.398C2077.94 334.307 2081.5 328.953 2084.85 329.44Z" fill="#4B2D03"/>
</g>
</g>
<g clip-path="url(#clip6_20_75)">
<mask id="mask2_20_75" style="mask-type:alpha" maskUnits="userSpaceOnUse" x="2400" y="0" width="500" height="500">
<circle cx="2650" cy="250" r="250" fill="#D9D9D9"/>
</mask>
<g mask="url(#mask2_20_75)">
<path d="M2900 0L2400 500H2900V0Z" fill="#FFDD00"/>
<path d="M2400 500L2900 8.74228e-05L2400 0L2400 500Z" fill="#217DE6"/>
<path d="M2650 152L2679.07 218.273L2748 226.866L2697.04 276.417L2710.57 348L2650 312.352L2589.43 348L2602.96 276.417L2552 226.866L2620.93 218.273L2650 152Z" fill="white"/>
<path d="M2523 80L2535.76 109.079L2566 112.849L2543.64 134.591L2549.58 166L2523 150.359L2496.42 166L2502.36 134.591L2480 112.849L2510.24 109.079L2523 80Z" fill="white"/>
<path d="M2777 80L2789.76 109.079L2820 112.849L2797.64 134.591L2803.58 166L2777 150.359L2750.42 166L2756.36 134.591L2734 112.849L2764.24 109.079L2777 80Z" fill="white"/>
<path d="M2523 334L2535.76 363.079L2566 366.849L2543.64 388.591L2549.58 420L2523 404.359L2496.42 420L2502.36 388.591L2480 366.849L2510.24 363.079L2523 334Z" fill="white"/>
<path d="M2777 334L2789.76 363.079L2820 366.849L2797.64 388.591L2803.58 420L2777 404.359L2750.42 420L2756.36 388.591L2734 366.849L2764.24 363.079L2777 334Z" fill="white"/>
</g>
</g>
<defs>
<clipPath id="clip0_20_75">
<rect width="500" height="500" fill="white"/>
</clipPath>
<clipPath id="clip1_20_75">
<rect width="445" height="420" fill="white" transform="translate(27 40)"/>
</clipPath>
<clipPath id="clip2_20_75">
<rect width="500" height="500" fill="white" transform="translate(600)"/>
</clipPath>
<clipPath id="clip3_20_75">
<rect width="500" height="500" fill="white" transform="translate(1200)"/>
</clipPath>
<clipPath id="clip4_20_75">
<rect width="500" height="500" fill="white" transform="translate(1800)"/>
</clipPath>
<clipPath id="clip5_20_75">
<rect width="445" height="294" fill="white" transform="translate(1827 125)"/>
</clipPath>
<clipPath id="clip6_20_75">
<rect width="500" height="500" fill="white" transform="translate(2400)"/>
</clipPath>
</defs>
</svg>
