<svg width="445" height="420" viewBox="0 0 445 420" fill="none" xmlns="http://www.w3.org/2000/svg">
<g clip-path="url(#clip0_17_183)">
<path d="M248.981 24.2454C248.981 24.2454 277.774 -5.61196 315.818 1.3521C331.376 4.19989 332.756 50.8017 332.756 50.8017C332.756 50.8017 376.569 38.9895 385.402 50.8017C414.74 90.0341 372.584 142.375 372.584 142.375L234.79 184.499L222.429 202.813L204.118 182.667L248.981 24.2454Z" fill="#F34ED9"/>
<path d="M406.17 172.949C406.17 172.949 442.251 193.406 444.98 231.992C446.095 247.771 401.312 260.712 401.312 260.712C401.312 260.712 423.659 300.211 414.42 311.708C383.733 349.894 322.554 322.091 322.554 322.091L226.479 202.938L226.644 191.687L241.593 168.933L406.17 172.949Z" fill="#F34ED9"/>
<path d="M305.551 357.957C305.551 357.957 300.794 399.166 266.335 416.731C252.244 423.915 222.86 387.721 222.86 387.721C222.86 387.721 195.215 423.71 181.026 419.686C133.9 406.323 135.629 339.135 135.629 339.135L219.559 221.996L218.265 199.937L245.044 204.828L305.551 357.957Z" fill="#F34ED9"/>
<path d="M101.282 331.108C101.282 331.108 60.9923 340.954 32.5576 314.733C20.9299 304.01 44.6637 263.883 44.6637 263.883C44.6637 263.883 1.32075 250.449 0.166583 235.743C-3.66679 186.902 59.9312 165.196 59.9312 165.196L198.906 203.245L219.139 194.372L223.851 221.187L101.282 331.108Z" fill="#F34ED9"/>
<path d="M64.8963 125.662C64.8963 125.662 44.8303 89.3582 62.6723 55.0373C69.9684 41.0026 114.908 53.3859 114.908 53.3859C114.908 53.3859 116.503 8.02966 130.389 3.05911C176.507 -13.4498 214.13 42.2398 214.13 42.2398L213.866 186.351L227.733 203.553L203.096 215.134L64.8963 125.662Z" fill="#F34ED9"/>
<path d="M220.14 206.934C220.14 206.934 162.932 167.989 169.326 106.204C178.283 19.6539 266.377 17.8353 266.377 17.8353C266.377 17.8353 257.246 24.884 256.46 32.3025C253.732 58.0507 288.088 47.418 288.438 68.6746C288.776 89.218 256.247 84.4817 257.18 99.3231C257.754 108.458 269.399 108.588 267.455 121.087C264.45 140.399 249.666 138.577 234.127 145.95C226.811 149.422 219.596 159.762 217.231 169.306C213.14 185.814 223.463 204.959 223.463 204.959L220.14 206.934Z" fill="white"/>
<path d="M206.858 177.71C206.858 177.71 194.108 149.481 194.369 127.792C194.617 107.174 203.607 76.9004 217.49 79.8742C230.41 82.6414 205.492 118.335 214.021 114.767C219.877 112.317 229.903 111.424 225.788 121.931C223.319 128.236 213.158 134.847 209.607 147.072C205.085 162.637 206.858 177.71 206.858 177.71Z" fill="#FBC1F2"/>
<path d="M221.091 201.439C221.091 201.439 241.664 135.354 302.62 123.462C388.008 106.803 415.425 190.556 415.425 190.556C415.425 190.556 406.022 183.875 398.698 185.286C373.277 190.18 393.46 219.951 373.232 226.481C353.683 232.793 348.731 200.291 334.809 205.51C326.24 208.722 329.51 219.901 316.988 221.684C297.642 224.438 295.075 209.763 283.494 197.045C278.042 191.058 266.049 187.168 256.232 187.687C239.25 188.586 223.949 204.042 223.949 204.042L221.091 201.439Z" fill="white"/>
<path d="M245.17 180.213C245.17 180.213 268.452 159.786 289.272 153.714C309.064 147.942 340.638 147.718 341.841 161.868C342.96 175.035 301.56 161.6 307.458 168.719C311.508 173.608 315.285 182.94 304.036 182.066C297.286 181.542 288.002 173.747 275.274 173.912C259.069 174.123 245.17 180.213 245.17 180.213Z" fill="#FBC1F2"/>
<path d="M221.765 199.465C221.765 199.465 290.879 195.954 323.087 249.064C368.204 323.461 299.084 378.117 299.084 378.117C299.084 378.117 302.106 366.984 298.254 360.596C284.882 338.425 263.918 367.65 250.805 350.919C238.131 334.748 266.92 318.876 257.215 307.61C251.242 300.676 241.881 307.606 235.884 296.468C226.619 279.261 239.503 271.783 247.437 256.522C251.173 249.336 250.681 236.736 246.804 227.7C240.097 212.071 220.31 203.046 220.31 203.046L221.765 199.465Z" fill="white"/>
<path d="M249.998 214.736C249.998 214.736 277.204 229.536 290.091 246.982C302.342 263.566 313.455 293.126 300.593 299.141C288.625 304.738 286.935 261.238 282.292 269.233C279.103 274.723 271.651 281.49 268.586 270.63C266.747 264.113 270.855 252.707 266.305 240.817C260.511 225.68 249.998 214.736 249.998 214.736Z" fill="#FBC1F2"/>
<path d="M226.849 200.034C226.849 200.034 252.133 264.464 212.014 311.88C155.816 378.301 82.0415 330.113 82.0415 330.113C82.0415 330.113 93.5561 329.442 98.3883 323.76C115.16 304.036 80.7933 293.438 92.4899 275.686C103.794 258.531 127.986 280.79 135.584 268.008C140.26 260.14 130.717 253.465 139.371 244.239C152.742 229.986 163.923 239.829 180.912 242.506C188.911 243.766 200.7 239.297 208.035 232.749C220.721 221.423 222.992 199.791 222.992 199.791L226.849 200.034Z" fill="white"/>
<path d="M221.34 231.66C221.34 231.66 215.952 262.162 203.506 279.926C191.676 296.813 167.182 316.742 157.394 306.456C148.285 296.883 188.988 281.462 179.933 279.598C173.716 278.318 164.933 273.401 174.255 267.044C179.849 263.23 191.968 263.502 201.794 255.41C214.305 245.107 221.34 231.66 221.34 231.66Z" fill="#FBC1F2"/>
<path d="M225.985 207.142C225.985 207.142 171.208 249.44 114.472 224.176C34.995 188.787 60.6202 104.468 60.6202 104.468C60.6202 104.468 64.4842 115.337 71.2907 118.388C94.9149 128.977 95.477 93.0123 115.788 99.2797C135.418 105.337 120.816 134.793 135.211 138.514C144.071 140.804 147.81 129.773 159.087 135.503C176.508 144.356 170.186 157.846 172.368 174.909C173.396 182.942 180.983 193.013 189.319 198.225C203.739 207.24 225.139 203.37 225.139 203.37L225.985 207.142Z" fill="white"/>
<path d="M194.086 210.697C194.086 210.697 163.298 214.053 142.765 207.07C123.247 200.432 97.2658 182.486 104.403 170.209C111.045 158.786 137.231 193.558 136.488 184.342C135.978 178.014 138.242 168.204 146.951 175.379C152.177 179.684 155.304 191.397 165.821 198.57C179.21 207.702 194.086 210.697 194.086 210.697Z" fill="#FBC1F2"/>
</g>
<defs>
<clipPath id="clip0_17_183">
<rect width="445" height="420" fill="white"/>
</clipPath>
</defs>
</svg>
