<svg width="500" height="569" viewBox="0 0 500 569" fill="none" xmlns="http://www.w3.org/2000/svg">
<path d="M13.8264 557V523.4H28.0824C30.0664 523.4 31.8584 523.88 33.4584 524.84C35.0904 525.768 36.3704 527.048 37.2984 528.68C38.2584 530.312 38.7384 532.152 38.7384 534.2C38.7384 536.28 38.2584 538.152 37.2984 539.816C36.3704 541.48 35.0904 542.808 33.4584 543.8C31.8584 544.76 30.0664 545.24 28.0824 545.24H21.0264V557H13.8264ZM20.9304 538.76H27.2664C28.0344 538.76 28.7224 538.568 29.3304 538.184C29.9384 537.768 30.4184 537.224 30.7704 536.552C31.1544 535.88 31.3464 535.112 31.3464 534.248C31.3464 533.384 31.1544 532.632 30.7704 531.992C30.4184 531.32 29.9384 530.808 29.3304 530.456C28.7224 530.072 28.0344 529.88 27.2664 529.88H20.9304V538.76ZM60.9298 557.288C58.2098 557.288 55.7778 556.728 53.6338 555.608C51.5218 554.456 49.8578 552.888 48.6418 550.904C47.4258 548.888 46.8178 546.616 46.8178 544.088V523.352H54.0658V543.656C54.0658 545 54.3698 546.216 54.9778 547.304C55.5858 548.36 56.4018 549.208 57.4258 549.848C58.4818 550.488 59.6498 550.808 60.9298 550.808C62.2418 550.808 63.4258 550.488 64.4818 549.848C65.5698 549.208 66.4178 548.36 67.0258 547.304C67.6658 546.216 67.9858 545 67.9858 543.656V523.352H74.9938V544.088C74.9938 546.616 74.3858 548.888 73.1698 550.904C71.9538 552.888 70.2738 554.456 68.1298 555.608C66.0178 556.728 63.6178 557.288 60.9298 557.288ZM85.3539 557V523.4H99.9459C102.186 523.4 104.074 523.736 105.61 524.408C107.178 525.048 108.362 525.992 109.162 527.24C109.962 528.488 110.362 529.976 110.362 531.704C110.362 533.624 109.882 535.224 108.922 536.504C107.962 537.784 106.586 538.664 104.794 539.144L104.746 538.184C106.218 538.536 107.514 539.112 108.634 539.912C109.754 540.712 110.618 541.704 111.226 542.888C111.834 544.072 112.138 545.416 112.138 546.92C112.138 548.584 111.866 550.056 111.322 551.336C110.778 552.584 109.978 553.624 108.922 554.456C107.866 555.288 106.618 555.928 105.178 556.376C103.77 556.792 102.186 557 100.426 557H85.3539ZM92.2659 550.76H100.138C101.162 550.76 102.026 550.616 102.73 550.328C103.466 550.008 104.026 549.528 104.41 548.888C104.794 548.248 104.986 547.496 104.986 546.632C104.986 545.8 104.778 545.096 104.362 544.52C103.946 543.944 103.354 543.512 102.586 543.224C101.85 542.904 100.954 542.744 99.8979 542.744H92.2659V550.76ZM92.2659 537.032H99.0819C99.9459 537.032 100.698 536.872 101.338 536.552C101.978 536.232 102.458 535.8 102.778 535.256C103.13 534.712 103.306 534.072 103.306 533.336C103.306 532.152 102.922 531.24 102.154 530.6C101.386 529.96 100.234 529.64 98.6979 529.64H92.2659V537.032ZM120.602 557V523.4H127.802V550.52H143.018V557H120.602ZM150.767 557V550.808H156.383V529.592H150.767V523.4H169.199V529.592H163.583V550.808H169.199V557H150.767ZM193.037 557.48C190.573 557.48 188.301 557.064 186.221 556.232C184.173 555.368 182.381 554.168 180.845 552.632C179.341 551.064 178.173 549.224 177.341 547.112C176.509 544.968 176.093 542.632 176.093 540.104C176.093 537.64 176.525 535.368 177.389 533.288C178.253 531.176 179.469 529.352 181.037 527.816C182.605 526.248 184.445 525.032 186.557 524.168C188.669 523.304 190.957 522.872 193.421 522.872C195.021 522.872 196.589 523.096 198.125 523.544C199.693 523.96 201.117 524.584 202.397 525.416C203.709 526.248 204.829 527.24 205.757 528.392L201.245 533.384C200.477 532.616 199.677 531.96 198.845 531.416C198.045 530.84 197.181 530.408 196.253 530.12C195.357 529.8 194.397 529.64 193.373 529.64C191.997 529.64 190.701 529.896 189.485 530.408C188.301 530.92 187.261 531.64 186.365 532.568C185.469 533.464 184.749 534.568 184.205 535.88C183.693 537.16 183.437 538.584 183.437 540.152C183.437 541.752 183.693 543.208 184.205 544.52C184.717 545.8 185.437 546.904 186.365 547.832C187.293 548.728 188.397 549.432 189.677 549.944C190.989 550.424 192.429 550.664 193.997 550.664C195.021 550.664 196.013 550.52 196.973 550.232C197.933 549.944 198.813 549.544 199.613 549.032C200.445 548.52 201.181 547.928 201.821 547.256L205.325 552.872C204.557 553.736 203.517 554.52 202.205 555.224C200.925 555.928 199.485 556.488 197.885 556.904C196.285 557.288 194.669 557.48 193.037 557.48ZM240.85 557.48C238.77 557.48 236.866 557.224 235.138 556.712C233.442 556.2 231.922 555.448 230.578 554.456C229.266 553.464 228.082 552.264 227.026 550.856L231.538 545.72C233.106 547.896 234.658 549.384 236.194 550.184C237.762 550.952 239.458 551.336 241.282 551.336C242.274 551.336 243.154 551.208 243.922 550.952C244.722 550.664 245.346 550.264 245.794 549.752C246.242 549.24 246.466 548.632 246.466 547.928C246.466 547.416 246.354 546.952 246.13 546.536C245.906 546.088 245.586 545.704 245.17 545.384C244.754 545.032 244.258 544.728 243.682 544.472C243.106 544.184 242.466 543.944 241.762 543.752C241.058 543.528 240.29 543.352 239.458 543.224C237.666 542.808 236.098 542.312 234.754 541.736C233.41 541.128 232.29 540.392 231.394 539.528C230.498 538.632 229.826 537.624 229.378 536.504C228.962 535.384 228.754 534.12 228.754 532.712C228.754 531.272 229.074 529.944 229.714 528.728C230.354 527.48 231.234 526.408 232.354 525.512C233.506 524.616 234.818 523.928 236.29 523.448C237.794 522.968 239.378 522.728 241.042 522.728C243.09 522.728 244.882 522.968 246.418 523.448C247.954 523.896 249.282 524.552 250.402 525.416C251.554 526.28 252.514 527.336 253.282 528.584L248.722 533C248.05 532.104 247.314 531.352 246.514 530.744C245.746 530.136 244.898 529.688 243.97 529.4C243.074 529.08 242.146 528.92 241.186 528.92C240.13 528.92 239.218 529.064 238.45 529.352C237.682 529.608 237.074 529.992 236.626 530.504C236.21 531.016 236.002 531.64 236.002 532.376C236.002 532.952 236.146 533.464 236.434 533.912C236.722 534.36 237.138 534.76 237.682 535.112C238.226 535.432 238.882 535.72 239.65 535.976C240.418 536.232 241.266 536.456 242.194 536.648C243.954 537 245.538 537.464 246.946 538.04C248.354 538.616 249.554 539.32 250.546 540.152C251.57 540.952 252.354 541.912 252.898 543.032C253.442 544.12 253.714 545.352 253.714 546.728C253.714 549 253.17 550.936 252.082 552.536C250.994 554.136 249.49 555.368 247.57 556.232C245.65 557.064 243.41 557.48 240.85 557.48ZM262.155 557V523.4H284.859V529.736H269.163V550.664H285.195V557H262.155ZM265.515 542.936V536.792H282.555V542.936H265.515ZM309.28 557.48C306.816 557.48 304.544 557.064 302.464 556.232C300.416 555.368 298.624 554.168 297.088 552.632C295.584 551.064 294.416 549.224 293.584 547.112C292.752 544.968 292.336 542.632 292.336 540.104C292.336 537.64 292.768 535.368 293.632 533.288C294.496 531.176 295.712 529.352 297.28 527.816C298.848 526.248 300.688 525.032 302.8 524.168C304.912 523.304 307.2 522.872 309.664 522.872C311.264 522.872 312.832 523.096 314.368 523.544C315.936 523.96 317.36 524.584 318.64 525.416C319.952 526.248 321.072 527.24 322 528.392L317.488 533.384C316.72 532.616 315.92 531.96 315.088 531.416C314.288 530.84 313.424 530.408 312.496 530.12C311.6 529.8 310.64 529.64 309.616 529.64C308.24 529.64 306.944 529.896 305.728 530.408C304.544 530.92 303.504 531.64 302.608 532.568C301.712 533.464 300.992 534.568 300.448 535.88C299.936 537.16 299.68 538.584 299.68 540.152C299.68 541.752 299.936 543.208 300.448 544.52C300.96 545.8 301.68 546.904 302.608 547.832C303.536 548.728 304.64 549.432 305.92 549.944C307.232 550.424 308.672 550.664 310.24 550.664C311.264 550.664 312.256 550.52 313.216 550.232C314.176 549.944 315.056 549.544 315.856 549.032C316.688 548.52 317.424 547.928 318.064 547.256L321.568 552.872C320.8 553.736 319.76 554.52 318.448 555.224C317.168 555.928 315.728 556.488 314.128 556.904C312.528 557.288 310.912 557.48 309.28 557.48ZM343.382 557.288C340.662 557.288 338.23 556.728 336.086 555.608C333.974 554.456 332.31 552.888 331.094 550.904C329.878 548.888 329.27 546.616 329.27 544.088V523.352H336.518V543.656C336.518 545 336.822 546.216 337.43 547.304C338.038 548.36 338.854 549.208 339.878 549.848C340.934 550.488 342.102 550.808 343.382 550.808C344.694 550.808 345.878 550.488 346.934 549.848C348.022 549.208 348.87 548.36 349.478 547.304C350.118 546.216 350.438 545 350.438 543.656V523.352H357.446V544.088C357.446 546.616 356.838 548.888 355.622 550.904C354.406 552.888 352.726 554.456 350.582 555.608C348.47 556.728 346.07 557.288 343.382 557.288ZM367.806 557V523.4H382.686C384.766 523.4 386.654 523.88 388.35 524.84C390.046 525.768 391.374 527.032 392.334 528.632C393.326 530.232 393.822 532.056 393.822 534.104C393.822 536.12 393.326 537.96 392.334 539.624C391.374 541.256 390.046 542.552 388.35 543.512C386.654 544.472 384.766 544.952 382.686 544.952H374.766V557H367.806ZM386.862 557L378.318 541.832L385.71 540.632L395.214 557.048L386.862 557ZM374.766 539.096H382.35C383.214 539.096 383.966 538.904 384.606 538.52C385.278 538.104 385.79 537.544 386.142 536.84C386.494 536.104 386.67 535.288 386.67 534.392C386.67 533.432 386.462 532.6 386.046 531.896C385.63 531.192 385.022 530.648 384.222 530.264C383.422 529.848 382.494 529.64 381.438 529.64H374.766V539.096ZM402.471 557V550.808H408.087V529.592H402.471V523.4H420.903V529.592H415.287V550.808H420.903V557H402.471ZM437.716 557V529.88H427.924V523.4H454.996V529.88H444.916V557H437.716ZM472.115 557V540.248L472.451 542.6L458.867 523.4H467.171L477.539 538.28L474.275 538.136L483.635 523.4H491.651L478.643 543.128L479.363 539.864V557H472.115Z" fill="#F01ACE"/>
<path d="M252.818 35.3357L186.01 148.393L245.183 214.393L196.802 146.618L251.044 46.0155L261.781 111.36L252.818 35.3357ZM263.759 0L288.354 200.412L263.757 248.146L163.673 151.112L263.759 0Z" fill="#F01ACE"/>
<path d="M268.788 76.2971C268.788 76.2971 287.373 27.7565 326.594 29.6482C360.038 31.2613 352.595 85.8787 352.595 85.8787C352.595 85.8787 406.237 65.1092 421.443 88.6703C440.638 118.413 405.873 169.718 405.873 169.718" stroke="#F01ACE" stroke-width="7" stroke-miterlimit="10" stroke-linecap="round"/>
<path d="M280.14 161.714C280.14 161.714 290.385 141.267 302.229 131.702C314.969 121.413 333.777 117 333.777 117C333.777 117 329.343 126.903 328.997 135.553C328.694 143.142 330.983 152.212 330.983 152.212" stroke="#F01ACE" stroke-width="5" stroke-miterlimit="10" stroke-linecap="round"/>
<path d="M460.023 193.156L332.063 163.79L287.16 240.226L337.03 173.539L449.313 194.707L390.333 224.775L460.023 193.156ZM497 192.86L313.58 277.132L260.65 268.175L322.693 143.324L497 192.86Z" fill="#F01ACE"/>
<path d="M425.856 220.811C425.856 220.811 477.73 223.793 487.833 261.753C496.447 294.121 442.167 303.603 442.167 303.603C442.167 303.603 478.231 348.43 460.405 370.075C437.902 397.4 378.484 379.833 378.484 379.833" stroke="#F01ACE" stroke-width="7" stroke-miterlimit="10" stroke-linecap="round"/>
<path d="M352.213 256.198C352.213 256.198 374.798 259.757 387.502 268.143C401.169 277.164 411.081 293.752 411.081 293.752C411.081 293.752 400.303 292.531 391.959 294.827C384.639 296.841 376.695 301.777 376.695 301.777" stroke="#F01ACE" stroke-width="5" stroke-miterlimit="10" stroke-linecap="round"/>
<path d="M375.316 438.457L362.974 307.704L276.328 289.078L355.284 315.484L370.479 428.772L323.412 382.207L375.316 438.457ZM387.217 473.48L249.606 325.766L241.475 272.684L379.452 292.375L387.217 473.48Z" fill="#F01ACE"/>
<path d="M338.336 414.698C338.336 414.698 351.806 464.9 318.958 486.423C290.948 504.775 264.893 456.205 264.893 456.205C264.893 456.205 233.685 504.54 207.542 494.413C174.541 481.628 172.54 419.679 172.54 419.679" stroke="#F01ACE" stroke-width="7" stroke-miterlimit="10" stroke-linecap="round"/>
<path d="M281.613 355.878C281.613 355.878 285.332 378.446 281.366 393.146C277.1 408.961 264.473 423.587 264.473 423.587C264.473 423.587 262.245 412.967 257.444 405.764C253.232 399.445 246.052 393.451 246.052 393.451" stroke="#F01ACE" stroke-width="5" stroke-miterlimit="10" stroke-linecap="round"/>
<path d="M112.412 432.35L233.217 380.93L224.68 292.685L223.473 375.959L120.17 424.801L150.251 365.812L112.412 432.35ZM82.6599 454.316L181.629 278.338L229.726 254.488L252.816 391.989L82.6599 454.316Z" fill="#F01ACE"/>
<path d="M123.828 389.892C123.828 389.892 80.0937 417.958 49.6301 393.172C23.6541 372.037 62.0175 332.469 62.0175 332.469C62.0175 332.469 6.51123 317.38 8.22952 289.387C10.3986 254.051 68.8014 233.355 68.8014 233.355" stroke="#F01ACE" stroke-width="7" stroke-miterlimit="10" stroke-linecap="round"/>
<path d="M162.653 317.982C162.653 317.982 142.285 328.371 127.079 329.049C110.722 329.778 92.9602 322.177 92.9602 322.177C92.9602 322.177 102.4 316.833 107.805 310.072C112.547 304.14 116.079 295.478 116.079 295.478" stroke="#F01ACE" stroke-width="5" stroke-miterlimit="10" stroke-linecap="round"/>
<path d="M38.1335 179.922L123.124 280.022L204.81 245.633L124.972 269.237L47.6442 185.088L112.888 196.282L38.1335 179.922ZM8.32312 158.035L205.703 200.248L242.766 239.097L118.396 302.029L8.32312 158.035Z" fill="#F01ACE"/>
<path d="M82.0499 178.204C82.0499 178.204 42.2609 144.775 56.8606 108.309C69.3098 77.2144 118.48 102.094 118.48 102.094C118.48 102.094 116.38 44.5911 143.607 37.9104C177.978 29.4769 215.093 79.1077 215.093 79.1077" stroke="#F01ACE" stroke-width="7" stroke-miterlimit="10" stroke-linecap="round"/>
<path d="M162.225 198.39C162.225 198.39 146.254 182.024 141.086 167.701C135.528 152.294 137.502 133.07 137.502 133.07C137.502 133.07 145.409 140.497 153.469 143.65C160.54 146.416 169.857 147.214 169.857 147.214" stroke="#F01ACE" stroke-width="5" stroke-miterlimit="10" stroke-linecap="round"/>
</svg>
