<svg width="500" height="500" viewBox="0 0 500 500" fill="none" xmlns="http://www.w3.org/2000/svg">
<g clip-path="url(#clip0_13_27)">
<mask id="mask0_13_27" style="mask-type:alpha" maskUnits="userSpaceOnUse" x="0" y="0" width="500" height="500">
<circle cx="250" cy="250" r="250" fill="black"/>
</mask>
<g mask="url(#mask0_13_27)">
<path d="M-84 0H583V500H-84V0Z" fill="black"/>
<path d="M-84 150H583V350H-84V150Z" fill="#B212D2"/>
<path d="M247.007 379.592C247.007 379.592 313.08 277.452 313.622 242.555C314.376 194.02 280.636 178.593 244.859 178.75C211.953 178.895 180.045 199.813 177.401 229.928C174.147 266.998 212.73 294.407 212.73 294.407C212.73 294.407 130.252 290.242 129.355 228.667C128.375 161.29 177.437 121.104 242.502 120.417C310.255 119.701 370.657 163.471 370.217 237C369.775 310.527 247.007 379.592 247.007 379.592Z" fill="white"/>
<path d="M40.6443 343.903C23.2836 331.199 22.1179 302.355 76.1345 328.808C122.54 351.533 183 407 183 407C183 407 58.0051 356.605 40.6443 343.903Z" fill="white"/>
<path d="M318 407C318 407 378.46 351.533 424.866 328.808C478.883 302.355 477.716 331.199 460.356 343.903C442.995 356.605 318 407 318 407Z" fill="white"/>
</g>
</g>
<defs>
<clipPath id="clip0_13_27">
<rect width="500" height="500" fill="white"/>
</clipPath>
</defs>
</svg>
