<svg width="500" height="500" viewBox="0 0 500 500" fill="none" xmlns="http://www.w3.org/2000/svg">
<g clip-path="url(#clip0_7_109)">
<path fill-rule="evenodd" clip-rule="evenodd" d="M440.674 328.115C409.901 403.151 336.122 456 250 456C136.229 456 44 363.771 44 250C44 203.234 59.5836 160.108 85.8413 125.531L82.0866 118.154L62.0172 112.575L65.7371 108.13L77.1379 111.616C77.574 111.731 78.0576 111.901 78.5887 112.126C78.7259 112.176 78.861 112.227 78.9938 112.279C78.7259 111.82 78.4335 111.34 78.1167 110.839L72.0679 100.566L75.811 96.0935L85.2858 114.445L89.0607 121.401C126.81 74.2197 184.876 44 250 44C363.771 44 456 136.229 456 250C456 275.795 451.259 300.483 442.601 323.239L446.656 327.795L467.485 328.099L465.014 333.342L453.102 332.863C452.651 332.863 452.14 332.821 451.569 332.738C451.424 332.725 451.28 332.709 451.139 332.692C451.514 333.069 451.919 333.459 452.353 333.863L460.81 342.265L458.325 347.541L444.503 332.194L440.674 328.115ZM500 250C500 388.071 388.071 500 250 500C111.929 500 0 388.071 0 250C0 111.929 111.929 0 250 0C388.071 0 500 111.929 500 250ZM40.4575 357.384L63.7398 347.742L61.7149 342.852L53.7324 346.158C51.5816 347.049 49.7531 347.871 48.2468 348.625C47.77 348.855 47.3005 349.09 46.8384 349.331L53.469 339.877L52.5599 337.682L41.1084 335.599C41.6811 335.425 42.2518 335.243 42.8206 335.052C44.4538 334.48 46.2682 333.78 48.2638 332.954L56.2463 329.648L54.2215 324.759L30.9392 334.401L32.7437 338.758L47.0452 341.134L38.5704 352.827L40.4575 357.384ZM45.4757 298.359L26.8394 302.278L25.7873 297.276L44.4237 293.356L45.4757 298.359ZM22.4808 300.62C22.6833 301.583 22.6064 302.384 22.2503 303.023C21.8942 303.661 21.2816 304.072 20.4126 304.255C19.6141 304.423 18.9114 304.289 18.3046 303.852C17.6694 303.397 17.253 302.7 17.0554 301.761C16.8529 300.798 16.9415 299.994 17.3211 299.35C17.6772 298.711 18.278 298.303 19.1235 298.125C19.9456 297.952 20.6625 298.096 21.2742 298.556C21.881 298.992 22.2832 299.68 22.4808 300.62ZM21.3853 275.525L40.4018 274.501L40.3418 273.387L40.2625 271.913L40.127 269.397L28.6956 270.012C28.1923 270.039 27.7198 269.969 27.2781 269.8C26.8351 269.608 26.4369 269.353 26.0833 269.035C25.7284 268.694 25.4542 268.288 25.2607 267.818C25.0418 267.325 24.917 266.791 24.886 266.215C24.7994 265.499 24.8869 264.893 25.1487 264.399C25.3853 263.881 25.7847 263.487 26.3469 263.217C26.9092 262.946 27.6217 262.787 28.4845 262.741L39.7362 262.135L39.4614 257.031L27.8143 257.658C26.1127 257.749 24.7003 258.078 23.5771 258.643C22.4286 259.185 21.5932 259.963 21.0709 260.977C20.5474 261.966 20.3243 263.18 20.4017 264.618C20.4584 265.673 20.7283 266.668 21.2113 267.603C21.6942 268.538 22.3139 269.334 23.0703 269.99C23.2453 270.142 23.4246 270.282 23.608 270.41L21.1222 270.636L21.3853 275.525ZM39.3951 234.248L20.4441 232.368L20.9487 227.281L39.8997 229.161L39.3951 234.248ZM16.788 229.473C16.6908 230.453 16.3762 231.193 15.8441 231.695C15.3119 232.197 14.604 232.404 13.7204 232.316C12.9083 232.236 12.2788 231.896 11.8318 231.297C11.3632 230.672 11.1763 229.881 11.2711 228.926C11.3682 227.947 11.6948 227.208 12.2508 226.708C12.7829 226.206 13.4789 225.998 14.3387 226.083C15.1746 226.166 15.8149 226.519 16.2595 227.142C16.7066 227.741 16.8827 228.518 16.788 229.473ZM41.8178 208.401C42.7049 207.184 43.3572 205.712 43.7747 203.986C44.1132 202.586 44.1729 201.267 43.9539 200.029C43.7115 198.785 43.2232 197.741 42.4891 196.897C41.7373 196.024 40.7899 195.449 39.6469 195.172C38.9937 195.014 38.3763 194.964 37.7946 195.021C37.2129 195.078 36.6642 195.253 36.1484 195.548C35.5457 195.897 34.9618 196.422 34.3967 197.125C33.8373 197.804 33.2705 198.667 32.6965 199.714C32.2545 200.52 31.8781 201.158 31.5673 201.626C31.2622 202.071 31.0087 202.404 30.8066 202.627C30.5869 202.821 30.3435 202.96 30.0764 203.043C29.8149 203.103 29.5559 203.102 29.2992 203.04C29.0426 202.978 28.8207 202.875 28.6333 202.731C28.4282 202.558 28.2811 202.35 28.1919 202.106C28.1027 201.862 28.0598 201.58 28.0632 201.26C28.0722 200.916 28.1246 200.546 28.2205 200.15C28.3277 199.706 28.5424 199.228 28.8644 198.713C29.1864 198.198 29.5728 197.724 30.0235 197.289C30.4798 196.832 30.9571 196.441 31.4552 196.117L29.1591 192.747C28.4349 193.189 27.7669 193.756 27.1552 194.447C26.5258 195.11 25.9844 195.868 25.5311 196.721C25.0778 197.575 24.7355 198.48 24.5042 199.436C24.2728 200.392 24.1928 201.336 24.2639 202.267C24.3118 203.192 24.4988 204.052 24.8251 204.847C25.157 205.619 25.6277 206.276 26.2373 206.818C26.8235 207.355 27.5365 207.725 28.3763 207.928C29.0761 208.098 29.743 208.148 30.377 208.079C30.9933 207.981 31.5971 207.781 32.1885 207.48C32.8202 207.114 33.4447 206.574 34.0621 205.859C34.6618 205.115 35.2571 204.185 35.8481 203.069C36.2443 202.35 36.5949 201.768 36.9 201.323C37.1817 200.873 37.4092 200.545 37.5822 200.34C37.987 199.993 38.446 199.882 38.9592 200.006C39.2158 200.068 39.4467 200.186 39.6517 200.359C39.8391 200.503 39.9891 200.7 40.1016 200.949C40.1908 201.193 40.2453 201.478 40.2653 201.804C40.2676 202.1 40.2264 202.424 40.1418 202.774C39.9274 203.66 39.5497 204.507 39.0087 205.315C38.4444 206.116 37.6899 206.786 36.7452 207.323L38.6598 211.045C39.8603 210.471 40.913 209.59 41.8178 208.401ZM51.3493 175.199L37.9531 169.724L36.6047 173.023L32.3725 171.293L33.7209 167.994L29.2555 166.169L31.1896 161.437L35.655 163.262L37.126 159.663L41.3581 161.393L39.8871 164.992L53.2834 170.467L51.3493 175.199ZM45.8756 139.925L62.305 149.555L64.9084 145.114L56.3987 140.126C55.881 139.822 55.4534 139.46 55.1157 139.04C54.7901 138.599 54.563 138.132 54.4345 137.639C54.2853 137.134 54.2492 136.626 54.3263 136.115C54.3949 135.571 54.5748 135.051 54.8661 134.554C55.0845 134.181 55.3487 133.849 55.6585 133.558C55.9477 133.254 56.2272 133.015 56.4971 132.839L52.3439 128.819C52.1276 128.998 51.8913 129.235 51.635 129.53C51.3787 129.825 51.1473 130.148 50.941 130.5C50.4555 131.328 50.185 132.241 50.1293 133.238C50.0858 134.214 50.2521 135.187 50.6284 136.159C50.7562 136.504 50.9066 136.835 51.0794 137.153L48.3698 135.67L45.8756 139.925ZM125.374 74.39C127.121 74.2703 128.813 73.6868 130.451 72.6396C132.068 71.6053 133.288 70.3271 134.109 68.8049C134.938 67.2495 135.315 65.6123 135.242 63.8932C135.168 62.1742 134.614 60.5058 133.58 58.8882C132.546 57.2706 131.27 56.0778 129.754 55.3098C128.224 54.5216 126.58 54.1772 124.82 54.2767C123.081 54.3633 121.402 54.9237 119.785 55.958C118.147 57.0052 116.914 58.3065 116.085 59.8618C115.277 61.4043 114.899 63.0415 114.952 64.7735C115.013 66.4723 115.561 68.1306 116.595 69.7482C117.629 71.3658 118.911 72.5687 120.441 73.3569C121.99 74.1322 123.635 74.4766 125.374 74.39ZM129.801 66.9449C129.419 67.7299 128.835 68.3744 128.046 68.8786C127.237 69.3958 126.397 69.6627 125.524 69.6793C124.639 69.6756 123.794 69.4464 122.991 68.9917C122.174 68.5167 121.498 67.838 120.962 66.9556C120.373 66.0788 120.041 65.1804 119.965 64.2602C119.89 63.34 120.036 62.4773 120.404 61.6721C120.773 60.8669 121.361 60.2057 122.17 59.6886C122.959 59.1844 123.796 58.9341 124.681 58.9377C125.553 58.9211 126.388 59.1568 127.184 59.6447C127.988 60.0995 128.674 60.7717 129.243 61.6614C129.799 62.5308 130.121 63.4358 130.209 64.3762C130.305 65.2835 130.169 66.1397 129.801 66.9449ZM158.705 55.6194L153.117 42.5044L150.5 43.6192L148.807 39.645L151.423 38.5301L150.718 36.8742C150.257 35.7923 150.081 34.7063 150.19 33.6161C150.3 32.526 150.666 31.5483 151.288 30.6829C151.933 29.8082 152.83 29.1262 153.978 28.637C154.75 28.3077 155.535 28.1297 156.333 28.103C157.121 28.0543 157.852 28.1472 158.526 28.3818L158.602 32.4188C158.24 32.3645 157.881 32.348 157.525 32.3693C157.181 32.3591 156.888 32.4058 156.645 32.5093C156.226 32.688 155.905 32.9159 155.684 33.1927C155.476 33.4381 155.366 33.7325 155.356 34.076C155.337 34.3974 155.416 34.7678 155.595 35.1873L156.159 36.5121L159.935 34.9033L161.628 38.8775L157.853 40.4863L163.441 53.6013L161.09 54.6033L159.732 55.1819L158.705 55.6194ZM213.645 37.4128C214.977 37.6437 216.417 37.6685 217.967 37.4873C219.874 37.2643 221.506 36.7592 222.864 35.9722C224.219 35.1613 225.232 34.1125 225.903 32.8259C226.574 31.5392 226.811 30.0497 226.613 28.3572C226.493 27.3322 226.183 26.4381 225.683 25.675C225.18 24.8881 224.513 24.2413 223.68 23.7346C222.869 23.2012 221.913 22.7813 220.814 22.4749C219.715 22.1685 218.495 21.9609 217.153 21.852C216.445 21.7898 215.794 21.6968 215.2 21.573C214.605 21.4492 214.091 21.2918 213.658 21.1009C213.222 20.886 212.878 20.6243 212.624 20.3157C212.37 20.007 212.219 19.6382 212.168 19.2091C212.104 18.6609 212.205 18.1779 212.47 17.7603C212.759 17.3398 213.179 17.0008 213.729 16.7432C214.276 16.4618 214.942 16.275 215.729 16.183C216.444 16.0994 217.149 16.1377 217.845 16.2981C218.561 16.4317 219.232 16.6916 219.857 17.0776C220.506 17.4608 221.12 17.9569 221.698 18.5658L224.71 14.8789C224.029 14.0162 223.222 13.3132 222.289 12.7699C221.379 12.2239 220.333 11.8509 219.15 11.651C217.964 11.4273 216.608 11.4046 215.082 11.583C213.843 11.728 212.684 12.0448 211.605 12.5334C210.55 13.0192 209.633 13.646 208.853 14.4138C208.097 15.1788 207.535 16.054 207.167 17.0394C206.796 18.001 206.673 19.0182 206.798 20.0909C206.921 21.1397 207.186 22.0632 207.594 22.8612C208.025 23.6565 208.613 24.3489 209.359 24.9383C210.102 25.5038 211 25.9545 212.054 26.2903C213.106 26.6023 214.317 26.8352 215.688 26.989C216.319 27.0118 216.906 27.076 217.45 27.1816C217.991 27.2632 218.489 27.3863 218.943 27.5506C219.395 27.6911 219.791 27.8744 220.131 28.1004C220.469 28.3025 220.741 28.5607 220.947 28.8749C221.15 29.1653 221.274 29.5011 221.318 29.8825C221.38 30.407 221.266 30.8794 220.976 31.2998C220.687 31.7203 220.257 32.0726 219.687 32.3568C219.137 32.6144 218.492 32.7864 217.753 32.8729C216.395 33.0318 215.098 32.8935 213.863 32.458C212.649 31.9959 211.363 31.0226 210.006 29.5383L207.092 33.7573C208.001 34.7141 208.988 35.5049 210.052 36.1296C211.139 36.7514 212.337 37.1792 213.645 37.4128ZM252.224 34.5212L252.982 20.0691L249.423 19.8825L249.662 15.3168L253.221 15.5033L253.474 10.6859L258.579 10.9535L258.326 15.7709L262.209 15.9744L261.969 20.5401L258.087 20.3366L257.329 34.7888L252.224 34.5212ZM283.186 35.783C284.238 36.9048 285.537 37.6392 287.082 37.9864C287.949 38.181 288.797 38.2363 289.628 38.1523C290.464 38.0448 291.236 37.837 291.945 37.5289C292.564 37.2549 293.118 36.9229 293.607 36.5329L293.062 38.9606L298.085 40.0888L302.258 21.5077L297.306 20.3953L296.759 22.8312C296.511 22.2653 296.188 21.7333 295.789 21.2353C295.332 20.6407 294.746 20.1279 294.031 19.6967C293.345 19.2474 292.545 18.9202 291.632 18.715C290.016 18.3521 288.482 18.4501 287.028 19.0091C285.579 19.5447 284.317 20.4542 283.242 21.7377C282.195 23.0031 281.461 24.5724 281.04 26.4457C280.62 28.3191 280.609 30.0632 281.009 31.6781C281.409 33.2929 282.135 34.6613 283.186 35.783ZM292.031 33.8586C291.229 34.1457 290.359 34.1841 289.422 33.9737C288.509 33.7686 287.751 33.3647 287.149 32.762C286.57 32.1645 286.17 31.423 285.951 30.5374C285.737 29.6284 285.751 28.6353 285.993 27.5582C286.23 26.5044 286.637 25.6242 287.213 24.9174C287.79 24.2107 288.468 23.7111 289.247 23.4187C290.055 23.1082 290.915 23.0555 291.829 23.2606C292.765 23.471 293.532 23.8893 294.13 24.5154C294.732 25.1181 295.131 25.8596 295.327 26.7399C295.547 27.6255 295.538 28.5952 295.301 29.6489C295.059 30.7261 294.647 31.6298 294.065 32.3599C293.511 33.0719 292.833 33.5715 292.031 33.8586ZM322.476 47.0003L327.967 33.6103L324.67 32.2582L326.404 28.028L329.702 29.3802L331.532 24.9169L336.262 26.8564L334.432 31.3197L338.029 32.7948L336.294 37.025L332.697 35.5499L327.206 48.9398L322.476 47.0003ZM351.821 58.8862C352.688 60.4073 354 61.7095 355.757 62.7927C356.492 63.2462 357.294 63.614 358.164 63.8961C359.033 64.1783 359.932 64.3661 360.861 64.4597C361.803 64.5328 362.734 64.4864 363.654 64.3205L363.365 60.1246C362.351 60.2605 361.478 60.2582 360.747 60.1177C360.016 59.9772 359.293 59.6865 358.578 59.2456C357.536 58.6033 356.747 57.8487 356.21 56.9819C355.706 56.1073 355.46 55.1802 355.471 54.2007C355.49 53.6509 355.6 53.099 355.804 52.5448L367.365 59.6728L368.227 58.3433C368.986 57.2041 369.484 56.0308 369.721 54.8234C369.957 53.6161 369.949 52.4408 369.695 51.2975C369.474 50.1464 369.014 49.0871 368.313 48.1196C367.626 47.1316 366.73 46.2975 365.627 45.6174C364.442 44.8868 363.207 44.4212 361.921 44.2204C360.668 44.0119 359.434 44.069 358.22 44.3919C357.019 44.6943 355.892 45.2405 354.841 46.0305C353.79 46.8205 352.881 47.8386 352.112 49.0848C351.117 50.6987 350.603 52.3555 350.571 54.0551C350.538 55.7547 350.955 57.3651 351.821 58.8862ZM357.485 49.9022L364.933 54.494L365.009 54.3714C365.308 53.7946 365.433 53.1807 365.383 52.5298C365.354 51.8914 365.169 51.2985 364.83 50.751C364.491 50.2036 364.015 49.7409 363.402 49.3631C362.503 48.8089 361.63 48.5102 360.783 48.467C359.956 48.4365 359.171 48.6575 358.428 49.1302C358.099 49.3396 357.785 49.597 357.485 49.9022ZM405.908 102.509C404.894 101.324 404.112 100.114 403.561 98.8794C403.025 97.6632 402.713 96.4304 402.623 95.1808C402.548 93.9494 402.655 92.6896 402.942 91.4013L408.069 91.4679C407.594 93.4225 407.502 95.0325 407.796 96.2979C408.123 97.5659 408.731 98.7196 409.62 99.759C410.104 100.324 410.606 100.763 411.126 101.076C411.681 101.392 412.213 101.552 412.723 101.558C413.233 101.563 413.689 101.395 414.09 101.051C414.382 100.802 414.592 100.511 414.719 100.181C414.865 99.8349 414.928 99.4653 414.908 99.0722C414.905 98.6635 414.837 98.2326 414.702 97.7796C414.585 97.3109 414.41 96.8292 414.176 96.3344C413.96 95.824 413.686 95.3005 413.353 94.764C412.717 93.54 412.235 92.4046 411.907 91.3579C411.599 90.2955 411.472 89.2984 411.527 88.3665C411.601 87.419 411.848 86.5446 412.267 85.7431C412.703 84.9599 413.322 84.225 414.124 83.5385C414.945 82.8363 415.857 82.3711 416.862 82.1428C417.886 81.899 418.926 81.8777 419.982 82.079C421.055 82.2986 422.086 82.7107 423.078 83.3154C424.085 83.9384 424.994 84.724 425.805 85.6723C426.804 86.8393 427.541 87.9775 428.016 89.0868C428.51 90.1806 428.784 91.2572 428.838 92.3167C428.907 93.3945 428.773 94.4565 428.437 95.5027L423.697 95.0575C423.88 94.2377 423.949 93.4516 423.906 92.6992C423.878 91.9651 423.719 91.2634 423.431 90.5942C423.176 89.9276 422.815 89.3207 422.347 88.7737C421.832 88.1719 421.305 87.7225 420.767 87.4252C420.246 87.1124 419.731 86.9532 419.221 86.9476C418.726 86.9602 418.269 87.146 417.85 87.5049C417.521 87.7857 417.3 88.1174 417.185 88.5C417.07 88.8826 417.045 89.3147 417.11 89.7963C417.193 90.2624 417.349 90.7766 417.577 91.3391C417.806 91.9016 418.092 92.494 418.435 93.1165C419.092 94.291 419.6 95.4199 419.959 96.5031C420.317 97.5863 420.501 98.6134 420.511 99.5844C420.554 100.558 420.389 101.473 420.016 102.329C419.662 103.17 419.092 103.925 418.308 104.596C417.013 105.704 415.645 106.338 414.203 106.498C412.76 106.659 411.325 106.402 409.896 105.73C408.486 105.041 407.157 103.968 405.908 102.509ZM429.545 130.527C429.572 132.277 430.094 134.05 431.113 135.845C431.539 136.597 432.065 137.306 432.691 137.971C433.317 138.637 434.015 139.235 434.784 139.764C435.574 140.282 436.412 140.689 437.298 140.987L439.065 137.17C438.111 136.801 437.347 136.379 436.774 135.904C436.201 135.429 435.708 134.826 435.293 134.095C434.689 133.03 434.361 131.989 434.308 130.971C434.287 129.961 434.518 129.03 435 128.178C435.281 127.705 435.643 127.274 436.089 126.886L442.789 138.7L444.185 137.95C445.398 137.317 446.4 136.529 447.188 135.585C447.977 134.64 448.536 133.606 448.864 132.482C449.225 131.367 449.331 130.217 449.183 129.031C449.056 127.834 448.673 126.672 448.033 125.545C447.347 124.334 446.488 123.331 445.458 122.536C444.46 121.75 443.351 121.206 442.132 120.904C440.933 120.591 439.683 120.527 438.382 120.714C437.08 120.9 435.793 121.354 434.519 122.076C432.87 123.012 431.622 124.216 430.775 125.69C429.928 127.164 429.517 128.776 429.545 130.527ZM438.835 125.38L443.151 132.991L443.277 132.92C443.817 132.558 444.221 132.08 444.491 131.486C444.773 130.912 444.897 130.304 444.863 129.661C444.83 129.017 444.635 128.383 444.28 127.756C443.759 126.838 443.138 126.156 442.416 125.71C441.706 125.285 440.911 125.101 440.033 125.157C439.644 125.182 439.244 125.257 438.835 125.38ZM448.359 170.786C447.76 169.064 447.633 167.38 447.976 165.736C448.319 164.093 449.056 162.63 450.186 161.348C451.323 160.088 452.788 159.148 454.579 158.525C456.347 157.911 458.068 157.744 459.741 158.027C461.445 158.324 462.941 159.01 464.23 160.087C465.519 161.164 466.463 162.563 467.062 164.286C467.621 165.896 467.839 167.472 467.714 169.014C467.59 170.556 467.136 171.883 466.353 172.993L462.235 171.452C462.555 170.985 462.803 170.454 462.977 169.86C463.175 169.258 463.277 168.638 463.284 168C463.299 167.385 463.204 166.783 462.999 166.194C462.676 165.264 462.161 164.516 461.456 163.948C460.781 163.395 459.987 163.048 459.075 162.908C458.162 162.768 457.207 162.871 456.21 163.218C455.235 163.557 454.433 164.064 453.804 164.74C453.205 165.431 452.794 166.221 452.57 167.112C452.369 167.995 452.426 168.89 452.741 169.797C452.946 170.386 453.218 170.914 453.558 171.381C453.921 171.839 454.351 172.236 454.849 172.571C455.354 172.929 455.912 173.218 456.522 173.438L454.236 177.167C452.993 176.735 451.829 175.945 450.744 174.798C449.682 173.642 448.887 172.305 448.359 170.786ZM458.769 201.254C458.325 202.34 458.206 203.571 458.412 204.948C458.572 206.016 458.923 206.983 459.465 207.848C460.007 208.713 460.684 209.425 461.496 209.983C461.744 210.154 461.998 210.305 462.257 210.438L459.674 210.947L460.394 215.754L479.228 212.933L478.471 207.877L467.185 209.567C466.663 209.646 466.162 209.624 465.683 209.501C465.203 209.379 464.772 209.176 464.39 208.894C464.008 208.611 463.687 208.247 463.426 207.801C463.189 207.351 463.029 206.853 462.947 206.307C462.834 205.548 462.904 204.882 463.158 204.31C463.412 203.738 463.826 203.263 464.401 202.886C464.999 202.505 465.725 202.251 466.58 202.123L477.367 200.507L476.61 195.452L465.003 197.19C463.413 197.428 462.088 197.894 461.026 198.587C459.993 199.3 459.24 200.189 458.769 201.254ZM462.811 238.652L481.851 239.047L481.749 243.978L478.66 244.005C478.966 244.198 479.259 244.414 479.538 244.652C480.341 245.317 480.961 246.086 481.399 246.96C481.836 247.857 482.045 248.785 482.025 249.745C482.017 250.153 481.973 250.548 481.893 250.931C481.813 251.313 481.722 251.635 481.621 251.897L476.034 250.413C476.184 250.128 476.311 249.783 476.416 249.377C476.544 248.971 476.613 248.552 476.622 248.121C476.634 247.545 476.537 247.003 476.332 246.494C476.15 246.01 475.87 245.584 475.494 245.217C475.141 244.849 474.716 244.552 474.216 244.326C473.716 244.123 473.166 244.016 472.566 244.004L462.705 243.799L462.811 238.652ZM480.327 272.386L461.498 269.532L460.732 274.586L479.561 277.44L480.327 272.386ZM484.886 273.295C484.329 273.769 483.977 274.492 483.829 275.465C483.685 276.414 483.821 277.199 484.237 277.821C484.649 278.466 485.27 278.851 486.101 278.977C486.955 279.107 487.661 278.934 488.218 278.46C488.799 277.99 489.163 277.269 489.311 276.296C489.455 275.347 489.309 274.548 488.873 273.899C488.457 273.278 487.846 272.906 487.039 272.784C486.161 272.651 485.444 272.821 484.886 273.295ZM457.136 295.079L471.055 299.042L472.03 295.614L476.428 296.866L475.452 300.294L480.091 301.615L478.692 306.531L474.052 305.21L472.987 308.95L468.59 307.698L469.655 303.958L455.736 299.995L457.136 295.079Z" fill="#F01ACE"/>
<g clip-path="url(#clip1_7_109)">
<path d="M115.967 193.936C115.967 193.936 111.201 123.182 118.957 116.381C123.606 112.305 153.266 122.847 153.266 122.847C153.266 122.847 160.602 88.0049 168.604 85.1948C178.271 81.8002 217.538 100.717 217.538 100.717" stroke="#F01ACE" stroke-width="7" stroke-miterlimit="10" stroke-linecap="round"/>
<path d="M140.184 203.041C140.184 203.041 139.642 152.284 144.333 144.584C147.579 139.256 173.439 147.467 173.439 147.467C173.439 147.467 173.706 126.315 179.432 120.655C183.058 117.07 204.207 128.213 204.207 128.213" stroke="#F01ACE" stroke-width="5" stroke-miterlimit="10" stroke-linecap="round"/>
<path d="M255.737 104.007C255.737 104.007 321.936 78.9781 330.67 84.456C335.904 87.7389 334.394 119.252 334.394 119.252C334.394 119.252 369.787 116.219 374.779 123.086C380.81 131.382 375.226 176.162 375.226 176.162" stroke="#F01ACE" stroke-width="7" stroke-miterlimit="10" stroke-linecap="round"/>
<path d="M254.029 129.881C254.029 129.881 302.348 114.687 311.056 116.963C317.081 118.537 316.7 145.73 316.7 145.73C316.7 145.73 336.979 139.871 344.037 143.73C348.507 146.174 343.967 169.692 343.967 169.692" stroke="#F01ACE" stroke-width="5" stroke-miterlimit="10" stroke-linecap="round"/>
<path d="M385.213 210.548C385.213 210.548 430.337 265.152 428.008 275.214C426.612 281.244 396.394 290.071 396.394 290.071C396.394 290.071 410.757 322.634 405.901 329.602C400.035 338.02 355.203 348.105 355.203 348.105" stroke="#F01ACE" stroke-width="7" stroke-miterlimit="10" stroke-linecap="round"/>
<path d="M360.25 217.352C360.25 217.352 390.286 258.209 390.969 267.203C391.442 273.427 365.666 281.919 365.666 281.919C365.666 281.919 377.783 299.234 376.437 307.18C375.584 312.214 351.923 315.566 351.923 315.566" stroke="#F01ACE" stroke-width="5" stroke-miterlimit="10" stroke-linecap="round"/>
<path d="M324.355 368.697C324.355 368.697 286.271 428.472 276.002 429.328C269.848 429.84 252.236 403.7 252.236 403.7C252.236 403.7 225.693 427.37 217.592 424.868C207.805 421.845 184.407 382.65 184.407 382.65" stroke="#F01ACE" stroke-width="7" stroke-miterlimit="10" stroke-linecap="round"/>
<path d="M310.269 346.953C310.269 346.953 280.635 388.121 272.3 391.525C266.532 393.88 250.596 371.877 250.596 371.877C250.596 371.877 237.849 388.739 229.891 389.886C224.85 390.612 214.44 369.054 214.44 369.054" stroke="#F01ACE" stroke-width="5" stroke-miterlimit="10" stroke-linecap="round"/>
<path d="M157.418 358.569C157.418 358.569 88.804 341.318 84.7436 331.826C82.3103 326.137 101.468 301.101 101.468 301.101C101.468 301.101 70.6683 283.373 70.4714 274.876C70.2335 264.612 100.029 231.015 100.029 231.015" stroke="#F01ACE" stroke-width="7" stroke-miterlimit="10" stroke-linecap="round"/>
<path d="M173.532 338.28C173.532 338.28 125.199 323.162 119.339 316.317C115.285 311.58 131.058 289.449 131.058 289.449C131.058 289.449 111.068 282.678 107.464 275.475C105.181 270.912 122.282 254.177 122.282 254.177" stroke="#F01ACE" stroke-width="5" stroke-miterlimit="10" stroke-linecap="round"/>
<path d="M207.667 113.367L240.351 213.602L215.982 117.559L267.275 78.6526L207.667 113.367ZM260.178 123.267L303.802 127.298L262.171 167.946L283.222 179.588L247.113 248.788L195.448 110.222L284.155 63.6937L260.178 123.267Z" fill="#F01ACE"/>
<path d="M359.144 168.721L272.843 229.066L357.539 177.912L409.497 215.891L359.144 168.721ZM364.839 221.978L373.576 265.01L322.743 236.808L317.698 260.376L241.19 245.728L358.622 156.085L428.654 227.766L364.839 221.978Z" fill="#F01ACE"/>
<path d="M357.772 329.637L272.801 267.476L348.58 331.108L329.638 392.724L357.772 329.637ZM309.383 352.373L271.629 374.664L281.714 317.298L257.841 320.187L246.796 242.895L369.522 325.028L324.661 414.749L309.383 352.373Z" fill="#F01ACE"/>
<path d="M202.861 378.941L235.955 278.821L198.656 370.618L134.348 371.391L202.861 378.941ZM166.488 339.713L133.787 310.498L191.355 302.572L181.32 280.671L251.362 246.481L210.827 388.746L111.908 373.379L166.488 339.713Z" fill="#F01ACE"/>
<path d="M109.262 246.304L214.469 246.016L115.806 239.667L94.7159 178.769L109.262 246.304ZM134.864 199.281L152.153 158.923L177.877 211.144L195.422 194.657L249.946 250.407L102.507 256.988L85.7301 158.064L134.864 199.281Z" fill="#F01ACE"/>
</g>
</g>
<defs>
<clipPath id="clip0_7_109">
<rect width="500" height="500" fill="white"/>
</clipPath>
<clipPath id="clip1_7_109">
<rect width="366" height="370" fill="white" transform="translate(79.7379 51.0835) rotate(3.53)"/>
</clipPath>
</defs>
</svg>
