<svg version="1.1" xmlns="http://www.w3.org/2000/svg" xmlns:xlink="http://www.w3.org/1999/xlink" width="215.65986" height="219.88534" viewBox="0,0,215.65986,219.88534"><g transform="translate(-132.63592,-70.31714)"><g data-paper-data="{&quot;isPaintingLayer&quot;:true}" fill-rule="nonzero" stroke-width="0" stroke-linejoin="miter" stroke-miterlimit="10" stroke-dasharray="" stroke-dashoffset="0" style="mix-blend-mode: normal"><path d="M194.82404,119.18239c0,0 0.29872,-7.53892 0,-15.57693c-0.22576,-6.0749 -5.54153,-20.87549 -13.07693,-20.96153c-9.86317,-0.11262 -37.27571,12.02796 -38.26923,36.15385c-0.45002,10.92791 17.11539,23.07693 17.11539,23.07693z" fill="#ffffff" stroke="#ff0000" stroke-linecap="round"/><path d="M258.02054,260.20248c0,0 15.9692,11.6393 24.93658,16.68388c10.25367,5.76818 28.90958,13.31613 28.90958,13.31613c0,0 0.62449,-14.69491 0.15471,-24.35116c-0.53288,-10.95326 -1.69317,-18.53346 -1.69317,-18.53346c0,0 9.4231,-4.06315 14.62442,-7.03287c6.31556,-3.6059 13.83712,-9.12098 13.83712,-9.12098c0,0 -7.93325,-6.51767 -12.37855,-9.75409c-4.4305,-3.22564 -14.15991,-8.89975 -14.15991,-8.89975c0,0 10.91269,-25.04019 11.12926,-42.26653c0.4393,-34.94262 -68.82157,-53.69501 -68.82157,-53.69501c0,0 10.59437,-15.9385 -4.72854,-32.62551c-14.2003,-15.46446 -34.69453,-13.52834 -34.69453,-13.52834c0,0 -2.8635,7.38815 -2.76691,15.42184c0.13039,10.84459 4.11307,18.23201 4.11307,18.23201c0,0 -5.12989,-2.77393 -10.98585,-3.39683c-3.53266,-0.37577 -7.09107,0.89683 -7.09107,0.89683c0,0 0.97429,3.82649 3.40814,6.37068c3.87984,4.05573 6.59186,5.36009 6.59186,5.36009c0,0 -10.79364,0.93111 -21.6676,4.84695c-14.72974,5.30435 -32.86808,10.42515 -32.55678,47.24219c0.1435,16.97068 3.83976,23.29548 3.83976,23.29548c0,0 -4.64789,10.91651 -11.95897,10.85904c-7.03758,-0.05532 -10.54103,-8.55135 -10.54103,-8.55135c0,0 -2.49469,4.04786 -1.55663,11.14921c0.64318,4.86897 5.9797,11.15848 5.9797,11.15848c0,0 -1.65176,1.02496 -4.26927,2.85594c-1.7644,1.23422 -3.03842,3.1056 -3.03842,3.1056c0,0 4.83458,3.98427 8.10846,5.90106c5.93171,3.47289 18.43,8.71433 18.43,8.71433c0,0 -5.59859,13.86677 -8.67323,22.26366c-3.14852,8.59864 -5.55755,21.00557 -5.55755,21.00557c0,0 10.635,-2.11103 21.42147,-6.30555c7.73386,-3.00746 22.617,-9.84829 22.617,-9.84829z" fill="#2e2e2e" stroke="#ff0000" stroke-linecap="round"/><path d="M171.28977,209.04863c0,0 -1.81448,-4.53257 -1.27689,-21.33742c0.50659,-15.83596 7.23843,-25.97026 7.23843,-25.97026l12.30769,-10l35.76923,-3.26923l46.73077,8.26923l19.42308,32.69231l-12.3077,59.80769c0,0 -5.96853,17.08086 -59.78314,17.62745c-29.0319,0.29487 -58.27481,-14.74332 -58.40564,-36.71842c-0.0733,-12.31244 10.30417,-21.10134 10.30417,-21.10134z" fill="#f6deac" stroke="#ff0000" stroke-linecap="round"/><path d="M264.05722,192.33289l20.5,-3.375l-18.5,8z" fill="#e368d3" stroke="#0052ff" stroke-linecap="round"/><path d="M266.80722,204.95789l16.75,4.75l-16.75,-0.625z" fill="#e368d3" stroke="#0052ff" stroke-linecap="round"/><path d="M265.05722,216.70789l9.625,12.25l-2.875,0.125l-8.5,-8.625z" fill="#e368d3" stroke="#0052ff" stroke-linecap="round"/><path d="M180.05722,186.33289l-13.5,-8.625l11.125,11.75z" fill="#e368d3" stroke="#0052ff" stroke-linecap="round"/><path d="M175.80722,195.45789l-16.25,-2l14.125,5.625z" fill="#e368d3" stroke="#0052ff" stroke-linecap="round"/><path d="M172.80722,209.95789l-12.75,7.5l14,-3.125z" fill="#e368d3" stroke="#0052ff" stroke-linecap="round"/><path d="M211.48858,206.63727c-3.97961,13.44944 -15.81503,21.72879 -26.43516,18.49244c-10.62013,-3.23636 -15.33667,-15.42953 -11.35706,-28.87897c3.97961,-13.44944 15.14837,-23.06212 25.7685,-19.82577c10.62013,3.23636 16.00333,16.76286 12.02372,30.2123z" fill="#ffffff" stroke="#0052ff" stroke-linecap="butt"/><path d="M189.65698,202.55602c-2.84449,5.68744 -8.46254,8.19584 -12.54825,5.60267c-4.08571,-2.59318 -5.28179,-9.24264 -2.4373,-14.93008c2.84449,-5.68744 8.65241,-8.25914 12.73812,-5.66596c4.08571,2.59318 5.09193,9.30594 2.24743,14.99338z" fill="#e368d3" stroke="#0052ff" stroke-linecap="butt"/><path d="M267.37872,215.55569c-5.65032,15.10849 -20.9549,23.38881 -34.18373,18.49463c-13.22884,-4.89418 -19.37244,-21.10953 -13.72212,-36.21802c5.65032,-15.10849 20.9549,-23.38881 34.18374,-18.49463c13.22884,4.89418 19.37244,21.10953 13.72212,36.21802z" fill="#ffffff" stroke="#0052ff" stroke-linecap="butt"/><path d="M236.85283,207.71165c-2.40141,6.5051 -8.41952,10.16631 -13.44183,8.17755c-5.02231,-1.98877 -6.99053,-8.81877 -4.74557,-15.37951c2.40141,-7.01793 8.41953,-10.16631 13.44184,-8.17755c5.02231,1.98877 7.14697,8.87441 4.74556,15.37951z" fill="#e368d3" stroke="#0052ff" stroke-linecap="butt"/><path d="M279.43942,150.52854c-4.88329,-5.36533 -9.38682,-65.88086 25.76923,-65.96154c27.90438,-0.06404 46.70333,34.10756 42.5,43.46154c-9.20823,20.49178 -63.22642,28.04061 -68.26923,22.5z" fill="#ffffff" stroke="#ff0000" stroke-linecap="round"/><path d="M279.5055,150.66642c-1.07651,-0.97484 1.574,-25.68715 14.30232,-32.79069c5.64502,-3.15042 19.2143,10.11053 17.55814,16.04651c-3.57411,12.81024 -30.77134,17.73044 -31.86046,16.74418z" fill="#e368d3" stroke="#ff0000" stroke-linecap="round"/><path d="M190.52054,179.04863c0,0 8.73362,-1.47763 16.93378,-9.40164c5.91265,-5.71354 17.48929,-17.90605 17.48929,-17.90605c0,0 2.54734,10.89348 10.1752,19.52c8.42226,9.52492 23.09404,15.09539 23.09404,15.09539c0,0 4.29067,-6.57499 6.41006,-11.43907c2.2595,-5.18564 4.74379,-13.17631 4.74379,-13.17631c0,0 17.50474,13.45909 17.74792,40.287c0.21206,23.39496 -11.12317,25.76112 -15.51522,25.83921c-9.78053,0.17389 -12.2327,-12.85699 -12.2327,-12.85699c0,0 -4.61863,7.25158 -4.44846,13.54652c0.6309,23.33829 23.29461,22.99194 23.29461,22.99194l4.80769,-4.42307l11.34616,-62.30769l-21.73077,-32.30769l-47.69231,-6.34616l-43.26923,4.23077l-11.34616,21.53847c0,0 5.45058,-6.52642 10.48436,-10.12715c5.36906,-3.84056 9.90026,-6.21901 9.90026,-6.21901c0,0 -1.66815,6.32945 -1.69292,12.91999c-0.01901,5.05943 1.50062,10.54154 1.50062,10.54154z" fill="#2e2e2e" stroke="#93ff00" stroke-linecap="round"/></g></g></svg>