<svg version="1.1" xmlns="http://www.w3.org/2000/svg" xmlns:xlink="http://www.w3.org/1999/xlink" width="459.7624" height="55.6408" viewBox="0,0,459.7624,55.6408"><g transform="translate(-10.1524,-152.2276)"><g data-paper-data="{&quot;isPaintingLayer&quot;:true}" fill="none" fill-rule="nonzero" stroke="#000000" stroke-width="2.5" stroke-linecap="round" stroke-linejoin="round" stroke-miterlimit="10" stroke-dasharray="" stroke-dashoffset="0" style="mix-blend-mode: normal"><g><path d="M417.32089,169.58892l-3.6336,3.936c-0.12,0.1536 2.8032,16.3056 2.8032,16.3056l4.5792,4.1352l2.0664,0.7056c1.4856,-0.0576 4.1232,-0.3072 5.7312,-0.5856c3.2328,-0.588 6.564,-1.6104 6.9144,-1.7256l1.4952,-0.5472l3.3456,-3.132c0.0024,-1.1472 -0.0048,-5.4792 -0.2808,-8.7456c-0.348,-3.0888 -1.764,-10.7088 -2.1216,-12.012l-4.6464,-2.4288c0,0 -9.468,2.0136 -16.2528,4.0944z"/><path d="M425.64169,188.53452l-3.528,-2.7288c0,0 -1.5576,-9.1008 -1.4904,-9.192l1.9296,-2.2176l8.6328,-2.3088l2.4672,1.3704c0.1488,0.576 0.6552,3.3 0.8808,4.74c0.3888,2.8104 0.396,6.312 0.3936,6.96l-1.776,1.764c0,0 -5.2704,1.5288 -7.5096,1.6128z"/></g><path d="M27.4608,163.10124l12.6552,-0.18923l0.7944,-5.004c-0.552,-0.0576 -28.6344,-3.948 -28.6344,-3.948l-0.8736,8.844l11.424,0.2832c-0.612,7.5816 -1.4616,29.9544 -1.4616,30.24l6.6576,1.0608z"/><path d="M68.4696,178.3992l0.0384,2.2464c-0.0792,1.1352 -1.02,13.6536 -1.0272,13.9176l-4.6656,-0.5256c0,0 0.1536,-15.8088 -0.1416,-18.5136l-0.6552,-1.1952l-2.1696,-1.2168l-7.3968,1.8552l-0.792,0.7416l0.1944,18.7464l-4.6704,-0.7392c-0.0096,-0.5592 -0.1176,-5.0856 -0.216,-9.0528c-0.1896,-3.9192 -0.5376,-10.2864 -0.9216,-13.9968c-0.1464,-1.2936 -2.016,-14.7648 -2.016,-14.7648c1.7928,-1.1352 4.9656,-2.0424 5.2704,-2.1264l2.4648,14.5704l9.5088,-1.9392l5.172,2.8416z"/><path d="M150.576,160.1952l8.2992,-0.6288l-0.1608,-5.412c-1.152,0.0072 -23.808,1.9008 -23.9112,1.9128c-0.3744,0.0432 0.1656,7.4136 0.2136,7.3968c0.3576,-0.1296 7.7064,-1.704 9.408,-2.064l0.7824,27.7392l-10.3992,1.4568l0.0768,3.1152l27.072,0.672l0.0312,-7.0488l-11.8824,1.2936z"/><path d="M171.1608,171.3048l-1.6656,-6.1896l-5.4336,2.5584l-0.4992,0.876l7.5024,25.9248l5.52,-0.7608c-0.1968,-1.284 -3.6288,-16.3296 -3.6288,-16.3296l0.5928,-0.5808c0.6024,-0.4608 3,-2.1912 4.4976,-3.192c1.4064,-0.9192 3.9096,-2.5488 5.004,-3.2616l3.096,3.5112l4.3776,-3.3792l-3.768,-6.0408l-7.6128,1.0296z"/><path d="M225.708,178.7304c-0.0144,1.7328 -0.01805,14.67538 0.05635,15.30898l5.07725,0.55503l0.7056,-21.4608c3.8304,-0.768 7.8072,-1.08 9.4248,-1.0944l3.0408,3.4368c0,0 0.0432,6.6312 -0.0456,7.848c-0.2472,2.784 -1.2768,11.172 -1.2768,11.172l6.2352,-0.168c0,0 0.6384,-6.8832 0.8712,-10.6344c0.0504,-1.5 0.0432,-5.2608 -0.0216,-6.6264c-0.108,-1.6584 -0.3984,-4.5984 -0.5856,-5.6568l-0.6792,-0.9384l-6.636,-3.8424l-9.4536,0.3528l-0.2352,-3.0672l-5.784,0.4584c0,0 -0.6528,12.6264 -0.6936,14.3568z"/><path d="M352.4736,175.7832c-0.3432,2.4432 -0.4896,12.6864 -0.4896,12.6864l3.696,5.4024l1.5384,0.6912c0.9552,-0.0672 13.0704,-1.9032 13.0704,-1.9032l-0.1176,7.0584l-0.036,-0.0264c-3.192,0.2064 -17.0928,0.4296 -17.0928,0.4296c-0.3864,2.1576 -0.2688,6.4968 -0.2688,6.4968l20.6472,-2.4936l1.896,-1.9488c-0.0048,-0.2376 -0.0552,-3.888 0.0048,-7.8528c0.0744,-2.4288 0.564,-8.9832 1.056,-12.9432c0.5424,-3.54 2.5032,-13.6248 2.5032,-13.6248l-4.9968,-1.5672l-0.9312,4.6992c0,0 -4.4208,-2.3832 -6.0672,-2.844c-1.428,-0.3936 -4.2672,-0.9528 -5.5464,-1.116l-1.728,-0.1536l-5.64,2.2824c0,0 -1.3632,5.7672 -1.4976,6.7272z"/><path d="M366.0168,173.8416c-1.476,-0.3504 -5.3304,-0.6504 -5.3304,-0.6504l-2.556,1.6368c-0.4512,2.556 -0.4776,10.9704 -0.4776,10.9704l3.312,2.244l9.8112,-2.532l1.2288,-9.0552c0,0 -4.6056,-2.28 -5.988,-2.6136z"/><path d="M408.9456,195.8352c0.024,-0.2376 0.7392,-9.5016 0.8016,-14.8488c-0.0432,-3.864 -0.5304,-11.1048 -0.8544,-14.6496c-0.4224,-3.7872 -1.1424,-9.8016 -1.6872,-12.3432l-7.0512,2.076l2.88,11.52l-15.6264,-0.6048l-4.3872,4.0728c0,0 0.5064,5.5728 0.7344,7.1832c0.6672,4.0584 1.9008,9.432 1.9008,9.432l5.364,5.8416l13.3008,-1.7424c0.0024,0.3072 0.2664,3.768 0.2664,3.768z"/><path d="M390.56872,173.23656l-2.05448,2.54635c0,0 0.61316,3.27466 1.00005,4.86666c0.42738,1.7586 1.45487,5.23495 1.45487,5.23495c0,0 2.55803,2.68365 2.61563,2.65005c0.02925,-0.01548 10.55939,-1.70579 10.55939,-1.70579l0.00384,-6.65539l-0.252,-6.52139c0,0 -5.1528,-1.0176 -7.1664,-1.0392c-1.1808,-0.0024 -6.16088,0.62376 -6.16088,0.62376z"/><path d="M454.5048,193.9416l-7.0152,0.2496c-0.1248,-1.5144 -0.4104,-5.1288 -0.5688,-7.2312c-0.4392,-6.9768 -1.584,-25.8168 -1.9128,-28.104l7.5048,-0.96c0,0 0.8208,11.1072 1.152,14.9616c0.384,5.6808 0.84,21.084 0.84,21.084z"/><path d="M468.6648,194.0496l-7.0152,0.3864c-0.144,-2.0088 -0.5112,-7.296 -0.7344,-10.5744c-0.4368,-8.2512 -1.4136,-26.292 -1.7472,-29.2992l7.5048,-1.0848c0,0 1.3728,19.9704 1.6968,29.2392c0.0816,3.7776 0.2952,11.3328 0.2952,11.3328z"/><g><path d="M81.7608,181.068l-0.7776,-4.3272l12.8688,-5.9976l3.8616,5.16z"/><path d="M93.3864,194.16c4.0392,0.0336 10.1856,0.1272 10.1856,0.1272l-0.5616,-6.984l-0.5664,-0.66c-0.7296,0.1872 -9.576,2.436 -13.872,2.88c-0.9264,0.0864 -2.3472,0.096 -2.3856,0.0432c-0.2424,-0.3192 -1.0344,-1.6152 -1.4592,-2.3904c-0.4848,-0.876 -0.9216,-1.6176 -1.1232,-1.9536c0,0 11.496,-2.2968 14.1888,-2.8128c1.644,-0.3456 3.9168,-0.8712 4.2216,-0.9432l2.4672,-8.136l-8.3904,-8.8656c-3.8424,1.0392 -7.32,2.1408 -10.6008,3.4608c-3.3384,1.4256 -7.4544,3.3048 -8.3376,3.7176l-1.1808,1.0056l-1.8552,4.8528l-0.084,1.2504c1.1208,2.8224 3.0936,7.3512 4.572,10.164c0.8016,1.4568 1.944,3.5088 2.2824,4.1064c0,0 8.0712,1.0296 12.4992,1.1376z"/></g><g><path d="M197.0808,169.5648l-3.6336,3.936c-0.12,0.1536 2.8032,16.3056 2.8032,16.3056l4.5792,4.1352l2.0664,0.7056c1.4856,-0.0576 4.1232,-0.3072 5.7312,-0.5856c3.2328,-0.588 6.564,-1.6104 6.9144,-1.7256l1.4952,-0.5472l3.3456,-3.132c0.0024,-1.1472 -0.0048,-5.4792 -0.2808,-8.7456c-0.348,-3.0888 -1.764,-10.7088 -2.1216,-12.012l-4.6464,-2.4288c0,0 -9.468,2.0136 -16.2528,4.0944z"/><path d="M205.4016,188.5104l-3.528,-2.7288c0,0 -1.5576,-9.1008 -1.4904,-9.192l1.9296,-2.2176l8.6328,-2.3088l2.4672,1.3704c0.1488,0.576 0.6552,3.3 0.8808,4.74c0.3888,2.8104 0.396,6.312 0.3936,6.96l-1.776,1.764c0,0 -5.2704,1.5288 -7.5096,1.6128z"/></g><g><path d="M310.3992,176.1528l4.8384,-7.6176l-1.4352,-10.9944l-7.4472,-3.7272c0,0 -9.4152,1.3488 -15.5784,2.7024c-4.0992,0.9216 -12.9744,2.9664 -14.2992,3.3936l1.0968,6.1632l4.9968,-1.2384c0.3504,3.8616 1.0464,11.1624 1.3872,14.604c0.8472,9.1248 1.032,15.7008 1.032,15.7008l6.8088,-0.7752l-1.2384,-14.2224l7.5936,-0.348l7.6128,16.5672l7.3224,-5.1144c-0.0024,-0.0048 -7.0176,-9.6744 -8.8512,-12.4176z"/><path d="M308.98647,167.97195l-0.68522,-5.36321l-4.0152,-2.84081c-2.7192,0.3912 -8.83884,1.19768 -15.87084,3.63608l0.84,10.9968l8.4672,0.0264l1.176,-0.2976l7.07387,-2.10128z"/></g><g><path d="M343.0824,196.3968l-1.6848,-5.4768c0,0 -4.9776,1.5768 -6.7488,2.1816c-2.184,0.72 -5.5728,1.6248 -5.5728,1.6248l-6.0312,-3.2208l-3.6096,-8.9016l0.2544,-11.712l6.6648,-4.2768l11.8008,1.596l-0.0624,-0.6744l0.2496,-2.2224l4.8216,0.7512c-0.0504,1.368 0.0168,4.7736 0.1824,6.6792c0.1008,1.0776 0.6096,4.6944 1.0344,6.8688c0.2592,1.2024 1.0656,4.3416 1.7808,6.636c1.1424,3.3504 2.5944,6.8952 2.688,7.1208z"/><path d="M331.01681,187.81826l-3.53771,-1.73027l-2.25711,-3.62024l-0.36759,-6.64135l3.4656,-2.9064l9.936,1.5888l1.5408,10.3272z"/></g></g></g></svg>