<svg version="1.1" xmlns="http://www.w3.org/2000/svg" xmlns:xlink="http://www.w3.org/1999/xlink" width="204.68414" height="163.74051" viewBox="0,0,204.68414,163.74051"><g transform="translate(-137.94807,-104.74228)"><g data-paper-data="{&quot;isPaintingLayer&quot;:true}" fill-rule="nonzero" stroke-width="0" stroke-linejoin="miter" stroke-miterlimit="10" stroke-dasharray="" stroke-dashoffset="0" style="mix-blend-mode: normal"><path d="M175.20167,175.17085c0,0 -4.19826,-7.01663 -4.49848,-16.88546c-0.29511,-9.70101 1.35562,-15.68597 1.35562,-15.68597c0,0 2.33074,3.95784 6.58642,3.73578c2.87068,-0.14979 3.60556,-2.50687 3.56849,-5.14998c-0.09485,-6.76214 -4.58349,-11.01437 -4.58349,-11.01437c0,0 6.09032,-9.81343 19.12749,-16.56217c14.08292,-7.29008 25.30109,-8.8664 25.30109,-8.8664c0,0 0.35386,2.17941 0.59589,3.17174c0.23388,0.95891 0.83268,2.6854 0.83268,2.6854c0,0 12.82578,-4.03221 26.5541,-4.22257c13.19931,-0.18303 32.87447,3.93686 32.87447,3.93686c0,0 -2.24464,2.79541 -3.17275,4.04836c-0.9744,1.31543 -2.54154,3.66593 -2.54154,3.66593c0,0 8.89879,0.36058 23.2863,8.42269c12.19997,6.83631 17.42798,15.00588 17.42798,15.00588c0,0 -3.70453,-0.31676 -8.17935,0.03467c-4.73715,0.37204 -7.6778,0.82247 -7.6778,0.82247c0,0 4.05723,5.59837 6.94873,10.78762c3.73908,6.71038 6.47985,14.35524 6.47985,14.35524c0,0 2.73535,-1.83809 4.09145,-3.24017c1.44745,-1.49652 4.33711,-5.47412 4.33711,-5.47412c0,0 0.60113,4.5352 0.41858,10.05307c-0.38768,11.71865 -7.13287,21.51836 -7.13287,21.51836c0,0 3.3126,-1.90668 6.4339,-3.20418c2.5444,-1.05769 5.85182,-1.93868 5.85182,-1.93868c0,0 -1.98129,5.00297 -3.12815,6.87415c-1.48104,2.41644 -5.01472,6.41157 -5.01472,6.41157z" fill="#2e2e2e" stroke="#ff0000" stroke-linecap="round"/><path d="M186.48803,163.10093c0,0 -46.57509,35.36844 -48.46858,63.52928c-1.25727,18.6987 14.331,30.3112 28.10495,30.10708c21.74946,-0.32231 32.72727,-17.63637 32.72727,-17.63637z" fill="#ffffff" stroke="#ff0000" stroke-linecap="round"/><path d="M184.19372,183.45229c0,0 -21.63506,24.99392 -21.76898,39.05113c-0.06655,6.98585 3.27874,15.91603 12.79839,15.94887c8.60508,0.02969 12.35294,-6.7647 12.35294,-6.7647z" fill="#800080" stroke="#ff0000" stroke-linecap="round"/><path d="M186.33621,162.81437c0,0 -1.932,7.47522 -2.76632,17.30014c-0.63252,7.44858 0.62347,17.41414 0.62347,17.41414c0,0 -5.35045,3.10648 -5.66321,14.74274c-0.56241,20.92518 20.067,33.19932 50.60395,33.88056c25.09479,0.55983 41.77355,-9.90901 41.77355,-9.90901l24.57142,-73.00001l-32.57142,-10.71428l-50.42857,-3.85714z" fill="#f6deac" stroke="#ff0000" stroke-linecap="round"/><path d="M294.00521,163.6019c0,0 -23.63115,43.82986 -23.86937,68.10413c-0.20939,21.33651 12.24892,36.48388 31.86937,36.77087c29.79742,0.43586 40.79786,-23.4529 40.625,-35.25c-0.49464,-33.75753 -48.625,-69.625 -48.625,-69.625z" fill="#ffffff" stroke="#ff0000" stroke-linecap="round"/><path d="M184.91596,161.59942c0,0 1.73949,4.8269 6.14216,8.0658c5.8382,4.29497 11.71499,4.21991 11.71499,4.21991c0,0 -4.33067,-21.01609 11.1944,-21.97373c15.51617,-0.95709 5.23417,19.25945 5.23417,19.25945c0,0 11.62533,-2.20154 20.37292,-4.86948c9.58399,-2.92304 22.34136,-9.13052 22.34136,-9.13052c0,0 -1.3255,5.26109 -3.43415,9.28066c-1.97023,3.75572 -5.28014,8.43362 -5.28014,8.43362c0,0 6.54078,0.90144 13.75821,-0.12033c14.37525,-2.0351 29.81322,-11.4511 29.81322,-11.4511l-9.85715,-8.14286l-47.42857,-9.14285l-28.42857,-0.14286z" fill="#2e2e2e" stroke="#ff0000" stroke-linecap="round"/><path d="M217.60734,178.12685l-33.54166,-1.5625c0,0 -4.79798,30.83136 14.89583,30.3125c22.93284,-0.60419 18.64584,-28.75 18.64584,-28.75z" fill="#ffffff" stroke="#18ff00" stroke-linecap="round"/><path d="M227.50317,177.91852l50.41666,2.70833c0,0 1.5638,33.72378 -27.70833,34.79167c-18.77345,0.68488 -24.52964,-16.04843 -24.58183,-27.50107c-0.02689,-5.90072 1.8735,-9.99893 1.8735,-9.99893z" fill="#ffffff" stroke="#18ff00" stroke-linecap="round"/><path d="M217.00567,186.02662c0.99222,5.19081 -1.5932,10.04675 -5.77469,10.84604c-4.18149,0.79929 -8.37561,-2.76075 -9.36782,-7.95156c-0.99222,-5.19081 1.5932,-10.04675 5.77469,-10.84604c4.18149,-0.79929 8.37561,2.76075 9.36782,7.95156z" fill="#800080" stroke="#18ff00" stroke-linecap="butt"/><path d="M275.97648,188.54425c1.54511,5.81257 -1.35587,11.6287 -6.47953,12.99069c-5.12366,1.36198 -10.52977,-2.24593 -12.07488,-8.05851c-1.54511,-5.81257 1.35587,-11.6287 6.47953,-12.99069c5.12366,-1.36198 10.52977,2.24593 12.07488,8.05851z" fill="#800080" stroke="#18ff00" stroke-linecap="butt"/></g></g></svg>