<svg width="500" height="500" viewBox="0 0 500 500" fill="none" xmlns="http://www.w3.org/2000/svg">
<g clip-path="url(#clip0_71_57)">
<circle cx="250" cy="250" r="250" fill="#D59528"/>
<rect width="250" height="250" fill="#C57D17"/>
<rect x="250" y="250" width="250" height="250" fill="#C57D17"/>
<circle cx="250" cy="250" r="228" stroke="#B36204" stroke-width="44"/>
<path d="M371 249.5C371 316.603 316.603 371 249.5 371C182.397 371 128 316.603 128 249.5C128 182.397 182.397 128 249.5 128C316.603 128 371 182.397 371 249.5Z" fill="#B36204"/>
<path d="M265.005 161.158L285.227 199.146L327.593 206.702L310.501 246.197L331.009 284.032L289.473 295.293L272.679 334.916L237.977 309.464L196.528 321.039L194.792 278.038L159.899 252.848L192.435 224.681L190.374 181.695L232.682 189.57L265.005 161.158Z" fill="white"/>
</g>
<defs>
<clipPath id="clip0_71_57">
<rect width="500" height="500" rx="250" fill="white"/>
</clipPath>
</defs>
</svg>
