<svg width="400" height="300" viewBox="0 0 400 300" fill="none" xmlns="http://www.w3.org/2000/svg">
<g clip-path="url(#clip0_62_2)">
<path d="M0 0H400V300H0V0Z" fill="#D59528"/>
<rect width="200" height="150" fill="#C57D17"/>
<rect x="200" y="150" width="200" height="150" fill="#C57D17"/>
<path d="M284.9 150.45C284.9 197.091 247.091 234.9 200.45 234.9C153.81 234.9 116 197.091 116 150.45C116 103.81 153.81 66 200.45 66C247.091 66 284.9 103.81 284.9 150.45Z" fill="#B36204"/>
<path d="M211.227 89.1159L225.283 115.52L254.73 120.772L242.85 148.224L257.104 174.521L228.234 182.349L216.561 209.889L192.441 192.198L163.631 200.243L162.424 170.355L138.172 152.847L160.787 133.268L159.354 103.391L188.761 108.865L211.227 89.1159Z" fill="white"/>
<rect x="28" y="28" width="344" height="244" stroke="#B36204" stroke-width="24"/>
</g>
<defs>
<clipPath id="clip0_62_2">
<rect width="400" height="300" fill="white"/>
</clipPath>
</defs>
</svg>
