<svg width="500" height="617" viewBox="0 0 500 617" fill="none" xmlns="http://www.w3.org/2000/svg">
<path d="M119.732 545V519.8H124.664L133.844 534.74L130.604 534.704L139.892 519.8H144.608V545H139.316V536.36C139.316 534.2 139.364 532.256 139.46 530.528C139.58 528.8 139.772 527.084 140.036 525.38L140.684 527.072L133.304 538.52H130.928L123.692 527.144L124.304 525.38C124.568 526.988 124.748 528.644 124.844 530.348C124.964 532.028 125.024 534.032 125.024 536.36V545H119.732ZM151.954 545V540.356H156.166V524.444H151.954V519.8H165.778V524.444H161.566V540.356H165.778V545H151.954ZM173.132 545V519.8H177.956L191.888 538.628H190.88C190.784 537.884 190.7 537.164 190.628 536.468C190.556 535.748 190.484 535.028 190.412 534.308C190.364 533.564 190.316 532.808 190.268 532.04C190.244 531.248 190.22 530.42 190.196 529.556C190.172 528.668 190.16 527.708 190.16 526.676V519.8H195.452V545H190.556L176.336 525.992L177.704 526.028C177.824 527.276 177.92 528.344 177.992 529.232C178.088 530.096 178.16 530.852 178.208 531.5C178.256 532.148 178.292 532.712 178.316 533.192C178.364 533.672 178.388 534.128 178.388 534.56C178.412 534.992 178.424 535.448 178.424 535.928V545H173.132ZM202.787 545V540.356H206.999V524.444H202.787V519.8H216.611V524.444H212.399V540.356H216.611V545H202.787ZM232.137 545.36C230.577 545.36 229.149 545.168 227.853 544.784C226.581 544.4 225.441 543.836 224.433 543.092C223.449 542.348 222.561 541.448 221.769 540.392L225.153 536.54C226.329 538.172 227.493 539.288 228.645 539.888C229.821 540.464 231.093 540.752 232.461 540.752C233.205 540.752 233.865 540.656 234.441 540.464C235.041 540.248 235.509 539.948 235.845 539.564C236.181 539.18 236.349 538.724 236.349 538.196C236.349 537.812 236.265 537.464 236.097 537.152C235.929 536.816 235.689 536.528 235.377 536.288C235.065 536.024 234.693 535.796 234.261 535.604C233.829 535.388 233.349 535.208 232.821 535.064C232.293 534.896 231.717 534.764 231.093 534.668C229.749 534.356 228.573 533.984 227.565 533.552C226.557 533.096 225.717 532.544 225.045 531.896C224.373 531.224 223.869 530.468 223.533 529.628C223.221 528.788 223.065 527.84 223.065 526.784C223.065 525.704 223.305 524.708 223.785 523.796C224.265 522.86 224.925 522.056 225.765 521.384C226.629 520.712 227.613 520.196 228.717 519.836C229.845 519.476 231.033 519.296 232.281 519.296C233.817 519.296 235.161 519.476 236.313 519.836C237.465 520.172 238.461 520.664 239.301 521.312C240.165 521.96 240.885 522.752 241.461 523.688L238.041 527C237.537 526.328 236.985 525.764 236.385 525.308C235.809 524.852 235.173 524.516 234.477 524.3C233.805 524.06 233.109 523.94 232.389 523.94C231.597 523.94 230.913 524.048 230.337 524.264C229.761 524.456 229.305 524.744 228.969 525.128C228.657 525.512 228.501 525.98 228.501 526.532C228.501 526.964 228.609 527.348 228.825 527.684C229.041 528.02 229.353 528.32 229.761 528.584C230.169 528.824 230.661 529.04 231.237 529.232C231.813 529.424 232.449 529.592 233.145 529.736C234.465 530 235.653 530.348 236.709 530.78C237.765 531.212 238.665 531.74 239.409 532.364C240.177 532.964 240.765 533.684 241.173 534.524C241.581 535.34 241.785 536.264 241.785 537.296C241.785 539 241.377 540.452 240.561 541.652C239.745 542.852 238.617 543.776 237.177 544.424C235.737 545.048 234.057 545.36 232.137 545.36ZM253.372 545V524.66H246.028V519.8H266.332V524.66H258.772V545H253.372ZM272.232 545V519.8H283.392C284.952 519.8 286.368 520.16 287.64 520.88C288.912 521.576 289.908 522.524 290.628 523.724C291.372 524.924 291.744 526.292 291.744 527.828C291.744 529.34 291.372 530.72 290.628 531.968C289.908 533.192 288.912 534.164 287.64 534.884C286.368 535.604 284.952 535.964 283.392 535.964H277.452V545H272.232ZM286.524 545L280.116 533.624L285.66 532.724L292.788 545.036L286.524 545ZM277.452 531.572H283.14C283.788 531.572 284.352 531.428 284.832 531.14C285.336 530.828 285.72 530.408 285.984 529.88C286.248 529.328 286.38 528.716 286.38 528.044C286.38 527.324 286.224 526.7 285.912 526.172C285.6 525.644 285.144 525.236 284.544 524.948C283.944 524.636 283.248 524.48 282.456 524.48H277.452V531.572ZM303.674 545V532.436L303.926 534.2L293.738 519.8H299.966L307.742 530.96L305.294 530.852L312.314 519.8H318.326L308.57 534.596L309.11 532.148V545H303.674ZM346.598 545.36C344.75 545.36 343.046 545.036 341.486 544.388C339.926 543.74 338.558 542.84 337.382 541.688C336.23 540.512 335.342 539.132 334.718 537.548C334.094 535.94 333.782 534.2 333.782 532.328C333.782 530.432 334.094 528.704 334.718 527.144C335.342 525.56 336.23 524.18 337.382 523.004C338.558 521.828 339.926 520.916 341.486 520.268C343.046 519.62 344.75 519.296 346.598 519.296C348.47 519.296 350.174 519.62 351.71 520.268C353.27 520.916 354.626 521.828 355.778 523.004C356.954 524.18 357.854 525.56 358.478 527.144C359.102 528.728 359.414 530.456 359.414 532.328C359.414 534.2 359.102 535.928 358.478 537.512C357.854 539.096 356.954 540.476 355.778 541.652C354.626 542.828 353.27 543.74 351.71 544.388C350.174 545.036 348.47 545.36 346.598 545.36ZM346.598 540.248C347.654 540.248 348.626 540.056 349.514 539.672C350.426 539.288 351.206 538.736 351.854 538.016C352.502 537.296 353.006 536.456 353.366 535.496C353.75 534.536 353.942 533.48 353.942 532.328C353.942 531.176 353.75 530.12 353.366 529.16C353.006 528.2 352.502 527.372 351.854 526.676C351.206 525.956 350.426 525.404 349.514 525.02C348.626 524.612 347.654 524.408 346.598 524.408C345.542 524.408 344.57 524.612 343.682 525.02C342.794 525.404 342.014 525.956 341.342 526.676C340.67 527.372 340.154 528.2 339.794 529.16C339.458 530.12 339.29 531.176 339.29 532.328C339.29 533.48 339.458 534.536 339.794 535.496C340.154 536.456 340.67 537.296 341.342 538.016C342.014 538.736 342.794 539.288 343.682 539.672C344.57 540.056 345.542 540.248 346.598 540.248ZM365.742 545V519.8H371.142V545H365.742ZM368.226 534.992V530.348H381.258V534.992H368.226ZM368.226 524.66V519.8H382.77V524.66H368.226ZM13.8264 605V571.4H28.0824C30.0664 571.4 31.8584 571.88 33.4584 572.84C35.0904 573.768 36.3704 575.048 37.2984 576.68C38.2584 578.312 38.7384 580.152 38.7384 582.2C38.7384 584.28 38.2584 586.152 37.2984 587.816C36.3704 589.48 35.0904 590.808 33.4584 591.8C31.8584 592.76 30.0664 593.24 28.0824 593.24H21.0264V605H13.8264ZM20.9304 586.76H27.2664C28.0344 586.76 28.7224 586.568 29.3304 586.184C29.9384 585.768 30.4184 585.224 30.7704 584.552C31.1544 583.88 31.3464 583.112 31.3464 582.248C31.3464 581.384 31.1544 580.632 30.7704 579.992C30.4184 579.32 29.9384 578.808 29.3304 578.456C28.7224 578.072 28.0344 577.88 27.2664 577.88H20.9304V586.76ZM60.9298 605.288C58.2098 605.288 55.7778 604.728 53.6338 603.608C51.5218 602.456 49.8578 600.888 48.6418 598.904C47.4258 596.888 46.8178 594.616 46.8178 592.088V571.352H54.0658V591.656C54.0658 593 54.3698 594.216 54.9778 595.304C55.5858 596.36 56.4018 597.208 57.4258 597.848C58.4818 598.488 59.6498 598.808 60.9298 598.808C62.2418 598.808 63.4258 598.488 64.4818 597.848C65.5698 597.208 66.4178 596.36 67.0258 595.304C67.6658 594.216 67.9858 593 67.9858 591.656V571.352H74.9938V592.088C74.9938 594.616 74.3858 596.888 73.1698 598.904C71.9538 600.888 70.2738 602.456 68.1298 603.608C66.0178 604.728 63.6178 605.288 60.9298 605.288ZM85.3539 605V571.4H99.9459C102.186 571.4 104.074 571.736 105.61 572.408C107.178 573.048 108.362 573.992 109.162 575.24C109.962 576.488 110.362 577.976 110.362 579.704C110.362 581.624 109.882 583.224 108.922 584.504C107.962 585.784 106.586 586.664 104.794 587.144L104.746 586.184C106.218 586.536 107.514 587.112 108.634 587.912C109.754 588.712 110.618 589.704 111.226 590.888C111.834 592.072 112.138 593.416 112.138 594.92C112.138 596.584 111.866 598.056 111.322 599.336C110.778 600.584 109.978 601.624 108.922 602.456C107.866 603.288 106.618 603.928 105.178 604.376C103.77 604.792 102.186 605 100.426 605H85.3539ZM92.2659 598.76H100.138C101.162 598.76 102.026 598.616 102.73 598.328C103.466 598.008 104.026 597.528 104.41 596.888C104.794 596.248 104.986 595.496 104.986 594.632C104.986 593.8 104.778 593.096 104.362 592.52C103.946 591.944 103.354 591.512 102.586 591.224C101.85 590.904 100.954 590.744 99.8979 590.744H92.2659V598.76ZM92.2659 585.032H99.0819C99.9459 585.032 100.698 584.872 101.338 584.552C101.978 584.232 102.458 583.8 102.778 583.256C103.13 582.712 103.306 582.072 103.306 581.336C103.306 580.152 102.922 579.24 102.154 578.6C101.386 577.96 100.234 577.64 98.6979 577.64H92.2659V585.032ZM120.602 605V571.4H127.802V598.52H143.018V605H120.602ZM150.767 605V598.808H156.383V577.592H150.767V571.4H169.199V577.592H163.583V598.808H169.199V605H150.767ZM193.037 605.48C190.573 605.48 188.301 605.064 186.221 604.232C184.173 603.368 182.381 602.168 180.845 600.632C179.341 599.064 178.173 597.224 177.341 595.112C176.509 592.968 176.093 590.632 176.093 588.104C176.093 585.64 176.525 583.368 177.389 581.288C178.253 579.176 179.469 577.352 181.037 575.816C182.605 574.248 184.445 573.032 186.557 572.168C188.669 571.304 190.957 570.872 193.421 570.872C195.021 570.872 196.589 571.096 198.125 571.544C199.693 571.96 201.117 572.584 202.397 573.416C203.709 574.248 204.829 575.24 205.757 576.392L201.245 581.384C200.477 580.616 199.677 579.96 198.845 579.416C198.045 578.84 197.181 578.408 196.253 578.12C195.357 577.8 194.397 577.64 193.373 577.64C191.997 577.64 190.701 577.896 189.485 578.408C188.301 578.92 187.261 579.64 186.365 580.568C185.469 581.464 184.749 582.568 184.205 583.88C183.693 585.16 183.437 586.584 183.437 588.152C183.437 589.752 183.693 591.208 184.205 592.52C184.717 593.8 185.437 594.904 186.365 595.832C187.293 596.728 188.397 597.432 189.677 597.944C190.989 598.424 192.429 598.664 193.997 598.664C195.021 598.664 196.013 598.52 196.973 598.232C197.933 597.944 198.813 597.544 199.613 597.032C200.445 596.52 201.181 595.928 201.821 595.256L205.325 600.872C204.557 601.736 203.517 602.52 202.205 603.224C200.925 603.928 199.485 604.488 197.885 604.904C196.285 605.288 194.669 605.48 193.037 605.48ZM240.85 605.48C238.77 605.48 236.866 605.224 235.138 604.712C233.442 604.2 231.922 603.448 230.578 602.456C229.266 601.464 228.082 600.264 227.026 598.856L231.538 593.72C233.106 595.896 234.658 597.384 236.194 598.184C237.762 598.952 239.458 599.336 241.282 599.336C242.274 599.336 243.154 599.208 243.922 598.952C244.722 598.664 245.346 598.264 245.794 597.752C246.242 597.24 246.466 596.632 246.466 595.928C246.466 595.416 246.354 594.952 246.13 594.536C245.906 594.088 245.586 593.704 245.17 593.384C244.754 593.032 244.258 592.728 243.682 592.472C243.106 592.184 242.466 591.944 241.762 591.752C241.058 591.528 240.29 591.352 239.458 591.224C237.666 590.808 236.098 590.312 234.754 589.736C233.41 589.128 232.29 588.392 231.394 587.528C230.498 586.632 229.826 585.624 229.378 584.504C228.962 583.384 228.754 582.12 228.754 580.712C228.754 579.272 229.074 577.944 229.714 576.728C230.354 575.48 231.234 574.408 232.354 573.512C233.506 572.616 234.818 571.928 236.29 571.448C237.794 570.968 239.378 570.728 241.042 570.728C243.09 570.728 244.882 570.968 246.418 571.448C247.954 571.896 249.282 572.552 250.402 573.416C251.554 574.28 252.514 575.336 253.282 576.584L248.722 581C248.05 580.104 247.314 579.352 246.514 578.744C245.746 578.136 244.898 577.688 243.97 577.4C243.074 577.08 242.146 576.92 241.186 576.92C240.13 576.92 239.218 577.064 238.45 577.352C237.682 577.608 237.074 577.992 236.626 578.504C236.21 579.016 236.002 579.64 236.002 580.376C236.002 580.952 236.146 581.464 236.434 581.912C236.722 582.36 237.138 582.76 237.682 583.112C238.226 583.432 238.882 583.72 239.65 583.976C240.418 584.232 241.266 584.456 242.194 584.648C243.954 585 245.538 585.464 246.946 586.04C248.354 586.616 249.554 587.32 250.546 588.152C251.57 588.952 252.354 589.912 252.898 591.032C253.442 592.12 253.714 593.352 253.714 594.728C253.714 597 253.17 598.936 252.082 600.536C250.994 602.136 249.49 603.368 247.57 604.232C245.65 605.064 243.41 605.48 240.85 605.48ZM262.155 605V571.4H284.859V577.736H269.163V598.664H285.195V605H262.155ZM265.515 590.936V584.792H282.555V590.936H265.515ZM309.28 605.48C306.816 605.48 304.544 605.064 302.464 604.232C300.416 603.368 298.624 602.168 297.088 600.632C295.584 599.064 294.416 597.224 293.584 595.112C292.752 592.968 292.336 590.632 292.336 588.104C292.336 585.64 292.768 583.368 293.632 581.288C294.496 579.176 295.712 577.352 297.28 575.816C298.848 574.248 300.688 573.032 302.8 572.168C304.912 571.304 307.2 570.872 309.664 570.872C311.264 570.872 312.832 571.096 314.368 571.544C315.936 571.96 317.36 572.584 318.64 573.416C319.952 574.248 321.072 575.24 322 576.392L317.488 581.384C316.72 580.616 315.92 579.96 315.088 579.416C314.288 578.84 313.424 578.408 312.496 578.12C311.6 577.8 310.64 577.64 309.616 577.64C308.24 577.64 306.944 577.896 305.728 578.408C304.544 578.92 303.504 579.64 302.608 580.568C301.712 581.464 300.992 582.568 300.448 583.88C299.936 585.16 299.68 586.584 299.68 588.152C299.68 589.752 299.936 591.208 300.448 592.52C300.96 593.8 301.68 594.904 302.608 595.832C303.536 596.728 304.64 597.432 305.92 597.944C307.232 598.424 308.672 598.664 310.24 598.664C311.264 598.664 312.256 598.52 313.216 598.232C314.176 597.944 315.056 597.544 315.856 597.032C316.688 596.52 317.424 595.928 318.064 595.256L321.568 600.872C320.8 601.736 319.76 602.52 318.448 603.224C317.168 603.928 315.728 604.488 314.128 604.904C312.528 605.288 310.912 605.48 309.28 605.48ZM343.382 605.288C340.662 605.288 338.23 604.728 336.086 603.608C333.974 602.456 332.31 600.888 331.094 598.904C329.878 596.888 329.27 594.616 329.27 592.088V571.352H336.518V591.656C336.518 593 336.822 594.216 337.43 595.304C338.038 596.36 338.854 597.208 339.878 597.848C340.934 598.488 342.102 598.808 343.382 598.808C344.694 598.808 345.878 598.488 346.934 597.848C348.022 597.208 348.87 596.36 349.478 595.304C350.118 594.216 350.438 593 350.438 591.656V571.352H357.446V592.088C357.446 594.616 356.838 596.888 355.622 598.904C354.406 600.888 352.726 602.456 350.582 603.608C348.47 604.728 346.07 605.288 343.382 605.288ZM367.806 605V571.4H382.686C384.766 571.4 386.654 571.88 388.35 572.84C390.046 573.768 391.374 575.032 392.334 576.632C393.326 578.232 393.822 580.056 393.822 582.104C393.822 584.12 393.326 585.96 392.334 587.624C391.374 589.256 390.046 590.552 388.35 591.512C386.654 592.472 384.766 592.952 382.686 592.952H374.766V605H367.806ZM386.862 605L378.318 589.832L385.71 588.632L395.214 605.048L386.862 605ZM374.766 587.096H382.35C383.214 587.096 383.966 586.904 384.606 586.52C385.278 586.104 385.79 585.544 386.142 584.84C386.494 584.104 386.67 583.288 386.67 582.392C386.67 581.432 386.462 580.6 386.046 579.896C385.63 579.192 385.022 578.648 384.222 578.264C383.422 577.848 382.494 577.64 381.438 577.64H374.766V587.096ZM402.471 605V598.808H408.087V577.592H402.471V571.4H420.903V577.592H415.287V598.808H420.903V605H402.471ZM437.716 605V577.88H427.924V571.4H454.996V577.88H444.916V605H437.716ZM472.115 605V588.248L472.451 590.6L458.867 571.4H467.171L477.539 586.28L474.275 586.136L483.635 571.4H491.651L478.643 591.128L479.363 587.864V605H472.115Z" fill="#F01ACE"/>
<path d="M252.818 35.3357L186.01 148.393L245.183 214.393L196.802 146.618L251.044 46.0155L261.781 111.36L252.818 35.3357ZM263.759 0L288.354 200.412L263.757 248.146L163.673 151.112L263.759 0Z" fill="#F01ACE"/>
<path d="M268.788 76.2971C268.788 76.2971 287.373 27.7565 326.594 29.6482C360.038 31.2613 352.595 85.8787 352.595 85.8787C352.595 85.8787 406.237 65.1092 421.443 88.6703C440.638 118.413 405.873 169.718 405.873 169.718" stroke="#F01ACE" stroke-width="7" stroke-miterlimit="10" stroke-linecap="round"/>
<path d="M280.14 161.714C280.14 161.714 290.385 141.267 302.229 131.702C314.969 121.413 333.777 117 333.777 117C333.777 117 329.343 126.903 328.997 135.553C328.694 143.142 330.983 152.212 330.983 152.212" stroke="#F01ACE" stroke-width="5" stroke-miterlimit="10" stroke-linecap="round"/>
<path d="M460.023 193.156L332.063 163.79L287.16 240.226L337.03 173.539L449.313 194.707L390.333 224.775L460.023 193.156ZM497 192.86L313.58 277.132L260.65 268.175L322.693 143.324L497 192.86Z" fill="#F01ACE"/>
<path d="M425.856 220.811C425.856 220.811 477.73 223.793 487.833 261.753C496.447 294.121 442.167 303.603 442.167 303.603C442.167 303.603 478.231 348.43 460.405 370.075C437.902 397.4 378.484 379.833 378.484 379.833" stroke="#F01ACE" stroke-width="7" stroke-miterlimit="10" stroke-linecap="round"/>
<path d="M352.213 256.198C352.213 256.198 374.798 259.757 387.502 268.143C401.169 277.164 411.081 293.752 411.081 293.752C411.081 293.752 400.303 292.531 391.959 294.827C384.639 296.841 376.695 301.777 376.695 301.777" stroke="#F01ACE" stroke-width="5" stroke-miterlimit="10" stroke-linecap="round"/>
<path d="M375.316 438.457L362.974 307.704L276.328 289.078L355.284 315.484L370.479 428.772L323.412 382.207L375.316 438.457ZM387.217 473.48L249.606 325.766L241.475 272.684L379.452 292.375L387.217 473.48Z" fill="#F01ACE"/>
<path d="M338.336 414.698C338.336 414.698 351.806 464.9 318.958 486.423C290.948 504.775 264.893 456.205 264.893 456.205C264.893 456.205 233.685 504.54 207.542 494.413C174.541 481.628 172.54 419.679 172.54 419.679" stroke="#F01ACE" stroke-width="7" stroke-miterlimit="10" stroke-linecap="round"/>
<path d="M281.613 355.878C281.613 355.878 285.332 378.446 281.366 393.146C277.1 408.961 264.473 423.587 264.473 423.587C264.473 423.587 262.245 412.967 257.444 405.764C253.232 399.445 246.052 393.451 246.052 393.451" stroke="#F01ACE" stroke-width="5" stroke-miterlimit="10" stroke-linecap="round"/>
<path d="M112.412 432.35L233.217 380.93L224.68 292.685L223.473 375.959L120.17 424.801L150.251 365.812L112.412 432.35ZM82.6599 454.316L181.629 278.338L229.726 254.488L252.816 391.989L82.6599 454.316Z" fill="#F01ACE"/>
<path d="M123.828 389.892C123.828 389.892 80.0937 417.958 49.6301 393.172C23.6541 372.037 62.0175 332.469 62.0175 332.469C62.0175 332.469 6.51123 317.38 8.22952 289.387C10.3986 254.051 68.8014 233.355 68.8014 233.355" stroke="#F01ACE" stroke-width="7" stroke-miterlimit="10" stroke-linecap="round"/>
<path d="M162.653 317.982C162.653 317.982 142.285 328.371 127.079 329.049C110.722 329.778 92.9602 322.177 92.9602 322.177C92.9602 322.177 102.4 316.833 107.805 310.072C112.547 304.14 116.079 295.478 116.079 295.478" stroke="#F01ACE" stroke-width="5" stroke-miterlimit="10" stroke-linecap="round"/>
<path d="M38.1335 179.922L123.124 280.022L204.81 245.633L124.972 269.237L47.6442 185.088L112.888 196.282L38.1335 179.922ZM8.32312 158.035L205.703 200.248L242.766 239.097L118.396 302.029L8.32312 158.035Z" fill="#F01ACE"/>
<path d="M82.0499 178.204C82.0499 178.204 42.2609 144.775 56.8606 108.309C69.3098 77.2144 118.48 102.094 118.48 102.094C118.48 102.094 116.38 44.5911 143.607 37.9104C177.978 29.4769 215.093 79.1077 215.093 79.1077" stroke="#F01ACE" stroke-width="7" stroke-miterlimit="10" stroke-linecap="round"/>
<path d="M162.225 198.39C162.225 198.39 146.254 182.024 141.086 167.701C135.528 152.294 137.502 133.07 137.502 133.07C137.502 133.07 145.409 140.497 153.469 143.65C160.54 146.416 169.857 147.214 169.857 147.214" stroke="#F01ACE" stroke-width="5" stroke-miterlimit="10" stroke-linecap="round"/>
</svg>
