<svg version="1.1" xmlns="http://www.w3.org/2000/svg" xmlns:xlink="http://www.w3.org/1999/xlink" width="180.23715" height="174.536" viewBox="0,0,180.23715,174.536"><g transform="translate(-151.11672,-88.26228)"><g data-paper-data="{&quot;isPaintingLayer&quot;:true}" fill-rule="nonzero" stroke-width="0" stroke-linejoin="miter" stroke-miterlimit="10" stroke-dasharray="" stroke-dashoffset="0" style="mix-blend-mode: normal"><path d="M192.50772,138.09677c0,0 -12.60876,-44.09555 56.75475,-49.64981c41.64535,-3.33474 77.7983,39.07446 78.43129,80.24649c0.40366,26.25547 -16.33844,44.25297 -16.40063,60.59079c-0.02215,5.82028 5.51801,8.38776 10.78101,8.24843c4.75288,-0.12582 9.27973,-2.70512 9.27973,-2.70512c0,0 -7.0186,20.0701 -44.83513,19.47398c-19.08039,-0.30077 -23.2418,-6.39705 -23.2418,-6.39705z" fill="#2e2e2e" stroke="#00ff32" stroke-linecap="round"/><path d="M203.32304,133.94876c0,0 -5.03843,-16.9293 14.11765,-17.05882c24.08385,-0.16284 28.38235,17.64706 28.38235,17.64706z" fill="#d01b84" stroke="#00ff32" stroke-linecap="round"/><path d="M169.43403,250.84673l84.69661,2.12372c0,0 40.28392,-2.3951 40.12229,-58.25873c-0.15004,-51.85504 -47.22625,-65.12732 -72.04112,-64.05017c-68.04491,2.95364 -70.22383,52.73181 -71.00836,70.61914c-1.55155,35.37528 18.23058,49.56605 18.23058,49.56605z" fill="#2e2e2e" stroke="#ff0000" stroke-linecap="round"/><path d="M166.29587,217.63031c0,0 -5.76211,4.49362 -5.76253,14.58631c-0.00047,11.3536 7.17531,30.57367 50.19325,30.58166c27.37347,0.00509 63.84568,-13.22007 70.65606,-31.0675c0.9517,-2.49404 0.69099,-4.30682 0.69099,-4.30682l-73.33333,-50.57143z" fill="#f6deac" stroke="#ff0000" stroke-linecap="round"/><path d="M167.06976,219.60786l-9.18033,6.72131l11.14754,-3.36066z" fill="#d01b84" stroke="#00ff01" stroke-linecap="round"/><path d="M166.49599,216.90294l-5.40984,0.16394l6.31148,-2.95082z" fill="#d01b84" stroke="#00ff01" stroke-linecap="round"/><path d="M244.11895,231.24721l13.27868,6.14754l-9.5082,-8.7705z" fill="#d01b84" stroke="#00ff01" stroke-linecap="round"/><path d="M251.33206,223.87016l10.4918,1.06557l-8.44262,-3.7705z" fill="#d01b84" stroke="#00ff01" stroke-linecap="round"/><path d="M208.42709,201.6473l17.45454,-0.18182l27.90909,19.27272c0,0 -3.8454,16.12433 -26.34472,16.29823c-3.99152,0.03085 -21.2651,-2.4283 -21.69971,-22.74348c-0.13219,-6.179 2.6808,-12.64565 2.6808,-12.64565z" fill="#ffffff" stroke="#00ff01" stroke-linecap="round"/><path d="M186.33618,199.10185l12.81818,1.63636c0,0 -0.13153,4.37604 -1.1429,9.16688c-0.95803,4.53818 -2.62202,18.91246 -19.57351,18.23197c-16.28384,-0.65369 -11.55632,-15.21702 -11.55632,-15.21702z" fill="#ffffff" stroke="#00ff01" stroke-linecap="round"/><path d="M197.84609,207.65376c0.66427,4.78662 -2.00004,9.11141 -5.95091,9.65969c-3.95086,0.54828 -7.69216,-2.88756 -8.35643,-7.67418c-0.66427,-4.78662 2.00005,-9.11141 5.95091,-9.65969c3.95086,-0.54828 7.69216,2.88756 8.35643,7.67418z" fill="#d01b84" stroke="#00ff01" stroke-linecap="butt"/><path d="M253.80814,206.71651c2.61834,5.43655 0.83794,11.7235 -3.97663,14.04228c-4.81457,2.31878 -10.84015,-0.20867 -13.45849,-5.64523c-2.61834,-5.43655 -0.83793,-11.7235 3.97664,-14.04228c4.81457,-2.31878 10.84015,0.20867 13.45848,5.64523z" fill="#d01b84" stroke="#00ff01" stroke-linecap="butt"/><path d="M287.50365,159.07502c4.5381,15.93493 1.33345,28.97124 -10.8604,32.97877c-12.19385,4.00753 -30.39529,-6.54671 -34.22336,-32.16993c-0.60261,-4.0336 2.37025,-21.37865 18.82336,-23.53433c12.72674,-1.66745 22.56881,9.763 26.2604,22.72549z" fill="#ffffff" stroke="#ff0000" stroke-linecap="butt"/><path d="M183.19241,167.4816c-8.12811,10.99096 -20.72117,14.37263 -27.43862,10.60244c-5.89184,-3.30681 -6.13224,-17.51395 1.99587,-28.50491c8.12811,-10.99096 21.14448,-16.1545 29.24418,-11.0191c8.09971,5.1354 4.32668,17.93061 -3.80143,28.92158z" fill="#ffffff" stroke="#ff0000" stroke-linecap="butt"/><path d="M208.38407,179.18796c0,0 -9.11504,10.93034 -16.03857,17.17244c-15.66329,14.12168 -26.89503,18.01716 -26.89503,18.01716l43.18182,-40.09091l43.16641,20.75517l31.37905,32.69938c0,0 -19.79232,2.0427 -42.00419,-12.45544c-20.20366,-13.18734 -32.78949,-36.09779 -32.78949,-36.09779z" fill="#2e2e2e" stroke="#0028ff" stroke-linecap="round"/></g></g></svg>