<svg width="400" height="300" viewBox="0 0 400 300" fill="none" xmlns="http://www.w3.org/2000/svg">
<g clip-path="url(#clip0_17_45)">
<path d="M0 0H400V300H0V0Z" fill="#B5D9B1"/>
<path d="M200.24 211.6C191.067 211.6 182.96 209.787 175.92 206.16C168.987 202.533 163.013 197.093 158 189.84L169.84 176.24C175.067 183.707 180.08 188.88 184.88 191.76C189.68 194.64 195.387 196.08 202 196.08C206.053 196.08 209.733 195.44 213.04 194.16C216.347 192.88 218.96 191.12 220.88 188.88C222.8 186.64 223.76 184.08 223.76 181.2C223.76 179.28 223.44 177.467 222.8 175.76C222.16 174.053 221.147 172.507 219.76 171.12C218.48 169.733 216.773 168.453 214.64 167.28C212.613 166.107 210.213 165.093 207.44 164.24C204.667 163.28 201.467 162.48 197.84 161.84C190.16 160.347 183.76 158.107 178.64 155.12C173.627 152.133 169.84 148.347 167.28 143.76C164.827 139.173 163.6 133.84 163.6 127.76C163.6 123.28 164.56 119.12 166.48 115.28C168.507 111.44 171.227 108.133 174.64 105.36C178.16 102.48 182.267 100.293 186.96 98.8C191.653 97.2 196.72 96.4 202.16 96.4C210.8 96.4 218.32 98.1067 224.72 101.52C231.227 104.827 236.347 109.68 240.08 116.08L227.92 128.08C224.72 122.853 220.88 118.853 216.4 116.08C212.027 113.307 207.12 111.92 201.68 111.92C197.52 111.92 193.893 112.56 190.8 113.84C187.707 115.12 185.253 116.933 183.44 119.28C181.733 121.52 180.88 124.187 180.88 127.28C180.88 129.52 181.307 131.6 182.16 133.52C183.013 135.333 184.293 136.987 186 138.48C187.813 139.867 190.213 141.147 193.2 142.32C196.187 143.387 199.76 144.347 203.92 145.2C209.787 146.48 215.013 148.133 219.6 150.16C224.187 152.08 228.08 154.373 231.28 157.04C234.48 159.707 236.88 162.693 238.48 166C240.187 169.307 241.04 172.88 241.04 176.72C241.04 183.867 239.387 190.053 236.08 195.28C232.773 200.507 228.08 204.56 222 207.44C215.92 210.213 208.667 211.6 200.24 211.6ZM190.64 224.56V151.92L206.16 157.2V224.56H190.64ZM212.56 157.2L197.04 151.92V84.88H212.56V157.2Z" fill="#09721A"/>
<path d="M51.072 78.48C48.32 78.48 45.888 77.936 43.776 76.848C41.696 75.76 39.904 74.128 38.4 71.952L41.952 67.872C43.52 70.112 45.024 71.664 46.464 72.528C47.904 73.392 49.616 73.824 51.6 73.824C52.816 73.824 53.92 73.632 54.912 73.248C55.904 72.864 56.688 72.336 57.264 71.664C57.84 70.992 58.128 70.224 58.128 69.36C58.128 68.784 58.032 68.24 57.84 67.728C57.648 67.216 57.344 66.752 56.928 66.336C56.544 65.92 56.032 65.536 55.392 65.184C54.784 64.832 54.064 64.528 53.232 64.272C52.4 63.984 51.44 63.744 50.352 63.552C48.048 63.104 46.128 62.432 44.592 61.536C43.088 60.64 41.952 59.504 41.184 58.128C40.448 56.752 40.08 55.152 40.08 53.328C40.08 51.984 40.368 50.736 40.944 49.584C41.552 48.432 42.368 47.44 43.392 46.608C44.448 45.744 45.68 45.088 47.088 44.64C48.496 44.16 50.016 43.92 51.648 43.92C54.24 43.92 56.496 44.432 58.416 45.456C60.368 46.448 61.904 47.904 63.024 49.824L59.376 53.424C58.416 51.856 57.264 50.656 55.92 49.824C54.608 48.992 53.136 48.576 51.504 48.576C50.256 48.576 49.168 48.768 48.24 49.152C47.312 49.536 46.576 50.08 46.032 50.784C45.52 51.456 45.264 52.256 45.264 53.184C45.264 53.856 45.392 54.48 45.648 55.056C45.904 55.6 46.288 56.096 46.8 56.544C47.344 56.96 48.064 57.344 48.96 57.696C49.856 58.016 50.928 58.304 52.176 58.56C53.936 58.944 55.504 59.44 56.88 60.048C58.256 60.624 59.424 61.312 60.384 62.112C61.344 62.912 62.064 63.808 62.544 64.8C63.056 65.792 63.312 66.864 63.312 68.016C63.312 70.16 62.816 72.016 61.824 73.584C60.832 75.152 59.424 76.368 57.6 77.232C55.776 78.064 53.6 78.48 51.072 78.48ZM48.192 82.368V60.576L52.848 62.16V82.368H48.192ZM54.768 62.16L50.112 60.576V40.464H54.768V62.16Z" fill="#09721A"/>
<path d="M349.072 78.48C346.32 78.48 343.888 77.936 341.776 76.848C339.696 75.76 337.904 74.128 336.4 71.952L339.952 67.872C341.52 70.112 343.024 71.664 344.464 72.528C345.904 73.392 347.616 73.824 349.6 73.824C350.816 73.824 351.92 73.632 352.912 73.248C353.904 72.864 354.688 72.336 355.264 71.664C355.84 70.992 356.128 70.224 356.128 69.36C356.128 68.784 356.032 68.24 355.84 67.728C355.648 67.216 355.344 66.752 354.928 66.336C354.544 65.92 354.032 65.536 353.392 65.184C352.784 64.832 352.064 64.528 351.232 64.272C350.4 63.984 349.44 63.744 348.352 63.552C346.048 63.104 344.128 62.432 342.592 61.536C341.088 60.64 339.952 59.504 339.184 58.128C338.448 56.752 338.08 55.152 338.08 53.328C338.08 51.984 338.368 50.736 338.944 49.584C339.552 48.432 340.368 47.44 341.392 46.608C342.448 45.744 343.68 45.088 345.088 44.64C346.496 44.16 348.016 43.92 349.648 43.92C352.24 43.92 354.496 44.432 356.416 45.456C358.368 46.448 359.904 47.904 361.024 49.824L357.376 53.424C356.416 51.856 355.264 50.656 353.92 49.824C352.608 48.992 351.136 48.576 349.504 48.576C348.256 48.576 347.168 48.768 346.24 49.152C345.312 49.536 344.576 50.08 344.032 50.784C343.52 51.456 343.264 52.256 343.264 53.184C343.264 53.856 343.392 54.48 343.648 55.056C343.904 55.6 344.288 56.096 344.8 56.544C345.344 56.96 346.064 57.344 346.96 57.696C347.856 58.016 348.928 58.304 350.176 58.56C351.936 58.944 353.504 59.44 354.88 60.048C356.256 60.624 357.424 61.312 358.384 62.112C359.344 62.912 360.064 63.808 360.544 64.8C361.056 65.792 361.312 66.864 361.312 68.016C361.312 70.16 360.816 72.016 359.824 73.584C358.832 75.152 357.424 76.368 355.6 77.232C353.776 78.064 351.6 78.48 349.072 78.48ZM346.192 82.368V60.576L350.848 62.16V82.368H346.192ZM352.768 62.16L348.112 60.576V40.464H352.768V62.16Z" fill="#09721A"/>
<path d="M349.072 258.48C346.32 258.48 343.888 257.936 341.776 256.848C339.696 255.76 337.904 254.128 336.4 251.952L339.952 247.872C341.52 250.112 343.024 251.664 344.464 252.528C345.904 253.392 347.616 253.824 349.6 253.824C350.816 253.824 351.92 253.632 352.912 253.248C353.904 252.864 354.688 252.336 355.264 251.664C355.84 250.992 356.128 250.224 356.128 249.36C356.128 248.784 356.032 248.24 355.84 247.728C355.648 247.216 355.344 246.752 354.928 246.336C354.544 245.92 354.032 245.536 353.392 245.184C352.784 244.832 352.064 244.528 351.232 244.272C350.4 243.984 349.44 243.744 348.352 243.552C346.048 243.104 344.128 242.432 342.592 241.536C341.088 240.64 339.952 239.504 339.184 238.128C338.448 236.752 338.08 235.152 338.08 233.328C338.08 231.984 338.368 230.736 338.944 229.584C339.552 228.432 340.368 227.44 341.392 226.608C342.448 225.744 343.68 225.088 345.088 224.64C346.496 224.16 348.016 223.92 349.648 223.92C352.24 223.92 354.496 224.432 356.416 225.456C358.368 226.448 359.904 227.904 361.024 229.824L357.376 233.424C356.416 231.856 355.264 230.656 353.92 229.824C352.608 228.992 351.136 228.576 349.504 228.576C348.256 228.576 347.168 228.768 346.24 229.152C345.312 229.536 344.576 230.08 344.032 230.784C343.52 231.456 343.264 232.256 343.264 233.184C343.264 233.856 343.392 234.48 343.648 235.056C343.904 235.6 344.288 236.096 344.8 236.544C345.344 236.96 346.064 237.344 346.96 237.696C347.856 238.016 348.928 238.304 350.176 238.56C351.936 238.944 353.504 239.44 354.88 240.048C356.256 240.624 357.424 241.312 358.384 242.112C359.344 242.912 360.064 243.808 360.544 244.8C361.056 245.792 361.312 246.864 361.312 248.016C361.312 250.16 360.816 252.016 359.824 253.584C358.832 255.152 357.424 256.368 355.6 257.232C353.776 258.064 351.6 258.48 349.072 258.48ZM346.192 262.368V240.576L350.848 242.16V262.368H346.192ZM352.768 242.16L348.112 240.576V220.464H352.768V242.16Z" fill="#09721A"/>
<path d="M51.072 258.48C48.32 258.48 45.888 257.936 43.776 256.848C41.696 255.76 39.904 254.128 38.4 251.952L41.952 247.872C43.52 250.112 45.024 251.664 46.464 252.528C47.904 253.392 49.616 253.824 51.6 253.824C52.816 253.824 53.92 253.632 54.912 253.248C55.904 252.864 56.688 252.336 57.264 251.664C57.84 250.992 58.128 250.224 58.128 249.36C58.128 248.784 58.032 248.24 57.84 247.728C57.648 247.216 57.344 246.752 56.928 246.336C56.544 245.92 56.032 245.536 55.392 245.184C54.784 244.832 54.064 244.528 53.232 244.272C52.4 243.984 51.44 243.744 50.352 243.552C48.048 243.104 46.128 242.432 44.592 241.536C43.088 240.64 41.952 239.504 41.184 238.128C40.448 236.752 40.08 235.152 40.08 233.328C40.08 231.984 40.368 230.736 40.944 229.584C41.552 228.432 42.368 227.44 43.392 226.608C44.448 225.744 45.68 225.088 47.088 224.64C48.496 224.16 50.016 223.92 51.648 223.92C54.24 223.92 56.496 224.432 58.416 225.456C60.368 226.448 61.904 227.904 63.024 229.824L59.376 233.424C58.416 231.856 57.264 230.656 55.92 229.824C54.608 228.992 53.136 228.576 51.504 228.576C50.256 228.576 49.168 228.768 48.24 229.152C47.312 229.536 46.576 230.08 46.032 230.784C45.52 231.456 45.264 232.256 45.264 233.184C45.264 233.856 45.392 234.48 45.648 235.056C45.904 235.6 46.288 236.096 46.8 236.544C47.344 236.96 48.064 237.344 48.96 237.696C49.856 238.016 50.928 238.304 52.176 238.56C53.936 238.944 55.504 239.44 56.88 240.048C58.256 240.624 59.424 241.312 60.384 242.112C61.344 242.912 62.064 243.808 62.544 244.8C63.056 245.792 63.312 246.864 63.312 248.016C63.312 250.16 62.816 252.016 61.824 253.584C60.832 255.152 59.424 256.368 57.6 257.232C55.776 258.064 53.6 258.48 51.072 258.48ZM48.192 262.368V240.576L52.848 242.16V262.368H48.192ZM54.768 242.16L50.112 240.576V220.464H54.768V242.16Z" fill="#09721A"/>
<rect x="24" y="24" width="352" height="252" stroke="#09721A" stroke-width="12"/>
</g>
<defs>
<clipPath id="clip0_17_45">
<rect width="400" height="300" fill="white"/>
</clipPath>
</defs>
</svg>
