<svg width="500" height="500" viewBox="0 0 500 500" fill="none" xmlns="http://www.w3.org/2000/svg">
<g clip-path="url(#clip0_16_16)">
<circle cx="250" cy="250" r="228" fill="#B5D9B1" stroke="#09721A" stroke-width="44"/>
<path d="M250.04 388.6C229.4 388.6 211.16 384.52 195.32 376.36C179.72 368.2 166.28 355.96 155 339.64L181.64 309.04C193.4 325.84 204.68 337.48 215.48 343.96C226.28 350.44 239.12 353.68 254 353.68C263.12 353.68 271.4 352.24 278.84 349.36C286.28 346.48 292.16 342.52 296.48 337.48C300.8 332.44 302.96 326.68 302.96 320.2C302.96 315.88 302.24 311.8 300.8 307.96C299.36 304.12 297.08 300.64 293.96 297.52C291.08 294.4 287.24 291.52 282.44 288.88C277.88 286.24 272.48 283.96 266.24 282.04C260 279.88 252.8 278.08 244.64 276.64C227.36 273.28 212.96 268.24 201.44 261.52C190.16 254.8 181.64 246.28 175.88 235.96C170.36 225.64 167.6 213.64 167.6 199.96C167.6 189.88 169.76 180.52 174.08 171.88C178.64 163.24 184.76 155.8 192.44 149.56C200.36 143.08 209.6 138.16 220.16 134.8C230.72 131.2 242.12 129.4 254.36 129.4C273.8 129.4 290.72 133.24 305.12 140.92C319.76 148.36 331.28 159.28 339.68 173.68L312.32 200.68C305.12 188.92 296.48 179.92 286.4 173.68C276.56 167.44 265.52 164.32 253.28 164.32C243.92 164.32 235.76 165.76 228.8 168.64C221.84 171.52 216.32 175.6 212.24 180.88C208.4 185.92 206.48 191.92 206.48 198.88C206.48 203.92 207.44 208.6 209.36 212.92C211.28 217 214.16 220.72 218 224.08C222.08 227.2 227.48 230.08 234.2 232.72C240.92 235.12 248.96 237.28 258.32 239.2C271.52 242.08 283.28 245.8 293.6 250.36C303.92 254.68 312.68 259.84 319.88 265.84C327.08 271.84 332.48 278.56 336.08 286C339.92 293.44 341.84 301.48 341.84 310.12C341.84 326.2 338.12 340.12 330.68 351.88C323.24 363.64 312.68 372.76 299 379.24C285.32 385.48 269 388.6 250.04 388.6ZM228.44 417.76V254.32L263.36 266.2V417.76H228.44ZM277.76 266.2L242.84 254.32V103.48H277.76V266.2Z" fill="#09721A"/>
</g>
<defs>
<clipPath id="clip0_16_16">
<rect width="500" height="500" fill="white"/>
</clipPath>
</defs>
</svg>
