<svg width="400" height="300" viewBox="0 0 400 300" fill="none" xmlns="http://www.w3.org/2000/svg">
<g clip-path="url(#clip0_17_77)">
<path d="M0 0H400V300H0V0Z" fill="#F01ACE"/>
<path d="M215.223 43.238C215.223 43.238 231.774 26.0775 253.644 30.0801C262.587 31.7168 263.38 58.5011 263.38 58.5011C263.38 58.5011 288.566 51.7121 293.644 58.5011C310.508 81.0499 286.275 111.133 286.275 111.133L207.065 135.343L199.959 145.87L189.433 134.291L215.223 43.238Z" fill="#F34ED9"/>
<path d="M305.582 128.705C305.582 128.705 326.323 140.463 327.891 162.64C328.533 171.709 302.789 179.146 302.789 179.146C302.789 179.146 315.635 201.849 310.324 208.457C292.684 230.404 257.515 214.424 257.515 214.424L202.287 145.941L202.382 139.475L210.976 126.397L305.582 128.705Z" fill="#F34ED9"/>
<path d="M247.742 235.038C247.742 235.038 245.007 258.723 225.198 268.818C217.098 272.947 200.207 252.145 200.207 252.145C200.207 252.145 184.315 272.829 176.159 270.517C149.069 262.836 150.063 224.22 150.063 224.22L198.31 156.895L197.565 144.216L212.959 147.027L247.742 235.038Z" fill="#F34ED9"/>
<path d="M130.319 219.607C130.319 219.607 107.158 225.266 90.8125 210.195C84.1284 204.032 97.7716 180.969 97.7716 180.969C97.7716 180.969 72.8562 173.248 72.1927 164.796C69.9891 136.725 106.548 124.249 106.548 124.249L186.437 146.118L198.068 141.018L200.777 156.43L130.319 219.607Z" fill="#F34ED9"/>
<path d="M109.402 101.527C109.402 101.527 97.8674 80.6614 108.124 60.9356C112.318 52.8691 138.151 59.9864 138.151 59.9864C138.151 59.9864 139.068 33.918 147.05 31.0612C173.561 21.5727 195.188 53.5802 195.188 53.5802L195.037 136.408L203.008 146.294L188.846 152.951L109.402 101.527Z" fill="#F34ED9"/>
<path d="M198.644 148.238C198.644 148.238 165.757 125.854 169.433 90.3433C174.582 40.599 225.223 39.5538 225.223 39.5538C225.223 39.5538 219.974 43.605 219.522 47.8688C217.954 62.6675 237.703 56.5564 237.904 68.7735C238.099 80.5808 219.399 77.8586 219.936 86.3887C220.266 91.6388 226.96 91.7134 225.842 98.8977C224.115 109.997 215.616 108.95 206.684 113.188C202.478 115.183 198.33 121.126 196.971 126.611C194.62 136.099 200.553 147.103 200.553 147.103L198.644 148.238Z" fill="white"/>
<path d="M191.008 131.441C191.008 131.441 183.679 115.217 183.829 102.751C183.972 90.9011 189.139 73.5013 197.12 75.2105C204.547 76.8009 190.223 97.3155 195.126 95.2649C198.492 93.8568 204.256 93.3435 201.89 99.3825C200.471 103.006 194.63 106.806 192.588 113.832C189.989 122.778 191.008 131.441 191.008 131.441Z" fill="#FBC1F2"/>
<path d="M199.19 145.08C199.19 145.08 211.016 107.097 246.057 100.262C295.142 90.688 310.902 138.825 310.902 138.825C310.902 138.825 305.497 134.985 301.287 135.795C286.673 138.609 298.276 155.719 286.648 159.473C275.41 163.1 272.563 144.419 264.56 147.419C259.634 149.265 261.514 155.69 254.316 156.715C243.195 158.298 241.72 149.864 235.062 142.554C231.928 139.113 225.034 136.877 219.391 137.176C209.629 137.692 200.833 146.576 200.833 146.576L199.19 145.08Z" fill="white"/>
<path d="M213.032 132.88C213.032 132.88 226.415 121.14 238.384 117.65C249.761 114.332 267.911 114.204 268.603 122.336C269.246 129.904 245.447 122.182 248.838 126.274C251.166 129.084 253.337 134.447 246.871 133.945C242.99 133.644 237.653 129.164 230.337 129.259C221.022 129.38 213.032 132.88 213.032 132.88Z" fill="#FBC1F2"/>
<path d="M199.578 143.945C199.578 143.945 239.307 141.927 257.822 172.452C283.757 215.211 244.024 246.625 244.024 246.625C244.024 246.625 245.761 240.226 243.547 236.555C235.86 223.812 223.809 240.609 216.271 230.993C208.986 221.699 225.534 212.576 219.956 206.101C216.522 202.116 211.141 206.099 207.694 199.697C202.368 189.807 209.774 185.51 214.335 176.738C216.482 172.608 216.2 165.366 213.971 160.173C210.115 151.19 198.741 146.003 198.741 146.003L199.578 143.945Z" fill="white"/>
<path d="M215.807 152.722C215.807 152.722 231.446 161.228 238.855 171.255C245.897 180.787 252.285 197.776 244.892 201.234C238.012 204.451 237.04 179.449 234.371 184.044C232.538 187.199 228.254 191.089 226.492 184.847C225.435 181.101 227.797 174.546 225.181 167.712C221.851 159.012 215.807 152.722 215.807 152.722Z" fill="#FBC1F2"/>
<path d="M202.5 144.272C202.5 144.272 217.034 181.303 193.972 208.555C161.667 246.731 119.258 219.035 119.258 219.035C119.258 219.035 125.877 218.649 128.655 215.383C138.296 204.047 118.541 197.956 125.264 187.753C131.763 177.893 145.669 190.687 150.037 183.34C152.725 178.818 147.239 174.981 152.214 169.679C159.9 161.487 166.327 167.144 176.094 168.683C180.692 169.407 187.469 166.838 191.685 163.075C198.978 156.566 200.283 144.133 200.283 144.133L202.5 144.272Z" fill="white"/>
<path d="M199.333 162.449C199.333 162.449 196.236 179.98 189.082 190.19C182.281 199.895 168.201 211.35 162.574 205.438C157.338 199.936 180.736 191.073 175.531 190.001C171.957 189.266 166.908 186.439 172.267 182.786C175.482 180.594 182.449 180.75 188.097 176.099C195.289 170.178 199.333 162.449 199.333 162.449Z" fill="#FBC1F2"/>
<path d="M202.004 148.358C202.004 148.358 170.515 172.668 137.9 158.148C92.2137 137.808 106.944 89.3456 106.944 89.3456C106.944 89.3456 109.165 95.5927 113.078 97.3462C126.658 103.432 126.982 82.7616 138.657 86.3638C149.941 89.8451 141.547 106.775 149.823 108.914C154.916 110.23 157.065 103.89 163.547 107.183C173.562 112.271 169.928 120.025 171.182 129.831C171.773 134.449 176.134 140.237 180.926 143.232C189.215 148.414 201.517 146.19 201.517 146.19L202.004 148.358Z" fill="white"/>
<path d="M183.666 150.4C183.666 150.4 165.968 152.33 154.165 148.316C142.945 144.501 128.01 134.186 132.113 127.13C135.93 120.565 150.984 140.55 150.556 135.253C150.263 131.616 151.565 125.978 156.571 130.102C159.575 132.576 161.373 139.308 167.418 143.431C175.115 148.679 183.666 150.4 183.666 150.4Z" fill="#FBC1F2"/>
</g>
<defs>
<clipPath id="clip0_17_77">
<rect width="400" height="300" fill="white"/>
</clipPath>
</defs>
</svg>
