<svg width="445" height="239" viewBox="0 0 445 239" fill="none" xmlns="http://www.w3.org/2000/svg">
<g clip-path="url(#clip0_17_214)">
<path d="M220.305 222.556C220.305 222.556 277.001 134.851 277.466 104.885C278.113 63.2092 249.161 49.9626 218.462 50.0971C190.225 50.2216 162.845 68.1838 160.576 94.043C157.784 125.874 190.892 149.409 190.892 149.409C190.892 149.409 120.118 145.833 119.348 92.9597C118.507 35.1044 160.607 0.597626 216.438 0.0074247C274.577 -0.607249 326.408 36.9776 326.03 100.115C325.651 163.251 220.305 222.556 220.305 222.556Z" fill="white"/>
<path d="M282.092 238.466C282.092 238.466 346.527 179.385 395.985 155.178C453.553 127.002 452.31 157.726 433.809 171.257C415.306 184.787 282.092 238.466 282.092 238.466Z" fill="white"/>
<path d="M11.3442 171.257C-7.15797 157.726 -8.40039 127.002 49.1679 155.178C98.625 179.385 163.06 238.466 163.06 238.466C163.06 238.466 29.8464 184.787 11.3442 171.257Z" fill="white"/>
</g>
<defs>
<clipPath id="clip0_17_214">
<rect width="445" height="239" fill="white"/>
</clipPath>
</defs>
</svg>
