<svg width="400" height="300" viewBox="0 0 400 300" fill="none" xmlns="http://www.w3.org/2000/svg">
<g clip-path="url(#clip0_17_67)">
<mask id="mask0_17_67" style="mask-type:luminance" maskUnits="userSpaceOnUse" x="0" y="0" width="400" height="300">
<path d="M400 0H0V300H400V0Z" fill="white"/>
</mask>
<g mask="url(#mask0_17_67)">
<path d="M0 0H400V300H0V0Z" fill="black"/>
<path d="M0 90H400V210H0V90Z" fill="#B212D2"/>
<path d="M198.505 227.755C198.505 227.755 238.129 166.471 238.454 145.533C238.906 116.412 218.672 107.156 197.217 107.25C177.483 107.337 158.348 119.888 156.762 137.957C154.811 160.199 177.949 176.644 177.949 176.644C177.949 176.644 128.487 174.145 127.949 137.2C127.361 96.7739 156.784 72.6625 195.803 72.2501C236.435 71.8206 272.658 98.0828 272.394 142.2C272.129 186.316 198.505 227.755 198.505 227.755Z" fill="white"/>
<path d="M52.4675 191.91C39.5368 182.455 38.6685 160.987 78.9016 180.675C113.466 197.589 158.498 238.872 158.498 238.872C158.498 238.872 65.3983 201.364 52.4675 191.91Z" fill="white"/>
<path d="M241.687 238.872C241.687 238.872 286.719 197.589 321.284 180.675C361.517 160.987 360.648 182.455 347.718 191.91C334.787 201.364 241.687 238.872 241.687 238.872Z" fill="white"/>
</g>
</g>
<defs>
<clipPath id="clip0_17_67">
<rect width="400" height="300" fill="white"/>
</clipPath>
</defs>
</svg>
