<svg width="500" height="500" viewBox="0 0 500 500" fill="none" xmlns="http://www.w3.org/2000/svg">
<g clip-path="url(#clip0_89_45)">
<path d="M287.638 166.53L384.944 89.1797L325.666 198.439L319.445 209.906L332.486 210.251L456.747 213.545L341.106 259.14L328.97 263.925L338.738 272.572L431.81 354.968L313.917 315.563L301.544 311.428L303.468 324.331L321.802 447.275L256.82 341.309L250 330.188L243.18 341.309L178.198 447.275L196.532 324.331L198.456 311.428L186.083 315.563L68.1901 354.968L161.262 272.572L171.03 263.925L158.894 259.14L43.2534 213.545L167.514 210.251L180.555 209.906L174.334 198.439L115.056 89.1797L212.362 166.53L222.574 174.648L225.179 161.865L250 40.064L274.821 161.865L277.426 174.648L287.638 166.53Z" fill="black" stroke="white" stroke-width="16"/>
</g>
<defs>
<clipPath id="clip0_89_45">
<rect width="500" height="500" fill="white"/>
</clipPath>
</defs>
</svg>
