<svg width="500" height="500" viewBox="0 0 500 500" fill="none" xmlns="http://www.w3.org/2000/svg">
<g clip-path="url(#clip0_17_154)">
<mask id="mask0_17_154" style="mask-type:alpha" maskUnits="userSpaceOnUse" x="0" y="0" width="500" height="500">
<circle cx="250" cy="250" r="250" fill="#169986"/>
</mask>
<g mask="url(#mask0_17_154)">
<rect x="250" width="250" height="500" fill="#0E6357"/>
<rect width="250" height="500" fill="#169986"/>
</g>
<g clip-path="url(#clip1_17_154)">
<path d="M312.939 230.682C315.182 239.591 313.719 254.265 313.719 254.265L293.028 260.712L276.501 245.937C276.501 245.937 283.594 239.452 289.699 227.021C294.359 217.533 295.446 205.372 295.446 205.372C295.446 205.372 308.772 214.128 312.939 230.682Z" fill="#4B2D03"/>
<path d="M286.81 253.458C286.81 253.458 301.662 253.801 310.984 248.521C329.27 238.163 345.212 203.694 358.747 174.657C373.125 143.809 383.168 135.974 389.382 135.905C402.447 135.76 409.09 154.281 416.292 154.563C426.656 154.968 423.103 125.532 434.286 126.216C449.434 127.142 447.959 150.781 452.121 152.111C455.243 153.108 456.142 147.501 460.095 147.732C476.804 148.709 462.987 195.433 464.744 198.572C467.138 202.852 471.18 199.4 471.717 204.543C474.138 227.729 438.877 267.48 402.495 280.591C389.495 285.276 365.063 280.973 365.063 280.973L296.187 264.022L286.81 253.458Z" fill="#605039"/>
<path d="M203.389 204.168C203.389 204.168 204.476 216.329 209.136 225.817C215.241 238.248 222.334 244.733 222.334 244.733L205.807 259.508L185.116 253.061C185.116 253.061 183.654 238.387 185.896 229.479C190.063 212.924 203.389 204.168 203.389 204.168Z" fill="#4B2D03"/>
<path d="M212.025 252.254C212.025 252.254 197.174 252.598 187.852 247.317C169.565 236.959 153.623 202.49 140.089 173.453C125.71 142.605 115.668 134.771 109.453 134.702C96.3885 134.556 89.7448 153.077 82.5435 153.359C72.1794 153.765 75.7324 124.328 64.5493 125.012C49.4008 125.938 50.8763 149.577 46.7141 150.907C43.5921 151.904 42.6935 146.298 38.74 146.529C22.0314 147.505 35.8482 194.229 34.0913 197.369C31.6968 201.648 27.6549 198.196 27.1179 203.339C24.6969 226.525 59.9585 266.276 96.3404 279.387C109.341 284.072 133.772 279.769 133.772 279.769L202.648 262.818L212.025 252.254Z" fill="#605039"/>
<path d="M281.378 406.686C289.389 399.982 284.336 380.278 284.467 368.703C284.791 339.981 301.827 296.904 299.589 272.882C298.454 260.694 292.504 249.459 277.231 241.191C267.056 235.682 232.083 235.682 221.908 241.191C206.636 249.459 200.685 260.694 199.55 272.882C197.313 296.904 214.348 339.981 214.673 368.703C214.803 380.278 209.751 399.982 217.761 406.686C224.184 412.062 236.94 418.749 249.763 418.792C262.096 418.834 274.492 412.45 281.378 406.686Z" fill="#72470B"/>
<path d="M214.537 261.317C214.537 261.317 217.602 262.937 216.819 268.648C215.989 274.708 213.412 276.306 213.412 276.306C213.412 276.306 195.122 276.959 172.411 278.068C151.488 279.089 128.871 286.298 117.022 286.034C99.2777 285.638 77.0697 275.533 77.7688 252.388C78.2561 236.256 94.763 206.484 116.808 206.206C130.91 206.028 105.208 228.703 106.756 246.51C107.222 251.868 109.822 257.866 113.447 257.886C129.21 257.975 147.309 204.197 178.303 203.91C187.555 203.824 177.077 215.108 168.189 228.111C162.537 236.378 159.202 244.548 157.901 249.373C156.543 254.411 156.661 257.125 157.936 257.372C162.962 258.344 174.46 235.613 189.826 235.366C193.305 235.31 192.83 240.366 188.947 244.824C185.231 249.091 182.794 254.374 184.641 258.237C186.194 261.483 193.132 261.035 199.934 261.031C207.316 261.027 214.537 261.317 214.537 261.317Z" fill="#907A5A"/>
<path d="M298.901 262.235C305.703 262.238 312.641 262.687 314.194 259.441C316.041 255.578 313.604 250.294 309.888 246.028C306.005 241.569 305.53 236.514 309.009 236.57C324.375 236.817 335.873 259.548 340.899 258.575C342.174 258.329 342.292 255.614 340.934 250.577C339.633 245.752 336.299 237.582 330.646 229.315C321.758 216.312 311.28 205.028 320.532 205.114C351.526 205.4 369.625 259.178 385.388 259.09C389.013 259.07 391.613 253.072 392.079 247.713C393.627 229.907 367.925 207.231 382.027 207.409C404.072 207.688 420.579 237.459 421.066 253.592C421.765 276.736 399.557 286.842 381.813 287.238C369.964 287.502 347.347 280.292 326.424 279.271C303.713 278.163 285.423 277.509 285.423 277.509C285.423 277.509 282.846 275.912 282.016 269.852C281.233 264.141 284.298 262.521 284.298 262.521C284.298 262.521 291.519 262.231 298.901 262.235Z" fill="#907A5A"/>
<path d="M221.919 340.194C222.948 347.285 221.064 353.428 217.711 353.914C214.358 354.4 212.418 349.046 211.389 341.955C210.36 334.865 210.632 328.722 213.985 328.236C217.338 327.75 220.89 333.104 221.919 340.194Z" fill="#4B2D03"/>
<path d="M234.802 398.136C231.545 399.439 229.011 404.422 228.902 407.726C228.692 414.055 234.336 418.499 250.199 418.595C264.298 418.681 270.361 413.655 270.165 407.727C270.056 404.424 267.522 399.441 264.265 398.138C261.237 396.927 255.344 398.974 249.537 398.966C243.659 398.958 237.866 396.911 234.802 398.136Z" fill="#4B2D03"/>
<path d="M284.85 329.44C288.203 329.926 288.475 336.068 287.446 343.159C286.417 350.25 284.477 355.604 281.124 355.118C277.771 354.631 275.887 348.489 276.916 341.398C277.945 334.307 281.497 328.953 284.85 329.44Z" fill="#4B2D03"/>
</g>
</g>
<defs>
<clipPath id="clip0_17_154">
<rect width="500" height="500" fill="white"/>
</clipPath>
<clipPath id="clip1_17_154">
<rect width="445" height="294" fill="white" transform="translate(27 125)"/>
</clipPath>
</defs>
</svg>
