<svg width="445" height="294" viewBox="0 0 445 294" fill="none" xmlns="http://www.w3.org/2000/svg">
<g clip-path="url(#clip0_17_182)">
<path d="M285.939 105.682C288.182 114.591 286.719 129.265 286.719 129.265L266.028 135.712L249.501 120.937C249.501 120.937 256.594 114.452 262.699 102.021C267.359 92.5327 268.446 80.3721 268.446 80.3721C268.446 80.3721 281.772 89.1282 285.939 105.682Z" fill="#4B2D03"/>
<path d="M259.81 128.458C259.81 128.458 274.661 128.801 283.983 123.521C302.27 113.163 318.212 78.6937 331.746 49.6568C346.125 18.8088 356.167 10.9744 362.382 10.9053C375.446 10.7599 382.09 29.2807 389.291 29.5626C399.656 29.9684 396.103 0.531672 407.286 1.21547C422.434 2.14172 420.959 25.7805 425.121 27.1105C428.243 28.1081 429.141 22.5013 433.095 22.7323C449.804 23.7085 435.987 70.4327 437.744 73.5724C440.138 77.8516 444.18 74.4 444.717 79.543C447.138 102.729 411.876 142.48 375.495 155.591C362.494 160.276 338.063 155.973 338.063 155.973L269.187 139.022L259.81 128.458Z" fill="#605039"/>
<path d="M176.389 79.1683C176.389 79.1683 177.476 91.329 182.136 100.817C188.241 113.248 195.334 119.733 195.334 119.733L178.807 134.508L158.116 128.061C158.116 128.061 156.653 113.387 158.896 104.479C163.063 87.9244 176.389 79.1683 176.389 79.1683Z" fill="#4B2D03"/>
<path d="M185.025 127.254C185.025 127.254 170.174 127.598 160.852 122.317C142.565 111.959 126.623 77.49 113.089 48.4531C98.7097 17.6051 88.6676 9.77073 82.4528 9.70154C69.3885 9.55614 62.7448 28.077 55.5435 28.3589C45.1794 28.7646 48.7324 -0.672063 37.5493 0.0117318C22.4008 0.937987 23.8763 24.5768 19.7141 25.9068C16.5921 26.9044 15.6935 21.2976 11.74 21.5286C-4.9686 22.5048 8.84816 69.229 7.09129 72.3687C4.6968 76.6479 0.654933 73.1963 0.117902 78.3392C-2.30314 101.525 32.9585 141.276 69.3404 154.387C82.3405 159.072 106.772 154.769 106.772 154.769L175.648 137.818L185.025 127.254Z" fill="#605039"/>
<path d="M254.378 281.686C262.389 274.982 257.336 255.278 257.467 243.703C257.791 214.981 274.827 171.904 272.589 147.882C271.454 135.694 265.504 124.459 250.231 116.19C240.056 110.682 205.083 110.682 194.908 116.19C179.636 124.459 173.685 135.694 172.55 147.882C170.313 171.904 187.348 214.981 187.672 243.703C187.803 255.278 182.751 274.982 190.761 281.686C197.184 287.062 209.94 293.749 222.763 293.792C235.096 293.834 247.492 287.45 254.378 281.686Z" fill="#72470B"/>
<path d="M187.537 136.317C187.537 136.317 190.602 137.937 189.819 143.648C188.989 149.708 186.412 151.306 186.412 151.306C186.412 151.306 168.123 151.959 145.411 153.068C124.488 154.089 101.871 161.298 90.0223 161.034C72.2778 160.638 50.0698 150.533 50.7689 127.388C51.2561 111.256 67.763 81.4841 89.8079 81.2057C103.91 81.0276 78.2085 103.703 79.7565 121.51C80.2223 126.868 82.8223 132.866 86.4471 132.886C102.21 132.975 120.309 79.1967 151.303 78.91C160.555 78.8245 150.078 90.1085 141.189 103.111C135.537 111.378 132.202 119.549 130.901 124.373C129.544 129.411 129.661 132.125 130.936 132.372C135.962 133.344 147.46 110.613 162.826 110.366C166.305 110.31 165.831 115.366 161.947 119.824C158.231 124.091 155.794 129.374 157.641 133.237C159.194 136.483 166.132 136.035 172.934 136.031C180.316 136.027 187.537 136.317 187.537 136.317Z" fill="#907A5A"/>
<path d="M271.901 137.235C278.703 137.238 285.641 137.687 287.194 134.441C289.041 130.578 286.604 125.294 282.888 121.028C279.005 116.569 278.53 111.514 282.009 111.57C297.375 111.817 308.873 134.548 313.899 133.575C315.174 133.329 315.292 130.614 313.934 125.577C312.633 120.752 309.298 112.582 303.646 104.315C294.757 91.3122 284.28 80.0282 293.532 80.1138C324.526 80.4004 342.625 134.178 358.388 134.09C362.013 134.07 364.613 128.072 365.079 122.713C366.626 104.907 340.925 82.2313 355.027 82.4094C377.072 82.6879 393.579 112.459 394.066 128.592C394.765 151.736 372.557 161.842 354.813 162.238C342.964 162.502 320.347 155.292 299.424 154.271C276.712 153.163 258.423 152.509 258.423 152.509C258.423 152.509 255.846 150.912 255.016 144.852C254.233 139.141 257.298 137.521 257.298 137.521C257.298 137.521 264.519 137.231 271.901 137.235Z" fill="#907A5A"/>
<path d="M194.919 215.194C195.948 222.285 194.064 228.428 190.711 228.914C187.358 229.4 185.418 224.046 184.389 216.955C183.36 209.865 183.632 203.722 186.985 203.236C190.338 202.75 193.89 208.104 194.919 215.194Z" fill="#4B2D03"/>
<path d="M207.802 273.136C204.545 274.439 202.011 279.422 201.902 282.726C201.692 289.055 207.336 293.499 223.199 293.595C237.298 293.681 243.361 288.655 243.165 282.727C243.056 279.424 240.522 274.441 237.265 273.138C234.237 271.927 228.344 273.974 222.537 273.966C216.659 273.958 210.866 271.911 207.802 273.136Z" fill="#4B2D03"/>
<path d="M257.85 204.44C261.203 204.926 261.475 211.068 260.446 218.159C259.417 225.25 257.477 230.604 254.124 230.118C250.771 229.631 248.887 223.489 249.916 216.398C250.945 209.307 254.497 203.953 257.85 204.44Z" fill="#4B2D03"/>
</g>
<defs>
<clipPath id="clip0_17_182">
<rect width="445" height="294" fill="white"/>
</clipPath>
</defs>
</svg>
