<svg width="400" height="300" viewBox="0 0 400 300" fill="none" xmlns="http://www.w3.org/2000/svg">
<g clip-path="url(#clip0_17_112)">
<path d="M0.229004 -0.229004H400.229V299.771H0.229004V-0.229004Z" fill="#169986"/>
<rect x="200" width="200" height="300" fill="#0E6357"/>
<g clip-path="url(#clip1_17_112)">
<path d="M242.41 121.533C243.927 127.563 242.938 137.495 242.938 137.495L228.942 141.859L217.764 131.859C217.764 131.859 222.561 127.469 226.691 119.055C229.843 112.633 230.578 104.401 230.578 104.401C230.578 104.401 239.592 110.328 242.41 121.533Z" fill="#4B2D03"/>
<path d="M224.737 136.949C224.737 136.949 234.782 137.182 241.088 133.608C253.457 126.597 264.24 103.266 273.395 83.6113C283.121 62.7312 289.913 57.4283 294.117 57.3815C302.954 57.2831 307.448 69.8193 312.318 70.0101C319.329 70.2848 316.926 50.3599 324.49 50.8228C334.736 51.4497 333.738 67.4501 336.554 68.3503C338.665 69.0256 339.273 65.2306 341.947 65.3869C353.249 66.0476 343.903 97.6739 345.092 99.7991C346.711 102.696 349.445 100.359 349.809 103.84C351.446 119.534 327.595 146.441 302.986 155.315C294.193 158.486 277.667 155.573 277.667 155.573L231.08 144.1L224.737 136.949Z" fill="#605039"/>
<path d="M168.31 103.587C168.31 103.587 169.046 111.818 172.198 118.24C176.327 126.654 181.125 131.044 181.125 131.044L169.946 141.045L155.95 136.681C155.95 136.681 154.961 126.749 156.478 120.718C159.297 109.513 168.31 103.587 168.31 103.587Z" fill="#4B2D03"/>
<path d="M174.152 136.135C174.152 136.135 164.106 136.367 157.801 132.793C145.432 125.782 134.649 102.451 125.494 82.7965C115.768 61.9164 108.975 56.6135 104.771 56.5667C95.9347 56.4683 91.4409 69.0045 86.5699 69.1953C79.5596 69.4699 81.9628 49.5451 74.3985 50.0079C64.152 50.6349 65.1501 66.6353 62.3347 67.5355C60.223 68.2108 59.6151 64.4157 56.941 64.5721C45.6392 65.2328 54.9849 96.8591 53.7966 98.9842C52.1769 101.881 49.443 99.5444 49.0797 103.026C47.4421 118.719 71.2933 145.626 95.9022 154.5C104.696 157.671 121.221 154.759 121.221 154.759L167.809 143.285L174.152 136.135Z" fill="#605039"/>
<path d="M221.062 240.665C226.481 236.127 223.063 222.79 223.152 214.956C223.371 195.515 234.894 166.357 233.381 150.097C232.613 141.847 228.588 134.243 218.258 128.646C211.375 124.917 187.719 124.917 180.837 128.646C170.506 134.243 166.482 141.847 165.714 150.097C164.2 166.357 175.723 195.515 175.943 214.956C176.031 222.79 172.613 236.127 178.032 240.665C182.376 244.304 191.004 248.83 199.678 248.859C208.02 248.887 216.405 244.566 221.062 240.665Z" fill="#72470B"/>
<path d="M175.851 142.269C175.851 142.269 177.924 143.365 177.395 147.231C176.833 151.333 175.09 152.414 175.09 152.414C175.09 152.414 162.719 152.857 147.357 153.607C133.204 154.298 117.906 159.178 109.891 158.999C97.889 158.731 82.8674 151.891 83.3402 136.225C83.6698 125.306 94.8352 105.154 109.746 104.966C119.285 104.845 101.901 120.193 102.948 132.246C103.263 135.873 105.021 139.933 107.473 139.947C118.135 140.007 130.378 103.606 151.342 103.412C157.6 103.354 150.513 110.992 144.501 119.793C140.678 125.389 138.422 130.919 137.542 134.184C136.624 137.594 136.703 139.432 137.566 139.598C140.965 140.257 148.743 124.871 159.136 124.703C161.49 124.665 161.168 128.088 158.542 131.106C156.028 133.993 154.38 137.57 155.629 140.184C156.679 142.381 161.372 142.078 165.973 142.075C170.966 142.073 175.851 142.269 175.851 142.269Z" fill="#907A5A"/>
<path d="M232.915 142.89C237.516 142.893 242.209 143.196 243.259 140.999C244.509 138.384 242.86 134.808 240.347 131.92C237.72 128.902 237.399 125.48 239.752 125.518C250.146 125.686 257.923 141.071 261.323 140.413C262.185 140.246 262.265 138.409 261.346 134.999C260.466 131.734 258.211 126.204 254.388 120.607C248.375 111.807 241.288 104.169 247.547 104.227C268.511 104.421 280.753 140.821 291.415 140.762C293.867 140.748 295.626 136.688 295.941 133.061C296.988 121.008 279.603 105.66 289.142 105.781C304.053 105.969 315.218 126.12 315.548 137.04C316.021 152.706 300.999 159.546 288.997 159.814C280.982 159.993 265.684 155.113 251.532 154.422C236.17 153.672 223.799 153.229 223.799 153.229C223.799 153.229 222.055 152.148 221.494 148.046C220.964 144.18 223.037 143.084 223.037 143.084C223.037 143.084 227.922 142.887 232.915 142.89Z" fill="#907A5A"/>
<path d="M180.844 195.659C181.54 200.458 180.266 204.616 177.998 204.945C175.73 205.274 174.418 201.65 173.722 196.851C173.026 192.051 173.21 187.894 175.477 187.564C177.745 187.235 180.148 190.859 180.844 195.659Z" fill="#4B2D03"/>
<path d="M189.558 234.878C187.355 235.76 185.641 239.133 185.567 241.369C185.426 245.653 189.243 248.661 199.973 248.726C209.51 248.784 213.611 245.382 213.478 241.37C213.404 239.134 211.69 235.761 209.487 234.879C207.439 234.06 203.453 235.445 199.525 235.44C195.549 235.434 191.631 234.048 189.558 234.878Z" fill="#4B2D03"/>
<path d="M223.411 188.379C225.679 188.708 225.863 192.866 225.167 197.666C224.471 202.465 223.158 206.089 220.89 205.76C218.622 205.431 217.348 201.273 218.044 196.474C218.74 191.674 221.143 188.05 223.411 188.379Z" fill="#4B2D03"/>
</g>
</g>
<defs>
<clipPath id="clip0_17_112">
<rect width="400" height="300" fill="white"/>
</clipPath>
<clipPath id="clip1_17_112">
<rect width="301" height="199" fill="white" transform="translate(49 50)"/>
</clipPath>
</defs>
</svg>
