<svg width="389" height="392" viewBox="0 0 389 392" fill="none" xmlns="http://www.w3.org/2000/svg">
<g clip-path="url(#clip0_36_137)">
<path d="M59.0105 142.853C59.0105 142.853 54.2443 72.099 62.001 65.2976C66.6496 61.2215 96.3096 71.7632 96.3096 71.7632C96.3096 71.7632 103.645 36.9214 111.648 34.1114C121.314 30.7167 160.582 49.6336 160.582 49.6336" stroke="#F01ACE" stroke-width="7" stroke-miterlimit="10" stroke-linecap="round"/>
<path d="M83.228 151.957C83.228 151.957 82.6856 101.201 87.3763 93.501C90.6223 88.1727 116.483 96.3838 116.483 96.3838C116.483 96.3838 116.75 75.2319 122.475 69.5718C126.102 65.9868 147.251 77.1296 147.251 77.1296" stroke="#F01ACE" stroke-width="5" stroke-miterlimit="10" stroke-linecap="round"/>
<path d="M198.781 52.9239C198.781 52.9239 264.98 27.8946 273.714 33.3725C278.948 36.6554 277.438 68.1681 277.438 68.1681C277.438 68.1681 312.83 65.1356 317.823 72.003C323.854 80.299 318.27 125.079 318.27 125.079" stroke="#F01ACE" stroke-width="7" stroke-miterlimit="10" stroke-linecap="round"/>
<path d="M197.073 78.7979C197.073 78.7979 245.392 63.6036 254.099 65.8792C260.125 67.454 259.744 94.6467 259.744 94.6467C259.744 94.6467 280.022 88.7877 287.08 92.6462C291.55 95.0902 287.01 118.609 287.01 118.609" stroke="#F01ACE" stroke-width="5" stroke-miterlimit="10" stroke-linecap="round"/>
<path d="M328.257 159.465C328.257 159.465 373.381 214.068 371.051 224.13C369.656 230.161 339.438 238.988 339.438 238.988C339.438 238.988 353.801 271.55 348.945 278.518C343.079 286.936 298.246 297.022 298.246 297.022" stroke="#F01ACE" stroke-width="7" stroke-miterlimit="10" stroke-linecap="round"/>
<path d="M303.294 166.269C303.294 166.269 333.33 207.125 334.013 216.12C334.485 222.344 308.71 230.836 308.71 230.836C308.71 230.836 320.827 248.151 319.481 256.097C318.628 261.13 294.967 264.483 294.967 264.483" stroke="#F01ACE" stroke-width="5" stroke-miterlimit="10" stroke-linecap="round"/>
<path d="M267.398 317.614C267.398 317.614 229.315 377.389 219.046 378.244C212.892 378.757 195.28 352.616 195.28 352.616C195.28 352.616 168.737 376.287 160.636 373.784C150.849 370.761 127.45 331.566 127.45 331.566" stroke="#F01ACE" stroke-width="7" stroke-miterlimit="10" stroke-linecap="round"/>
<path d="M253.313 295.869C253.313 295.869 223.678 337.037 215.344 340.441C209.576 342.797 193.639 320.793 193.639 320.793C193.639 320.793 180.893 337.656 172.934 338.802C167.893 339.528 157.483 317.971 157.483 317.971" stroke="#F01ACE" stroke-width="5" stroke-miterlimit="10" stroke-linecap="round"/>
<path d="M100.461 307.486C100.461 307.486 31.8475 290.234 27.7872 280.742C25.3538 275.054 44.5114 250.018 44.5114 250.018C44.5114 250.018 13.7118 232.289 13.5149 223.793C13.277 213.529 43.0721 179.932 43.0721 179.932" stroke="#F01ACE" stroke-width="7" stroke-miterlimit="10" stroke-linecap="round"/>
<path d="M116.576 287.197C116.576 287.197 68.2422 272.078 62.3829 265.233C58.3283 260.496 74.1017 238.365 74.1017 238.365C74.1017 238.365 54.1116 231.595 50.5075 224.391C48.2247 219.829 65.326 203.094 65.326 203.094" stroke="#F01ACE" stroke-width="5" stroke-miterlimit="10" stroke-linecap="round"/>
<path d="M150.711 62.2835L183.395 162.519L159.026 66.4754L210.318 27.5691L150.711 62.2835ZM203.222 72.184L246.846 76.2149L205.215 116.863L226.265 128.505L190.157 197.704L138.492 59.1388L227.199 12.6102L203.222 72.184Z" fill="#F01ACE"/>
<path d="M302.188 117.637L215.887 177.983L300.583 126.829L352.54 164.807L302.188 117.637ZM307.883 170.895L316.62 213.927L265.787 185.725L260.742 209.293L184.234 194.644L301.665 105.001L371.698 176.683L307.883 170.895Z" fill="#F01ACE"/>
<path d="M300.815 278.554L215.844 216.392L291.623 280.025L272.682 341.64L300.815 278.554ZM252.427 301.29L214.673 323.581L224.757 266.214L200.885 269.104L189.84 191.811L312.566 273.945L267.705 363.666L252.427 301.29Z" fill="#F01ACE"/>
<path d="M145.905 327.858L178.999 227.738L141.7 319.534L77.3916 320.307L145.905 327.858ZM109.532 288.629L76.8302 259.415L134.398 251.488L124.363 229.588L194.405 195.398L153.87 337.663L54.9513 322.296L109.532 288.629Z" fill="#F01ACE"/>
<path d="M52.3056 195.221L157.513 194.932L58.8497 188.584L37.7595 127.686L52.3056 195.221ZM77.9072 148.197L95.1962 107.84L120.921 160.06L138.466 143.573L192.989 199.324L45.5502 205.904L28.7737 106.981L77.9072 148.197Z" fill="#F01ACE"/>
</g>
<defs>
<clipPath id="clip0_36_137">
<rect width="366" height="370" fill="white" transform="translate(22.7814) rotate(3.53)"/>
</clipPath>
</defs>
</svg>
