<svg width="500" height="500" viewBox="0 0 500 500" fill="none" xmlns="http://www.w3.org/2000/svg">
<g clip-path="url(#clip0_17_267)">
<mask id="mask0_17_267" style="mask-type:alpha" maskUnits="userSpaceOnUse" x="0" y="0" width="500" height="500">
<circle cx="250" cy="250" r="250" fill="#D9D9D9"/>
</mask>
<g mask="url(#mask0_17_267)">
<path d="M500 0L0 500H500V0Z" fill="#FFDD00"/>
<path d="M0 500L500 8.74228e-05L8.74228e-05 0L0 500Z" fill="#217DE6"/>
<path d="M250.001 152L279.073 218.273L348 226.866L297.04 276.417L310.567 348L250 312.352L189.433 348L202.96 276.417L152 226.866L220.927 218.273L250.001 152Z" fill="white"/>
<path d="M123 80L135.756 109.079L166 112.849L143.64 134.591L149.575 166L123 150.359L96.4246 166L102.36 134.591L80 112.849L110.244 109.079L123 80Z" fill="white"/>
<path d="M377 80L389.756 109.079L420 112.849L397.64 134.591L403.575 166L377 150.359L350.425 166L356.36 134.591L334 112.849L364.244 109.079L377 80Z" fill="white"/>
<path d="M123 334L135.756 363.079L166 366.849L143.64 388.591L149.575 420L123 404.359L96.4246 420L102.36 388.591L80 366.849L110.244 363.079L123 334Z" fill="white"/>
<path d="M377 334L389.756 363.079L420 366.849L397.64 388.591L403.575 420L377 404.359L350.425 420L356.36 388.591L334 366.849L364.244 363.079L377 334Z" fill="white"/>
</g>
</g>
<defs>
<clipPath id="clip0_17_267">
<rect width="500" height="500" fill="white"/>
</clipPath>
</defs>
</svg>
