<?xml version="1.0" encoding="UTF-8" standalone="no" ?>
<!DOCTYPE svg PUBLIC "-//W3C//DTD SVG 1.1//EN" "http://www.w3.org/Graphics/SVG/1.1/DTD/svg11.dtd">
<svg xmlns="http://www.w3.org/2000/svg" xmlns:xlink="http://www.w3.org/1999/xlink" version="1.1" width="400" height="300" viewBox="0 0 400 300" xml:space="preserve">
<desc>Created with Fabric.js 5.3.0</desc>
<defs>
</defs>
<g transform="matrix(5 0 0 -3.75 200 150)" id="FKmF5oVsxmPITQCcu64xD"  >
<path style="stroke: none; stroke-width: 0; stroke-dasharray: none; stroke-linecap: butt; stroke-dashoffset: 0; stroke-linejoin: miter; stroke-miterlimit: 4; fill: rgb(33,125,230); fill-rule: nonzero; opacity: 1;"  transform=" translate(-40, -40)" d="M 0 0 L 80 80 L 0 80 L 0 0 z" stroke-linecap="round" />
</g>
<g transform="matrix(-5 0 0 3.75 200 150)" id="SLD0HeV6ie91nbYluqLA7"  >
<path style="stroke: none; stroke-width: 0; stroke-dasharray: none; stroke-linecap: butt; stroke-dashoffset: 0; stroke-linejoin: miter; stroke-miterlimit: 4; fill: rgb(255,221,0); fill-rule: nonzero; opacity: 1;"  transform=" translate(-40, -40)" d="M 0 0 L 80 80 L 0 80 L 0 0 z" stroke-linecap="round" />
</g>
<g transform="matrix(0.9802722615 0 0 1.0307190773 200 151.9833700878)" id="SSe_zqRlNjdlvp2LPI2vR"  >
<path style="stroke: rgb(34,245,71); stroke-width: 0; stroke-dasharray: none; stroke-linecap: butt; stroke-dashoffset: 0; stroke-linejoin: miter; stroke-miterlimit: 4; fill: rgb(255,255,255); fill-rule: nonzero; opacity: 1;"  transform=" translate(-44.8854891945, -42.6886442374)" d="M 44.88578 0 L 58.20126 28.86828 L 89.77098 32.611329999999995 L 66.43055 54.19579999999999 L 72.6262 85.37727999999998 L 44.88549 69.84917999999999 L 17.144779999999997 85.37727999999998 L 23.340429999999998 54.195799999999984 L -3.552713678800501e-15 32.61132999999998 L 31.569719999999997 28.86827999999998 z" stroke-linecap="round" />
</g>
<g transform="matrix(0.7129252683 0 0 0.7496139488 280 206)" id="LB8bFTmYZ3kOfbcaas8Fe"  >
<path style="stroke: rgb(34,245,71); stroke-width: 0; stroke-dasharray: none; stroke-linecap: butt; stroke-dashoffset: 0; stroke-linejoin: miter; stroke-miterlimit: 4; fill: rgb(255,255,255); fill-rule: nonzero; opacity: 1;"  transform=" translate(-44.88549, -42.68864)" d="M 44.88578 0 L 58.20126 28.86828 L 89.77098 32.611329999999995 L 66.43055 54.19579999999999 L 72.6262 85.37727999999998 L 44.88549 69.84917999999999 L 17.144779999999997 85.37727999999998 L 23.340429999999998 54.195799999999984 L -3.552713678800501e-15 32.61132999999998 L 31.569719999999997 28.86827999999998 z" stroke-linecap="round" />
</g>
<g transform="matrix(0.7129252683 0 0 0.7496139488 120.000000001 93.9999999993)" id="FWDhcXUzbSZzhFQdFMs_y"  >
<path style="stroke: rgb(34,245,71); stroke-width: 0; stroke-dasharray: none; stroke-linecap: butt; stroke-dashoffset: 0; stroke-linejoin: miter; stroke-miterlimit: 4; fill: rgb(255,255,255); fill-rule: nonzero; opacity: 1;"  transform=" translate(-44.88549, -42.68864)" d="M 44.88578 0 L 58.20126 28.86828 L 89.77098 32.611329999999995 L 66.43055 54.19579999999999 L 72.6262 85.37727999999998 L 44.88549 69.84917999999999 L 17.144779999999997 85.37727999999998 L 23.340429999999998 54.195799999999984 L -3.552713678800501e-15 32.61132999999998 L 31.569719999999997 28.86827999999998 z" stroke-linecap="round" />
</g>
<g transform="matrix(0.4678572073 0 0 0.4919341539 345 259)" id="lcUqsdq19lvFnNFcQ4Jnu"  >
<path style="stroke: rgb(34,245,71); stroke-width: 0; stroke-dasharray: none; stroke-linecap: butt; stroke-dashoffset: 0; stroke-linejoin: miter; stroke-miterlimit: 4; fill: rgb(255,255,255); fill-rule: nonzero; opacity: 1;"  transform=" translate(-44.88549, -42.68864)" d="M 44.88578 0 L 58.20126 28.86828 L 89.77098 32.611329999999995 L 66.43055 54.19579999999999 L 72.6262 85.37727999999998 L 44.88549 69.84917999999999 L 17.144779999999997 85.37727999999998 L 23.340429999999998 54.195799999999984 L -3.552713678800501e-15 32.61132999999998 L 31.569719999999997 28.86827999999998 z" stroke-linecap="round" />
</g>
<g transform="matrix(0.4678572073 0 0 0.4919341539 54.9999999997 40.9999999995)" id="7ia9hCu8rqAbafXm_Rzdo"  >
<path style="stroke: rgb(34,245,71); stroke-width: 0; stroke-dasharray: none; stroke-linecap: butt; stroke-dashoffset: 0; stroke-linejoin: miter; stroke-miterlimit: 4; fill: rgb(255,255,255); fill-rule: nonzero; opacity: 1;"  transform=" translate(-44.88549, -42.68864)" d="M 44.88578 0 L 58.20126 28.86828 L 89.77098 32.611329999999995 L 66.43055 54.19579999999999 L 72.6262 85.37727999999998 L 44.88549 69.84917999999999 L 17.144779999999997 85.37727999999998 L 23.340429999999998 54.195799999999984 L -3.552713678800501e-15 32.61132999999998 L 31.569719999999997 28.86827999999998 z" stroke-linecap="round" />
</g>
</svg>