<svg version="1.1" xmlns="http://www.w3.org/2000/svg" xmlns:xlink="http://www.w3.org/1999/xlink" width="234.96356" height="145.74822" viewBox="0,0,234.96356,145.74822"><defs><linearGradient x1="165.75886" y1="146.23975" x2="165.75886" y2="233.14613" gradientUnits="userSpaceOnUse" id="color-1"><stop offset="0" stop-color="#dcbbf0"/><stop offset="1" stop-color="#a5d6f7"/></linearGradient></defs><g transform="translate(-125.74622,-116.38304)"><g data-paper-data="{&quot;isPaintingLayer&quot;:true}" fill-rule="nonzero" stroke-linejoin="miter" stroke-miterlimit="10" stroke-dasharray="" stroke-dashoffset="0" style="mix-blend-mode: normal"><path d="M230.15023,126.7645c0,0 -0.82273,-10.40622 12.29063,-10.38141c16.5586,0.03133 24.08437,14.25641 24.08437,14.25641z" fill="#998cbd" stroke="#ff0000" stroke-width="0" stroke-linecap="round"/><path d="M198.101,139.02153c0,0 -3.63467,-4.35693 -6.30401,-8.91743c-2.5707,-4.39198 -3.26752,-8.89699 -5.17296,-8.96875c-1.66879,-0.06285 -4.97811,6.06276 -7.14865,6.11669c-1.81126,0.04501 -5.24963,-6.9031 -7.29184,-6.6758c-13.20918,1.47022 -45.84197,40.83538 -46.42823,74.60342c-0.3739,21.53625 10.76742,46.20277 35.08281,47.2836c36.59191,1.62652 37.26287,-103.44173 37.26287,-103.44173z" fill="#ffffff" stroke="#6eff00" stroke-width="0" stroke-linecap="round"/><path d="M182.44118,155.04758c0,0 -3.30097,-2.4603 -4.88059,-3.91096c-1.61645,-1.48449 -4.71016,-4.89686 -4.71016,-4.89686c0,0 -24.42935,28.40565 -23.76039,54.7895c0.83725,33.02181 21.02018,32.11442 21.02018,32.11442z" fill="url(#color-1)" stroke="#6eff00" stroke-width="0" stroke-linecap="round"/><path d="M193.83225,251.95885l-4.82758,6.89656c0,0 -3.21246,-2.20021 -7.46838,-5.96812c-19.1354,-16.94121 -19.61523,-37.63756 -19.59617,-53.42402c0.03279,-27.15607 25.52202,-74.34854 78.08431,-74.30982c40.96556,0.03017 76.89429,10.45171 88.28522,65.22368c11.30027,37.15761 -29.13256,71.75414 -29.13256,71.75414l-9.48276,-17.75862z" fill="#2e2e2e" stroke="#6eff00" stroke-width="0" stroke-linecap="round"/><path d="M183.64128,173.69336c0,0 -3.16685,11.44536 -3.76313,20.17451c-0.77335,11.32125 1.00451,19.30825 1.00451,19.30825c0,0 -5.36016,6.76143 -5.03695,16.32567c0.70908,20.98214 27.88188,31.68811 55.91716,31.6697c33.64861,-0.02209 58.60255,-15.58158 58.60255,-15.58158l5.68966,-14.65518v-21.89655l-6.89655,-14.82759l-57.24138,-35.51724z" fill="#f6deac" stroke="#ff0000" stroke-width="0" stroke-linecap="round"/><path d="M296.02783,155.11909c0,0 -2.66405,2.53012 -4.80262,5.1899c-2.23768,2.78306 -3.54426,7.33042 -3.54426,7.33042l-12.66938,-10.1355l11.62601,-10.73171z" fill="#dcbbf0" stroke="#ff0000" stroke-width="0" stroke-linecap="round"/><path d="M266.54498,150.70383c0,0 5.9916,-7.85495 12.08367,-15.2673c6.56803,-7.99146 8.85531,-13.25769 11.38635,-13.31726c3.81407,-0.08976 10.50117,8.85095 11.01843,8.9806c1.10505,0.27696 2.7283,-1.91413 5.20151,-4.22931c2.10643,-1.97184 3.82844,-4.38414 5.67212,-4.54008c2.53199,-0.21416 53.09302,35.17345 48.50905,84.76779c-2.80593,30.35762 -15.76111,42.98742 -31.89443,42.37118c-9.37755,-0.35819 -23.79609,-6.2107 -23.67744,-19.46476c0.18422,-20.57818 8.76591,-25.68798 8.15165,-40.72407c-0.97562,-23.8819 -26.48391,-39.12133 -26.48391,-39.12133l-8.16832,8.71287z" fill="#ffffff" stroke="#ff0000" stroke-width="0" stroke-linecap="round"/><path d="M218.4939,174.56771c0,0 0.05308,5.93599 1.44815,11.14678c1.61235,6.0224 4.32866,9.91449 4.32866,9.91449c0,0 3.97338,-2.7933 7.56302,-7.40692c3.0653,-3.93971 5.91619,-9.32175 5.91619,-9.32175l-6.25821,-19.25602z" fill="#ffee00" stroke="#0900ff" stroke-width="0" stroke-linecap="round"/><path d="M219.6974,177.27558c0,-4.22069 3.42154,-7.64223 7.64223,-7.64223c4.22069,0 7.64223,3.42154 7.64223,7.64223c0,4.22069 -3.42154,7.64223 -7.64223,7.64223c-4.22069,0 -7.64223,-3.42154 -7.64223,-7.64223z" fill="#000000" stroke="#0900ff" stroke-width="0" stroke-linecap="butt"/><path d="M186.44988,194.8008l-10.38741,-2.79661l9.18886,6.6586z" fill="#a5d6f7" stroke="#0900ff" stroke-width="0" stroke-linecap="round"/><path d="M184.31913,206.12042l-11.71913,4.39467l12.38499,-0.9322z" fill="#a5d6f7" stroke="#0900ff" stroke-width="0" stroke-linecap="round"/><path d="M187.64843,219.43761l-8.78935,7.99031l9.85472,-4.52785z" fill="#a5d6f7" stroke="#0900ff" stroke-width="0" stroke-linecap="round"/><path d="M273.41114,205.58773l10.12107,-0.13317l-9.72155,4.12833z" fill="#dcbbf0" stroke="#0900ff" stroke-width="0" stroke-linecap="round"/><path d="M272.21259,218.77175l9.72155,5.1937l-11.31961,-0.9322z" fill="#dcbbf0" stroke="#0900ff" stroke-width="0" stroke-linecap="round"/><path d="M185.11816,191.60468l33.15981,13.18402c0,0 2.24747,27.39087 -15.44794,26.63438c-25.85246,-1.1052 -17.71186,-39.8184 -17.71186,-39.8184z" fill="#ffffff" stroke="#ff00f2" stroke-width="0" stroke-linecap="round"/><path d="M253.56853,196.66521l-24.37046,7.99031c0,0 -4.27454,31.91961 19.84262,31.56174c30.63521,-0.45459 26.23487,-36.75545 26.23487,-36.75545z" fill="#ffffff" stroke="#ff00f2" stroke-width="0" stroke-linecap="round"/><path d="M196.69229,207.42726c-0.0453,5.68671 -2.92533,10.27085 -6.43272,10.23896c-3.50739,-0.03189 -6.31398,-4.66774 -6.26868,-10.35445c0.0453,-5.68671 2.92533,-10.27085 6.43272,-10.23896c3.50739,0.03189 6.31398,4.66774 6.26868,10.35445z" fill="#dcbbf0" stroke="#ff00f2" stroke-width="0" stroke-linecap="butt"/><path d="M241.79893,213.19112c-0.0453,5.61861 -2.92533,10.14785 -6.43273,10.11634c-3.5074,-0.03151 -6.31397,-4.61184 -6.26868,-10.23044c0.0453,-5.61861 2.92532,-10.14785 6.43272,-10.11634c3.5074,0.03151 6.31398,4.61184 6.26868,10.23044z" fill="#a5d6f7" stroke="#ff00f2" stroke-width="0" stroke-linecap="butt"/><path d="M233.12404,156.10715l-50.34483,13.7931l-2.58621,9.31034c0,0 1.1874,-1.71406 3.13786,-3.23479c1.66682,-1.29959 3.24146,-2.11004 3.24146,-2.11004c0,0 -1.09632,4.55936 -1.11238,11.03803c-0.01562,6.30433 0.93996,10.34128 0.93996,10.34128c0,0 11.99336,-0.87504 20.96104,-6.95661c10.45779,-7.09211 23.69413,-27.35373 23.69413,-27.35373c0,0 3.51122,41.28024 36.89611,40.17323c12.30478,-0.40802 17.60433,-5.2528 17.60433,-5.2528c0,0 8.39754,10.92589 8.0405,25.22044c-0.36848,14.75223 -3.33294,24.63962 -3.33294,24.63962l6.41026,-1.02564l1.53846,-37.17948l-8.33333,-15.25641c0,0 14.16715,-17.66885 -12.65494,-36.96319c-29.98702,-21.57102 -44.09948,0.81665 -44.09948,0.81665z" fill="#2e2e2e" stroke="#6eff00" stroke-width="0" stroke-linecap="round"/><path d="M285.6319,193.89714c0,0 0.42818,-2.88786 0.38726,-6.35407c-0.14071,-11.91937 -14.39681,-20.02714 -21.95318,-20.01505c-10.15846,0.01626 -11.6458,5.83636 -11.51834,8.71866c0.37578,8.49718 7.90351,13.1973 13.8151,13.32595c3.89779,0.08482 5.79106,-2.82287 5.76829,-4.92123c-0.03481,-3.20764 -4.52979,-5.67172 -4.52979,-5.67172" fill="none" stroke="#ffffff" stroke-width="2" stroke-linecap="round"/></g></g></svg>