<svg width="500" height="500" viewBox="0 0 500 500" fill="none" xmlns="http://www.w3.org/2000/svg">
<g clip-path="url(#clip0_7_109)">
<path fill-rule="evenodd" clip-rule="evenodd" d="M250 456C363.771 456 456 363.771 456 250C456 136.229 363.771 44 250 44C136.229 44 44 136.229 44 250C44 363.771 136.229 456 250 456ZM250 500C388.071 500 500 388.071 500 250C500 111.929 388.071 0 250 0C111.929 0 0 111.929 0 250C0 388.071 111.929 500 250 500ZM47.9387 329.743L23.8963 337.293L22.4479 332.691L35.0382 315.396L34.922 315.447L34.7728 315.512C34.6968 315.545 34.621 315.578 34.5455 315.61L32.5496 316.464C31.8542 316.732 31.1473 317.005 30.429 317.28C29.6806 317.541 28.8978 317.812 28.0807 318.093C27.2407 318.382 26.3284 318.681 25.3438 318.99L18.7837 321.05L17.1947 316.003L41.2372 308.453L42.7072 313.123L30.3606 330.272C30.7456 330.113 31.104 329.966 31.4358 329.831C32.2313 329.481 32.931 329.186 33.5348 328.946C34.1386 328.706 34.6659 328.503 35.1166 328.336C35.5602 328.146 35.988 327.987 36.4002 327.857C36.8051 327.705 37.2366 327.557 37.6945 327.413L46.3498 324.695L47.9387 329.743ZM36.1085 291.051C36.7775 289.668 36.9963 288.193 36.7648 286.626C36.635 285.748 36.3816 284.936 36.0046 284.19C35.6039 283.449 35.1323 282.802 34.5898 282.25C34.1115 281.77 33.6023 281.371 33.0625 281.054L35.5246 280.695L34.7721 275.602L15.9275 278.351L16.6695 283.373L19.1399 283.012C18.7007 283.446 18.3204 283.938 17.9988 284.488C17.608 285.128 17.3399 285.858 17.1944 286.679C17.0217 287.481 17.0037 288.344 17.1405 289.27C17.3826 290.909 18.0258 292.306 19.0702 293.464C20.0908 294.625 21.3935 295.478 22.9781 296.022C24.5355 296.547 26.2642 296.671 28.1641 296.394C30.064 296.117 31.6958 295.503 33.0594 294.552C34.4231 293.601 35.4395 292.434 36.1085 291.051ZM31.1328 283.482C31.6892 284.129 32.0376 284.927 32.1779 285.876C32.3148 286.802 32.2102 287.654 31.8642 288.432C31.5147 289.187 30.966 289.825 30.2182 290.346C29.4466 290.871 28.5146 291.213 27.4222 291.372C26.3535 291.528 25.3856 291.463 24.5185 291.177C23.6514 290.892 22.9414 290.437 22.3884 289.815C21.8082 289.172 21.4497 288.387 21.3129 287.461C21.1726 286.512 21.2873 285.646 21.657 284.864C22.003 284.086 22.5517 283.448 23.303 282.951C24.0509 282.429 24.9591 282.091 26.0278 281.935C27.1202 281.775 28.1119 281.837 29.0027 282.119C29.8663 282.381 30.5763 282.836 31.1328 283.482ZM33.6102 261.682L19.1448 262.119L19.2616 265.681L14.6917 265.819L14.5749 262.257L9.75306 262.403L9.58543 257.294L14.4072 257.148L14.2797 253.262L18.8496 253.124L18.9771 257.01L33.4425 256.573L33.6102 261.682ZM14.3558 243.741L33.3813 244.581L33.5916 239.473L14.5661 238.633L14.3558 243.741ZM9.72523 243.32C10.2275 242.79 10.4988 242.033 10.5393 241.05C10.5788 240.091 10.3581 239.325 9.87731 238.751C9.39749 238.153 8.73799 237.836 7.89881 237.799C7.03565 237.76 6.35295 238.007 5.85071 238.537C5.3245 239.066 5.04116 239.823 5.00068 240.806C4.9612 241.765 5.19336 242.544 5.69715 243.143C6.17796 243.716 6.82597 244.021 7.64117 244.057C8.52831 244.096 9.22299 243.851 9.72523 243.32ZM35.4443 222.386C35.1715 224.31 34.5116 225.973 33.4648 227.373C32.3975 228.746 31.0653 229.765 29.4681 230.43C27.8743 231.072 26.1274 231.255 24.2273 230.979C22.3272 230.703 20.7134 230.032 19.3859 228.966C18.038 227.873 17.0426 226.516 16.3998 224.894C15.7604 223.249 15.5771 221.464 15.8499 219.54C16.1194 217.639 16.7877 216.002 17.855 214.629C18.9256 213.232 20.2578 212.213 21.8516 211.572C23.4217 210.927 25.1567 210.742 27.0568 211.018C28.9569 211.294 30.5825 211.967 31.9338 213.036C33.2851 214.105 34.2805 215.463 34.9199 217.107C35.539 218.725 35.7138 220.485 35.4443 222.386ZM31.0267 221.744C31.158 220.817 31.0503 219.953 30.7034 219.151C30.3329 218.345 29.7724 217.682 29.0222 217.16C28.2515 216.612 27.3555 216.263 26.3343 216.115C25.2892 215.963 24.3326 216.043 23.4645 216.353C22.5759 216.636 21.8538 217.114 21.2981 217.785C20.7187 218.452 20.3633 219.249 20.2319 220.176C20.0972 221.127 20.2151 222.005 20.5857 222.81C20.9563 223.616 21.515 224.291 22.2619 224.836C23.0088 225.381 23.9065 225.718 24.9549 225.846C25.9728 226.018 26.9277 225.951 27.8196 225.644C28.6878 225.333 29.4116 224.844 29.991 224.176C30.5467 223.505 30.8919 222.695 31.0267 221.744ZM20.1695 196.404L38.4775 201.647L38.7807 200.573L39.1817 199.153L39.8663 196.727L28.8607 193.575C28.3762 193.437 27.9524 193.215 27.5892 192.912C27.2326 192.585 26.9384 192.214 26.7067 191.798C26.4815 191.359 26.3533 190.885 26.3222 190.377C26.2746 189.839 26.329 189.293 26.4855 188.739C26.6349 188.032 26.9133 187.488 27.3206 187.105C27.7113 186.693 28.2161 186.451 28.8351 186.378C29.454 186.306 30.1788 186.389 31.0094 186.627L41.8419 189.729L43.2307 184.809L32.0175 181.598C30.3794 181.129 28.9381 180.978 27.6937 181.146C26.4327 181.284 25.3917 181.747 24.5707 182.536C23.7561 183.301 23.1532 184.377 22.762 185.762C22.4751 186.779 22.4089 187.808 22.5634 188.851C22.7179 189.894 23.0467 190.849 23.5498 191.717C23.6663 191.918 23.7906 192.109 23.9227 192.29L21.4996 191.692L20.1695 196.404ZM49.8614 167.539C49.2284 168.991 48.2623 170.126 46.9633 170.944C45.6643 171.762 44.1853 172.211 42.5263 172.293C40.8673 172.375 39.1593 172.029 37.4023 171.255C35.6453 170.481 34.2456 169.458 33.2032 168.186C32.1484 166.882 31.4957 165.466 31.2449 163.94C30.9722 162.403 31.1667 160.876 31.8285 159.358C32.2026 158.5 32.6749 157.777 33.2453 157.189C33.8035 156.57 34.4172 156.093 35.0867 155.758C35.6505 155.462 36.2333 155.247 36.835 155.112L34.5504 154.106L36.579 149.453L54.0064 157.131L51.949 161.85L49.672 160.847C49.9617 161.403 50.1823 162.011 50.3337 162.673C50.5016 163.429 50.5591 164.228 50.5061 165.07C50.4312 165.902 50.2163 166.725 49.8614 167.539ZM46.3704 164.467C46.754 163.587 46.8811 162.725 46.7515 161.881C46.622 161.037 46.2606 160.275 45.6673 159.594C45.0617 158.881 44.2537 158.302 43.2434 157.857C42.2551 157.422 41.3061 157.226 40.3963 157.271C39.4961 157.294 38.6935 157.544 37.9885 158.02C37.2615 158.487 36.7061 159.16 36.3225 160.04C35.9484 160.898 35.8371 161.754 35.9886 162.607C36.1278 163.429 36.4892 164.191 37.0729 164.895C37.6565 165.598 38.4425 166.167 39.4309 166.602C40.4411 167.047 41.4122 167.252 42.3439 167.217C43.2537 167.172 44.0563 166.922 44.7517 166.468C45.4568 165.992 45.9963 165.325 46.3704 164.467ZM36.2237 133.411L59.4355 146.484L61.9272 142.021L38.7154 128.948L36.2237 133.411ZM78.7031 117.368C77.7357 118.591 76.6999 119.592 75.5957 120.37C74.5064 121.128 73.3582 121.672 72.1509 121.999C70.9586 122.308 69.7037 122.444 68.3863 122.407L67.4709 117.354C69.4772 117.448 71.0722 117.23 72.2561 116.699C73.4361 116.136 74.4502 115.317 75.2986 114.244C75.76 113.66 76.0941 113.083 76.3011 112.511C76.5042 111.906 76.5597 111.352 76.4676 110.849C76.3755 110.347 76.1229 109.931 75.7098 109.602C75.4093 109.363 75.085 109.212 74.7367 109.15C74.3696 109.072 73.9954 109.081 73.6141 109.176C73.2141 109.257 72.805 109.407 72.3869 109.626C71.95 109.83 71.5115 110.095 71.0714 110.419C70.6125 110.729 70.152 111.099 69.6899 111.528C68.6123 112.388 67.5919 113.079 66.6288 113.601C65.6469 114.108 64.6941 114.423 63.7704 114.547C62.8278 114.655 61.9237 114.58 61.0581 114.321C60.2074 114.042 59.3689 113.574 58.5427 112.917C57.6976 112.244 57.0672 111.436 56.6513 110.491C56.2166 109.532 55.9968 108.513 55.9919 107.436C56.0019 106.339 56.2084 105.246 56.6114 104.156C57.0292 103.047 57.6251 102.003 58.3991 101.024C59.3516 99.8187 60.3259 98.8765 61.322 98.1969C62.2993 97.5024 63.3019 97.0275 64.3299 96.772C65.3727 96.4978 66.4389 96.4262 67.5285 96.5572L67.999 101.303C67.1606 101.28 66.377 101.361 65.6481 101.548C64.9341 101.716 64.2768 102.006 63.6762 102.417C63.0717 102.795 62.5462 103.266 62.0997 103.831C61.6085 104.452 61.2688 105.056 61.0806 105.643C60.8737 106.214 60.8162 106.751 60.9083 107.254C61.0153 107.738 61.2847 108.151 61.7166 108.495C62.0546 108.764 62.422 108.919 62.8189 108.958C63.2157 108.998 63.644 108.94 64.1035 108.785C64.5443 108.614 65.0185 108.363 65.5259 108.03C66.0333 107.698 66.5592 107.304 67.1035 106.847C68.1286 105.976 69.1376 105.261 70.1305 104.701C71.1234 104.142 72.0947 103.765 73.0443 103.57C73.99 103.341 74.918 103.328 75.8283 103.531C76.7198 103.719 77.5693 104.135 78.3767 104.777C79.71 105.838 80.5931 107.063 81.0259 108.45C81.4588 109.837 81.4823 111.298 81.0963 112.831C80.6915 114.349 79.8938 115.861 78.7031 117.368ZM94.0307 97.5438C95.7184 97.086 97.3061 96.1417 98.7937 94.7109C99.4164 94.1119 99.9731 93.4266 100.464 92.655C100.954 91.8833 101.361 91.059 101.685 90.1819C101.992 89.2874 102.18 88.3735 102.25 87.4402L98.1217 86.666C97.9988 87.6833 97.7779 88.5285 97.4587 89.2017C97.1396 89.875 96.6773 90.5027 96.0719 91.085C95.1898 91.9335 94.2624 92.5091 93.2899 92.8119C92.318 93.0806 91.3601 93.0862 90.4162 92.8286C89.8893 92.6728 89.3835 92.4266 88.8988 92.0903L98.6877 82.6751L97.6186 81.5056C96.7075 80.4839 95.6981 79.7066 94.5903 79.1737C93.4826 78.6407 92.3443 78.3536 91.1755 78.3124C90.0074 78.2371 88.8679 78.4174 87.7569 78.8532C86.6294 79.2717 85.5986 79.9301 84.6645 80.8285C83.6613 81.7935 82.9014 82.874 82.385 84.07C81.8692 85.2321 81.6152 86.442 81.623 87.6999C81.6142 88.9405 81.8599 90.1694 82.3601 91.3865C82.8603 92.6037 83.6165 93.7411 84.6285 94.799C85.9393 96.1689 87.412 97.0834 89.0468 97.5422C90.6816 98.0011 92.3429 98.0016 94.0307 97.5438ZM86.7657 89.7964L93.0717 83.7312L92.9721 83.6271C92.4896 83.1922 91.9274 82.9171 91.2856 82.8017C90.6611 82.6698 90.0418 82.6994 89.4276 82.8906C88.8133 83.0818 88.2467 83.427 87.7278 83.9261C86.9667 84.6581 86.4591 85.4294 86.2049 86.24C85.968 87.0339 85.985 87.8501 86.2558 88.6885C86.3757 89.0601 86.5457 89.4294 86.7657 89.7964ZM119.624 76.7692C118.161 77.8581 116.594 78.4853 114.924 78.6508C113.254 78.8164 111.64 78.5522 110.08 77.8582C108.539 77.1499 107.204 76.0342 106.075 74.511C104.96 73.0071 104.287 71.4139 104.056 69.7314C103.829 68.0153 104.036 66.3803 104.677 64.8266C105.318 63.2729 106.37 61.9516 107.833 60.8627C109.2 59.8455 110.638 59.1648 112.145 58.8208C113.653 58.4768 115.053 58.5119 116.346 58.926L116.108 63.3208C115.567 63.1551 114.987 63.078 114.368 63.0897C113.735 63.0821 113.114 63.1706 112.504 63.3553C111.913 63.5256 111.367 63.797 110.867 64.1695C110.077 64.7569 109.518 65.4727 109.187 66.3168C108.862 67.1272 108.769 67.9892 108.908 68.9026C109.048 69.8161 109.432 70.697 110.061 71.5453C110.675 72.3744 111.399 72.9877 112.231 73.3854C113.069 73.7494 113.945 73.9047 114.862 73.8511C115.764 73.7782 116.6 73.4553 117.37 72.8822C117.871 72.5097 118.292 72.0912 118.635 71.6267C118.964 71.1429 119.213 70.6131 119.384 70.0374C119.574 69.4473 119.682 68.828 119.71 68.1796L123.949 69.2434C123.909 70.5595 123.504 71.9078 122.734 73.288C121.951 74.6489 120.914 75.8093 119.624 76.7692ZM136.036 64.2821C137.208 64.3113 138.401 63.9849 139.614 63.3027C140.556 62.7734 141.335 62.1015 141.951 61.2869C142.567 60.4724 142.992 59.5865 143.225 58.6292C143.297 58.336 143.349 58.0448 143.381 57.7555L144.773 59.9894L149.009 57.6076L139.691 40.9989L135.235 43.5042L140.819 53.4568C141.077 53.9173 141.234 54.3935 141.29 54.8852C141.346 55.377 141.309 55.8518 141.181 56.3095C141.052 56.7672 140.826 57.1974 140.502 57.6001C140.165 57.9818 139.757 58.308 139.275 58.5785C138.606 58.9549 137.959 59.1259 137.334 59.0917C136.71 59.0574 136.119 58.8387 135.563 58.4357C134.995 58.0117 134.499 57.4229 134.077 56.6694L128.739 47.1563L124.283 49.6616L130.026 59.8969C130.812 61.2992 131.718 62.3734 132.742 63.1193C133.775 63.8325 134.873 64.2201 136.036 64.2821ZM159.488 52.4354L152.078 34.8921L156.621 32.9728L157.906 35.7817C157.957 35.424 158.035 35.0686 158.139 34.7156C158.418 33.7117 158.867 32.8316 159.486 32.0754C160.126 31.3097 160.889 30.7401 161.773 30.3666C162.149 30.2078 162.528 30.0868 162.909 30.0037C163.291 29.9206 163.622 29.8719 163.903 29.8576L164.828 35.5634C164.506 35.5429 164.139 35.5677 163.726 35.6381C163.303 35.6863 162.893 35.7945 162.495 35.9626C161.965 36.1867 161.509 36.4963 161.129 36.8914C160.762 37.2551 160.487 37.6839 160.305 38.1777C160.113 38.6494 160.016 39.1594 160.013 39.7078C160.032 40.2468 160.158 40.7926 160.392 41.3454L164.23 50.4321L159.488 52.4354ZM171.995 26.9441L178.06 44.9963L182.907 43.3707L176.841 25.3185L171.995 26.9441ZM170.72 22.4733C171.396 22.7528 172.201 22.736 173.134 22.4231C174.044 22.1179 174.681 21.6386 175.043 20.9853C175.429 20.3244 175.488 19.5958 175.22 18.7995C174.945 17.9805 174.47 17.4313 173.793 17.1518C173.109 16.8496 172.301 16.8549 171.368 17.1679C170.458 17.4731 169.814 17.9676 169.436 18.6513C169.073 19.3046 169.022 20.018 169.282 20.7915C169.564 21.6332 170.044 22.1938 170.72 22.4733ZM192.322 40.4897L188.729 26.471L185.275 27.3522L184.14 22.9234L187.593 22.0422L186.395 17.3693L191.349 16.1053L192.547 20.7782L196.314 19.8168L197.449 24.2456L193.682 25.207L197.276 39.2257L192.322 40.4897ZM214.924 35.439L212.593 44.2087L217.725 43.4767L219.783 34.8192L224.971 14.8425L219.197 15.6661L216.848 27.3469C216.75 27.9308 216.647 28.4831 216.54 29.004C216.476 28.8762 216.41 28.748 216.341 28.6192C216.096 28.0966 215.849 27.647 215.6 27.2703L209.432 17.0591L203.694 17.8776L214.924 35.439ZM248.093 32.1693L259.476 7.64931L264.29 7.95886L272.558 33.7424L267.026 33.3867L265.374 27.9776L255.724 27.3571L253.41 32.5112L248.093 32.1693ZM262.789 19.5143L264.014 23.5252L257.629 23.1146L259.298 19.398C259.523 18.8594 259.761 18.3095 260.012 17.7485C260.263 17.1874 260.502 16.6136 260.731 16.027C260.96 15.4165 261.177 14.8292 261.38 14.265L261.386 14.2496C261.531 14.8223 261.685 15.4267 261.847 16.0627C262.021 16.7473 262.186 17.3952 262.341 18.0064C262.52 18.6192 262.669 19.1218 262.789 19.5143ZM286.124 43.3643C287.46 44.1207 288.866 44.6593 290.344 44.9799C291.868 45.3107 293.285 45.3972 294.595 45.2393C295.928 45.0866 297.105 44.691 298.124 44.0527C299.162 43.4429 300.029 42.5996 300.725 41.5227C301.421 40.4457 301.931 39.1444 302.256 37.6187L305.927 20.4016L301.142 19.3633L300.608 21.5169C300.457 21.2566 300.279 21.0017 300.073 20.7522C299.731 20.285 299.309 19.8496 298.806 19.4457C298.331 19.0235 297.783 18.659 297.162 18.3522C296.563 18.0505 295.912 17.8233 295.209 17.6706C293.52 17.3042 291.917 17.3984 290.4 17.9533C288.912 18.4899 287.625 19.4018 286.541 20.6892C285.485 21.9581 284.757 23.5315 284.357 25.4093C283.966 27.2402 284.008 28.9437 284.482 30.52C284.956 32.0963 285.776 33.4286 286.943 34.5167C288.109 35.6049 289.561 36.3373 291.296 36.7139C292.305 36.9328 293.33 36.9587 294.372 36.7918C295.418 36.6015 296.326 36.2581 297.094 35.7618C297.233 35.6686 297.364 35.5719 297.487 35.4716L297.216 36.7459C296.97 37.8961 296.571 38.7917 296.017 39.4328C295.458 40.0974 294.74 40.531 293.863 40.7335C293.008 40.9411 291.972 40.9126 290.752 40.648C290.048 40.4953 289.371 40.2747 288.721 39.9863C288.095 39.7029 287.504 39.366 286.949 38.9755C286.394 38.585 285.918 38.1745 285.518 37.7441L282.994 40.9537C283.74 41.8278 284.783 42.6313 286.124 43.3643ZM295.777 32.7869C294.955 33.0751 294.052 33.1123 293.067 32.8986C292.105 32.6899 291.296 32.2812 290.641 31.6723C290.009 31.0686 289.579 30.3244 289.35 29.4398C289.127 28.5318 289.127 27.5496 289.353 26.4933C289.578 25.4371 289.975 24.5532 290.544 23.8416C291.112 23.1301 291.808 22.6302 292.63 22.342C293.481 22.0354 294.387 21.9865 295.348 22.1951C296.334 22.4089 297.142 22.8176 297.774 23.4214C298.43 24.0302 298.869 24.7887 299.093 25.6967C299.321 26.5813 299.323 27.5517 299.098 28.608C298.868 29.6877 298.468 30.5834 297.899 31.2949C297.33 32.0065 296.623 32.5038 295.777 32.7869ZM322.509 45.7007C320.571 44.9911 319.023 43.9774 317.866 42.6595C316.71 41.3416 315.975 39.8457 315.661 38.172C315.348 36.4983 315.513 34.7699 316.158 32.987C316.656 31.6102 317.339 30.4289 318.206 29.4428C319.073 28.4568 320.063 27.6948 321.176 27.1567C322.298 26.5961 323.492 26.2922 324.76 26.2451C326.058 26.1836 327.361 26.3921 328.668 26.8706C329.885 27.3162 330.931 27.9544 331.804 28.7852C332.686 29.5936 333.351 30.5401 333.801 31.6248C334.282 32.6953 334.529 33.8464 334.543 35.0782C334.557 36.3101 334.309 37.5609 333.798 38.8309L333.226 40.3081L320.471 35.6392C320.385 36.2236 320.389 36.7873 320.483 37.3302C320.671 38.2934 321.1 39.1533 321.77 39.9099C322.472 40.6523 323.397 41.2338 324.546 41.6545C325.335 41.9433 326.101 42.0832 326.845 42.0742C327.588 42.0652 328.442 41.8921 329.406 41.555L330.542 45.6126C329.676 45.9602 328.775 46.1927 327.839 46.3102C326.912 46.4051 325.994 46.4015 325.087 46.2994C324.179 46.1972 323.32 45.9977 322.509 45.7007ZM329.795 35.7169L321.578 32.7092C321.809 32.3497 322.064 32.0341 322.343 31.7625C322.973 31.1497 323.696 30.7753 324.511 30.6391C325.348 30.5112 326.263 30.6287 327.254 30.9917C327.93 31.2392 328.49 31.5974 328.933 32.0662C329.376 32.5351 329.677 33.0796 329.835 33.6999C330.016 34.3284 330.019 34.9556 329.844 35.5815L329.795 35.7169ZM349.432 35.5118L340.674 52.4227L341.663 52.9397L342.971 53.6234L345.205 54.7909L350.469 44.6252C350.701 44.1776 351.001 43.8065 351.37 43.5119C351.76 43.2283 352.181 43.0152 352.634 42.8725C353.107 42.7409 353.595 42.7117 354.098 42.7849C354.633 42.8479 355.156 43.0128 355.666 43.2796C356.326 43.5705 356.803 43.9551 357.096 44.4332C357.421 44.9011 357.558 45.4464 357.505 46.069C357.453 46.6917 357.228 47.3866 356.831 48.1539L351.649 58.1597L356.18 60.5279L361.544 50.1704C362.327 48.6573 362.761 47.2725 362.844 46.0161C362.959 44.7494 362.713 43.6324 362.106 42.6651C361.52 41.7089 360.589 40.8972 359.313 40.2301C358.377 39.7409 357.384 39.4658 356.335 39.4046C355.286 39.3435 354.287 39.4714 353.339 39.7883C353.12 39.8618 352.909 39.9449 352.706 40.0377L353.771 37.7799L349.432 35.5118ZM372.54 71.2232C371.04 70.1851 369.942 68.9003 369.247 67.3686C368.553 65.8369 368.281 64.2188 368.433 62.5142C368.604 60.8233 369.227 59.1964 370.3 57.6336C371.36 56.0905 372.647 54.9379 374.16 54.1757C375.707 53.4074 377.317 53.0769 378.99 53.1842C380.663 53.2915 382.25 53.8642 383.75 54.9022C385.151 55.872 386.257 57.0169 387.068 58.3371C387.879 59.6573 388.298 60.9978 388.324 62.3585L384.099 63.5499C384.081 62.9828 383.967 62.4075 383.756 61.8239C383.559 61.2206 383.275 60.6591 382.904 60.1396C382.552 59.6338 382.12 59.2033 381.607 58.8482C380.798 58.2882 379.942 57.9875 379.039 57.9461C378.169 57.8986 377.325 58.0882 376.508 58.515C375.691 58.9417 374.983 59.5904 374.385 60.4608C373.801 61.3115 373.455 62.196 373.349 63.1145C373.275 64.0269 373.412 64.9093 373.758 65.7618C374.117 66.5945 374.692 67.284 375.481 67.8304C375.995 68.1855 376.526 68.4509 377.075 68.6265C377.637 68.7824 378.218 68.8485 378.816 68.825C379.434 68.815 380.054 68.7185 380.675 68.5352L381.038 72.9021C379.783 73.2884 378.38 73.3389 376.829 73.0535C375.292 72.7484 373.862 72.1383 372.54 71.2232ZM391.238 84.9505L383.04 88.8334L386.911 92.2823L394.846 88.2634L413.439 79.3241L409.085 75.444L398.655 81.1938C398.146 81.496 397.658 81.7745 397.192 82.0291C397.248 81.8976 397.303 81.764 397.357 81.6281C397.597 81.1031 397.781 80.624 397.908 80.1908L401.721 68.8815L397.394 65.0254L391.238 84.9505ZM421.458 117.322C420.284 115.773 419.566 114.132 419.306 112.4C419.08 110.671 419.291 109.003 419.938 107.394C420.6 105.804 421.695 104.428 423.222 103.265C424.75 102.101 426.357 101.421 428.044 101.222C429.764 101.028 431.425 101.272 433.026 101.953C434.642 102.654 436.037 103.779 437.212 105.328C438.372 106.857 439.065 108.486 439.291 110.215C439.532 111.962 439.321 113.63 438.66 115.22C438.017 116.795 436.932 118.165 435.404 119.328C433.877 120.491 432.26 121.179 430.554 121.392C428.848 121.605 427.187 121.361 425.571 120.661C423.989 119.965 422.618 118.852 421.458 117.322ZM425.01 114.618C425.576 115.364 426.264 115.895 427.077 116.211C427.908 116.513 428.772 116.58 429.668 116.411C430.597 116.246 431.472 115.851 432.293 115.226C433.134 114.586 433.748 113.847 434.136 113.009C434.558 112.175 434.725 111.323 434.639 110.454C434.571 109.57 434.254 108.756 433.689 108.01C433.109 107.245 432.403 106.712 431.571 106.41C430.74 106.108 429.869 106.032 428.959 106.182C428.048 106.332 427.18 106.736 426.355 107.395C425.519 108.001 424.898 108.731 424.49 109.584C424.102 110.422 423.942 111.283 424.01 112.167C424.096 113.036 424.43 113.853 425.01 114.618ZM446.182 127.146L433.953 134.474L434.526 135.432L435.283 136.699L436.594 138.893L448.823 131.565L450.928 135.088L454.634 132.867L452.528 129.344L453.764 128.604C454.155 128.37 454.511 128.241 454.832 128.216C455.173 128.179 455.48 128.248 455.751 128.421C456.055 128.602 456.324 128.889 456.558 129.28C456.694 129.507 456.78 129.791 456.816 130.133C456.886 130.483 456.918 130.841 456.913 131.208L460.901 130.581C461.041 129.881 461.034 129.144 460.879 128.37C460.744 127.583 460.462 126.829 460.031 126.108C459.39 125.037 458.593 124.241 457.64 123.722C456.698 123.223 455.68 122.993 454.586 123.033C453.492 123.074 452.44 123.396 451.431 124L449.887 124.926L448.428 122.484L444.723 124.705L446.182 127.146ZM449.463 163.11L473.069 154.291L476.902 164.541C477.491 166.115 477.75 167.529 477.682 168.785C477.644 170.054 477.292 171.134 476.625 172.023C475.959 172.913 475.018 173.585 473.804 174.038C472.455 174.542 471.205 174.625 470.054 174.287C469.231 174.045 468.495 173.6 467.848 172.952C467.846 173.655 467.758 174.331 467.584 174.979C467.316 175.976 466.846 176.843 466.174 177.581C465.502 178.319 464.637 178.885 463.581 179.28C462.411 179.717 461.306 179.912 460.264 179.866C459.244 179.811 458.303 179.522 457.441 178.999C456.579 178.476 455.802 177.767 455.109 176.873C454.447 175.993 453.884 174.935 453.422 173.698L449.463 163.11ZM455.663 166.328L457.73 171.858C457.999 172.577 458.328 173.147 458.715 173.566C459.133 173.999 459.617 174.266 460.168 174.368C460.718 174.47 461.297 174.407 461.904 174.18C462.489 173.962 462.929 173.631 463.224 173.187C463.519 172.744 463.667 172.215 463.668 171.6C463.699 170.999 463.577 170.327 463.299 169.585L461.294 164.224L455.663 166.328ZM465.307 162.725L467.098 167.513C467.325 168.12 467.635 168.606 468.028 168.972C468.421 169.337 468.85 169.561 469.316 169.643C469.791 169.747 470.287 169.703 470.804 169.51C471.636 169.199 472.176 168.69 472.424 167.982C472.672 167.275 472.594 166.382 472.19 165.303L470.501 160.784L465.307 162.725ZM461.74 196.062C461.166 197.488 461.046 198.974 461.383 200.522C461.571 201.39 461.878 202.183 462.305 202.901C462.754 203.614 463.268 204.228 463.846 204.742C464.356 205.188 464.89 205.552 465.45 205.832L463.018 206.356L464.111 211.387L482.726 207.371L481.649 202.411L479.209 202.937C479.618 202.475 479.964 201.958 480.248 201.387C480.595 200.723 480.813 199.976 480.903 199.146C481.022 198.335 480.982 197.472 480.783 196.558C480.432 194.939 479.696 193.588 478.577 192.504C477.48 191.414 476.124 190.651 474.506 190.215C472.917 189.796 471.184 189.79 469.307 190.195C467.431 190.6 465.844 191.322 464.547 192.363C463.251 193.404 462.315 194.637 461.74 196.062ZM467.212 203.279C466.614 202.671 466.213 201.898 466.009 200.96C465.81 200.046 465.858 199.188 466.15 198.389C466.449 197.612 466.953 196.939 467.664 196.368C468.399 195.792 469.305 195.388 470.385 195.155C471.44 194.927 472.41 194.927 473.295 195.153C474.179 195.38 474.918 195.785 475.511 196.369C476.133 196.972 476.543 197.73 476.742 198.645C476.946 199.583 476.889 200.454 476.573 201.259C476.28 202.059 475.776 202.733 475.059 203.28C474.348 203.851 473.465 204.25 472.409 204.478C471.33 204.711 470.337 204.716 469.429 204.495C468.55 204.291 467.811 203.886 467.212 203.279ZM466.329 229.743C466.223 228.356 466.431 227.137 466.952 226.087C467.499 225.06 468.314 224.23 469.397 223.596C470.506 222.984 471.862 222.619 473.466 222.5L485.169 221.632L485.559 226.729L474.681 227.536C473.819 227.6 473.076 227.799 472.452 228.134C471.852 228.468 471.404 228.91 471.109 229.461C470.815 230.013 470.696 230.671 470.755 231.437C470.797 231.987 470.92 232.496 471.124 232.962C471.352 233.426 471.647 233.813 472.008 234.124C472.368 234.434 472.783 234.668 473.253 234.825C473.722 234.983 474.22 235.042 474.747 235.003L486.127 234.16L486.517 239.257L467.525 240.665L467.155 235.819L469.767 235.504C469.519 235.353 469.277 235.182 469.041 234.993C468.272 234.376 467.648 233.617 467.17 232.713C466.692 231.81 466.411 230.82 466.329 229.743ZM494.579 254.065L467.988 252.448L467.924 253.563L467.839 255.036L467.693 257.552L479.12 258.247C479.623 258.277 480.085 258.402 480.505 258.619C480.924 258.861 481.291 259.16 481.607 259.516C481.922 259.896 482.149 260.33 482.289 260.82C482.452 261.335 482.517 261.879 482.483 262.455C482.49 263.176 482.335 263.768 482.02 264.23C481.728 264.717 481.287 265.063 480.698 265.267C480.11 265.472 479.384 265.548 478.522 265.496L467.274 264.812L466.98 269.915L478.622 270.623C480.323 270.727 481.763 270.562 482.942 270.128C484.143 269.721 485.06 269.043 485.692 268.096C486.322 267.172 486.678 265.992 486.761 264.554C486.822 263.5 486.665 262.48 486.289 261.496C485.913 260.511 485.386 259.65 484.707 258.911C484.57 258.761 484.428 258.621 484.282 258.488L494.288 259.097L494.579 254.065ZM465.637 281.288L484.442 284.293L483.653 289.344L464.848 286.339L465.637 281.288ZM487.928 287.402C488.08 286.43 488.435 285.709 488.995 285.239C489.554 284.769 490.272 284.605 491.149 284.745C491.955 284.873 492.564 285.25 492.976 285.875C493.409 286.527 493.551 287.328 493.403 288.276C493.251 289.249 492.883 289.968 492.301 290.434C491.741 290.903 491.035 291.07 490.182 290.934C489.353 290.801 488.733 290.41 488.325 289.762C487.912 289.137 487.78 288.35 487.928 287.402ZM482.061 299.371L463.635 294.557L463.357 295.638L462.989 297.067L462.362 299.508L473.438 302.402C473.925 302.529 474.354 302.74 474.724 303.036C475.088 303.354 475.391 303.718 475.632 304.129C475.868 304.562 476.007 305.033 476.05 305.54C476.11 306.077 476.068 306.624 475.925 307.182C475.792 307.891 475.526 308.442 475.128 308.834C474.747 309.255 474.248 309.509 473.631 309.596C473.014 309.683 472.287 309.617 471.451 309.399L460.549 306.55L459.276 311.501L470.561 314.45C472.209 314.88 473.654 314.997 474.894 314.801C476.151 314.633 477.181 314.146 477.984 313.338C478.78 312.554 479.358 311.465 479.717 310.07C479.98 309.048 480.022 308.017 479.843 306.978C479.665 305.939 479.314 304.991 478.79 304.135C478.669 303.937 478.541 303.75 478.404 303.572L480.841 304.113L482.061 299.371ZM455.775 322.382L473.648 328.956L471.902 333.761L454.029 327.187L455.775 322.382ZM476.47 332.679C476.806 331.755 477.294 331.116 477.933 330.763C478.572 330.409 479.308 330.386 480.142 330.693C480.907 330.974 481.433 331.462 481.717 332.154C482.016 332.878 482.001 333.691 481.673 334.593C481.337 335.518 480.839 336.153 480.177 336.498C479.538 336.851 478.813 336.878 478.002 336.58C477.214 336.29 476.681 335.787 476.405 335.072C476.121 334.379 476.142 333.582 476.47 332.679ZM450.894 338.04C449.565 338.807 448.556 339.904 447.868 341.331C447.482 342.131 447.236 342.945 447.129 343.774C447.044 344.614 447.071 345.414 447.21 346.176C447.336 346.843 447.533 347.459 447.801 348.026L445.564 346.936L443.327 351.573L460.448 359.913L462.653 355.341L460.409 354.248C461.016 354.136 461.606 353.943 462.181 353.669C462.863 353.361 463.494 352.907 464.076 352.31C464.668 351.744 465.168 351.04 465.574 350.197C466.294 348.705 466.547 347.186 466.333 345.641C466.141 344.106 465.543 342.666 464.539 341.323C463.546 340.012 462.186 338.936 460.46 338.095C458.734 337.254 457.041 336.843 455.38 336.861C453.719 336.88 452.224 337.273 450.894 338.04ZM450.759 347.104C450.662 346.256 450.822 345.399 451.239 344.535C451.645 343.692 452.21 343.046 452.933 342.597C453.645 342.17 454.457 341.951 455.368 341.941C456.3 341.941 457.262 342.183 458.255 342.667C459.226 343.14 459.99 343.739 460.546 344.464C461.102 345.188 461.434 345.964 461.542 346.791C461.66 347.649 461.517 348.5 461.11 349.343C460.693 350.208 460.112 350.859 459.368 351.298C458.645 351.746 457.833 351.965 456.933 351.954C456.022 351.964 455.081 351.732 454.11 351.259C453.118 350.776 452.333 350.167 451.755 349.431C451.188 348.728 450.856 347.952 450.759 347.104Z" fill="#F01ACE"/>
<path d="M112.956 202.351C112.956 202.351 103.842 132.025 111.166 124.759C115.554 120.404 145.807 129.1 145.807 129.1C145.807 129.1 150.984 93.8725 158.798 90.5751C168.237 86.5917 208.595 103.055 208.595 103.055" stroke="#F01ACE" stroke-width="7" stroke-miterlimit="10" stroke-linecap="round"/>
<path d="M137.688 209.947C137.688 209.947 134.022 159.321 138.229 151.346C141.141 145.828 167.458 152.432 167.458 152.432C167.458 152.432 166.422 131.303 171.788 125.302C175.187 121.5 196.982 131.32 196.982 131.32" stroke="#F01ACE" stroke-width="5" stroke-miterlimit="10" stroke-linecap="round"/>
<path d="M246.924 103.987C246.924 103.987 311.457 74.9292 320.511 79.859C325.937 82.8134 326.37 114.359 326.37 114.359C326.37 114.359 361.509 109.153 366.915 115.7C373.446 123.609 370.629 168.648 370.629 168.648" stroke="#F01ACE" stroke-width="7" stroke-miterlimit="10" stroke-linecap="round"/>
<path d="M246.812 129.917C246.812 129.917 294.104 111.777 302.935 113.512C309.046 114.712 310.34 141.877 310.34 141.877C310.34 141.877 330.22 134.781 337.502 138.197C342.114 140.361 339.031 164.115 339.031 164.115" stroke="#F01ACE" stroke-width="5" stroke-miterlimit="10" stroke-linecap="round"/>
<path d="M382.714 202.354C382.714 202.354 431.115 254.075 429.409 264.262C428.387 270.367 398.771 281.038 398.771 281.038C398.771 281.038 415.111 312.654 410.693 319.908C405.357 328.671 361.23 341.498 361.23 341.498" stroke="#F01ACE" stroke-width="7" stroke-miterlimit="10" stroke-linecap="round"/>
<path d="M358.218 210.682C358.218 210.682 390.712 249.611 391.947 258.547C392.802 264.73 367.599 274.793 367.599 274.793C367.599 274.793 380.759 291.329 379.904 299.343C379.363 304.419 355.954 309.222 355.954 309.222" stroke="#F01ACE" stroke-width="5" stroke-miterlimit="10" stroke-linecap="round"/>
<path d="M331.709 363.95C331.709 363.95 297.378 425.956 287.181 427.442C281.07 428.333 261.882 403.326 261.882 403.326C261.882 403.326 236.847 428.586 228.607 426.587C218.653 424.172 192.885 386.493 192.885 386.493" stroke="#F01ACE" stroke-width="7" stroke-miterlimit="10" stroke-linecap="round"/>
<path d="M316.311 343.114C316.311 343.114 289.268 386.029 281.158 389.939C275.547 392.645 258.285 371.665 258.285 371.665C258.285 371.665 246.602 389.28 238.729 390.914C233.742 391.949 222.024 371.074 222.024 371.074" stroke="#F01ACE" stroke-width="5" stroke-miterlimit="10" stroke-linecap="round"/>
<path d="M164.465 364.119C164.465 364.119 94.919 351.125 90.282 341.902C87.503 336.374 105.083 310.206 105.083 310.206C105.083 310.206 73.25 294.407 72.5303 285.939C71.6609 275.709 99.3309 240.341 99.3309 240.341" stroke="#F01ACE" stroke-width="7" stroke-miterlimit="10" stroke-linecap="round"/>
<path d="M179.3 342.877C179.3 342.877 130.127 330.763 123.857 324.292C119.519 319.813 133.899 296.753 133.899 296.753C133.899 296.753 113.53 291.227 109.49 284.259C106.93 279.845 122.969 262.089 122.969 262.089" stroke="#F01ACE" stroke-width="5" stroke-miterlimit="10" stroke-linecap="round"/>
<path d="M199.522 116.289L238.315 214.321L208.079 119.961L256.879 77.9699L199.522 116.289ZM252.542 122.937L296.332 124.274L257.283 167.408L279.01 177.732L247.231 249.024L187.132 113.902L272.806 62L252.542 122.937Z" fill="#F01ACE"/>
<path d="M354.119 162.211L271.698 227.755L353.084 171.484L407.281 206.191L354.119 162.211ZM363.083 215.016L374.453 257.429L321.98 232.41L318.395 256.244L241.13 246.334L352.82 149.631L427.133 216.865L363.083 215.016Z" fill="#F01ACE"/>
<path d="M362.657 322.906L274.02 266.095L353.573 324.941L338.462 387.605L362.657 322.906ZM315.761 348.579L279.451 373.152L285.984 315.273L262.335 319.627L246.552 243.161L374.102 317.583L334.85 409.896L315.761 348.579Z" fill="#F01ACE"/>
<path d="M211.076 381.655L237.943 279.687L206.367 373.606L142.228 378.337L211.076 381.655ZM172.357 344.74L137.919 317.595L194.889 306.139L183.525 284.897L251.329 246.46L219.63 390.951L119.953 381.703L172.357 344.74Z" fill="#F01ACE"/>
<path d="M109.488 255.033L214.478 248.267L115.611 248.005L90.8114 188.521L109.488 255.033ZM132.146 206.522L146.917 165.176L175.808 215.714L192.305 198.178L250.158 250.466L103.403 266.112L80.5679 168.409L132.146 206.522Z" fill="#F01ACE"/>
</g>
<defs>
<clipPath id="clip0_7_109">
<rect width="500" height="500" fill="white"/>
</clipPath>
</defs>
</svg>
