<svg width="678" height="500" viewBox="0 0 678 500" fill="none" xmlns="http://www.w3.org/2000/svg">
<path d="M442.312 352.284C442.312 352.284 476.856 378.242 511.923 381.042C546.99 383.841 569.046 372.216 569.046 372.216L503.165 312.685C503.165 312.685 582.134 300.883 617.851 280.475C639.997 267.82 667.47 221.405 667.47 221.405L497.609 239.691C497.609 239.691 596.771 156.24 632.105 104.241C658.841 64.8947 658.738 11.0923 658.738 11.0923L394.423 171.429C394.423 171.429 402.792 193.193 405.484 202.09C408.762 212.919 412.679 231.753 412.679 231.753L442.312 352.284Z" fill="white" stroke="#1A7CF0" stroke-width="10" stroke-miterlimit="10" stroke-linecap="round"/>
<path d="M235.586 350.432C235.586 350.432 201.042 377.008 165.975 379.807C130.908 382.606 108.852 370.981 108.852 370.981L174.733 311.451C174.733 311.451 95.7642 299.649 60.0469 279.24C37.9007 266.586 10.4287 220.17 10.4287 220.17L180.289 238.456C180.289 238.456 81.1275 155.005 45.7934 103.006C19.0573 63.66 19.1599 9.85762 19.1599 9.85762L283.475 170.194C283.475 170.194 275.106 191.958 272.414 200.856C269.137 211.684 265.219 230.519 265.219 230.519L235.586 350.432Z" fill="white" stroke="#1A7CF0" stroke-width="10" stroke-miterlimit="10" stroke-linecap="round"/>
<path d="M433.01 414.958C446.995 377.26 450.961 245.707 450.961 245.707L339.909 207.787L228.405 245.707C228.405 245.707 232.372 377.26 246.356 414.958C253.877 435.231 340.146 493.291 340.146 493.291C340.146 493.291 425.49 435.231 433.01 414.958Z" fill="#D4DEEB"/>
<path d="M450.961 245.707C450.961 245.707 446.995 377.26 433.01 414.958C425.49 435.231 340.146 493.291 340.146 493.291L339.909 207.787L450.961 245.707Z" fill="black" fill-opacity="0.1"/>
<path d="M433.01 414.958C446.995 377.26 450.961 245.707 450.961 245.707L339.909 207.787L228.405 245.707C228.405 245.707 232.372 377.26 246.356 414.958C253.877 435.231 340.146 493.291 340.146 493.291C340.146 493.291 425.49 435.231 433.01 414.958Z" stroke="#1A7CF0" stroke-width="10" stroke-miterlimit="10" stroke-linecap="round"/>
<path d="M306.372 430.86L265.147 358.512L341.001 392.86L259.407 409.679L315.562 348.058" fill="#1A7CF0"/>
<path d="M394.575 297.052L324.879 357.72L363.754 284.061L394.575 297.052Z" fill="#1A7CF0"/>
<path d="M440.182 320.278L328.76 359.828L409.361 307.287L440.182 320.278Z" fill="#1A7CF0"/>
</svg>
