<svg width="500" height="500" viewBox="0 0 500 500" fill="none" xmlns="http://www.w3.org/2000/svg">
<path d="M252.818 35.3357L186.01 148.393L245.183 214.393L196.802 146.618L251.044 46.0155L261.781 111.36L252.818 35.3357ZM263.759 0L288.354 200.412L263.757 248.146L163.673 151.112L263.759 0Z" fill="#F01ACE"/>
<path d="M268.788 76.2971C268.788 76.2971 287.373 27.7565 326.594 29.6482C360.038 31.2613 352.595 85.8787 352.595 85.8787C352.595 85.8787 406.237 65.1092 421.443 88.6703C440.638 118.413 405.873 169.718 405.873 169.718" stroke="#F01ACE" stroke-width="7" stroke-miterlimit="10" stroke-linecap="round"/>
<path d="M280.14 161.714C280.14 161.714 290.385 141.267 302.229 131.702C314.969 121.413 333.777 117 333.777 117C333.777 117 329.343 126.903 328.997 135.553C328.694 143.142 330.983 152.212 330.983 152.212" stroke="#F01ACE" stroke-width="5" stroke-miterlimit="10" stroke-linecap="round"/>
<path d="M460.023 193.156L332.063 163.79L287.16 240.226L337.03 173.539L449.313 194.707L390.333 224.775L460.023 193.156ZM497 192.86L313.58 277.132L260.65 268.175L322.693 143.324L497 192.86Z" fill="#F01ACE"/>
<path d="M425.856 220.811C425.856 220.811 477.73 223.793 487.833 261.753C496.447 294.121 442.167 303.603 442.167 303.603C442.167 303.603 478.231 348.43 460.405 370.075C437.902 397.4 378.484 379.833 378.484 379.833" stroke="#F01ACE" stroke-width="7" stroke-miterlimit="10" stroke-linecap="round"/>
<path d="M352.213 256.198C352.213 256.198 374.798 259.757 387.502 268.143C401.169 277.164 411.081 293.752 411.081 293.752C411.081 293.752 400.304 292.531 391.959 294.827C384.639 296.841 376.695 301.777 376.695 301.777" stroke="#F01ACE" stroke-width="5" stroke-miterlimit="10" stroke-linecap="round"/>
<path d="M375.316 438.457L362.974 307.704L276.328 289.078L355.284 315.484L370.479 428.772L323.412 382.207L375.316 438.457ZM387.217 473.48L249.606 325.766L241.475 272.684L379.452 292.375L387.217 473.48Z" fill="#F01ACE"/>
<path d="M338.336 414.698C338.336 414.698 351.806 464.9 318.958 486.423C290.948 504.775 264.893 456.205 264.893 456.205C264.893 456.205 233.685 504.54 207.542 494.413C174.541 481.628 172.54 419.679 172.54 419.679" stroke="#F01ACE" stroke-width="7" stroke-miterlimit="10" stroke-linecap="round"/>
<path d="M281.613 355.878C281.613 355.878 285.332 378.446 281.366 393.146C277.1 408.961 264.473 423.587 264.473 423.587C264.473 423.587 262.245 412.967 257.444 405.764C253.232 399.445 246.052 393.451 246.052 393.451" stroke="#F01ACE" stroke-width="5" stroke-miterlimit="10" stroke-linecap="round"/>
<path d="M112.412 432.35L233.217 380.93L224.68 292.685L223.473 375.959L120.17 424.801L150.251 365.812L112.412 432.35ZM82.6599 454.316L181.629 278.338L229.726 254.488L252.816 391.989L82.6599 454.316Z" fill="#F01ACE"/>
<path d="M123.828 389.892C123.828 389.892 80.0936 417.958 49.6301 393.172C23.6541 372.037 62.0174 332.469 62.0174 332.469C62.0174 332.469 6.51117 317.38 8.22946 289.387C10.3985 254.051 68.8014 233.355 68.8014 233.355" stroke="#F01ACE" stroke-width="7" stroke-miterlimit="10" stroke-linecap="round"/>
<path d="M162.653 317.982C162.653 317.982 142.285 328.371 127.079 329.049C110.722 329.778 92.9602 322.177 92.9602 322.177C92.9602 322.177 102.4 316.833 107.805 310.072C112.547 304.14 116.079 295.478 116.079 295.478" stroke="#F01ACE" stroke-width="5" stroke-miterlimit="10" stroke-linecap="round"/>
<path d="M38.1335 179.922L123.124 280.022L204.81 245.633L124.972 269.237L47.6442 185.088L112.888 196.282L38.1335 179.922ZM8.32312 158.035L205.703 200.248L242.766 239.097L118.396 302.029L8.32312 158.035Z" fill="#F01ACE"/>
<path d="M82.0499 178.204C82.0499 178.204 42.2609 144.775 56.8606 108.309C69.3098 77.2144 118.48 102.094 118.48 102.094C118.48 102.094 116.38 44.5911 143.607 37.9104C177.978 29.4769 215.093 79.1077 215.093 79.1077" stroke="#F01ACE" stroke-width="7" stroke-miterlimit="10" stroke-linecap="round"/>
<path d="M162.225 198.39C162.225 198.39 146.254 182.024 141.086 167.701C135.527 152.294 137.502 133.07 137.502 133.07C137.502 133.07 145.409 140.497 153.469 143.65C160.54 146.416 169.857 147.214 169.857 147.214" stroke="#F01ACE" stroke-width="5" stroke-miterlimit="10" stroke-linecap="round"/>
</svg>
