<svg width="500" height="500" viewBox="0 0 500 500" fill="none" xmlns="http://www.w3.org/2000/svg">
<g clip-path="url(#clip0_13_2)">
<circle cx="250" cy="250" r="250" fill="#F01ACE"/>
<g clip-path="url(#clip1_13_2)">
<path d="M275.981 64.2454C275.981 64.2454 304.774 34.388 342.818 41.3521C358.376 44.1999 359.756 90.8017 359.756 90.8017C359.756 90.8017 403.569 78.9895 412.402 90.8017C441.739 130.034 399.584 182.375 399.584 182.375L261.79 224.499L249.429 242.813L231.118 222.667L275.981 64.2454Z" fill="#F34ED9"/>
<path d="M433.17 212.949C433.17 212.949 469.251 233.406 471.979 271.992C473.095 287.772 428.312 300.712 428.312 300.712C428.312 300.712 450.659 340.211 441.419 351.708C410.733 389.894 349.553 362.091 349.553 362.091L253.479 242.938L253.644 231.687L268.593 208.933L433.17 212.949Z" fill="#F34ED9"/>
<path d="M332.551 397.957C332.551 397.957 327.794 439.166 293.335 456.731C279.244 463.914 249.86 427.721 249.86 427.721C249.86 427.721 222.215 463.71 208.026 459.686C160.9 446.323 162.629 379.135 162.629 379.135L246.559 261.996L245.265 239.937L272.044 244.828L332.551 397.957Z" fill="#F34ED9"/>
<path d="M128.282 371.108C128.282 371.108 87.9923 380.954 59.5576 354.733C47.9299 344.01 71.6637 303.883 71.6637 303.883C71.6637 303.883 28.3208 290.449 27.1666 275.744C23.3332 226.902 86.9312 205.196 86.9312 205.196L225.906 243.245L246.139 234.372L250.851 261.187L128.282 371.108Z" fill="#F34ED9"/>
<path d="M91.8962 165.662C91.8962 165.662 71.8302 129.358 89.6722 95.0373C96.9683 81.0026 141.908 93.3859 141.908 93.3859C141.908 93.3859 143.503 48.0297 157.389 43.0591C203.507 26.5502 241.13 82.2398 241.13 82.2398L240.866 226.351L254.733 243.553L230.096 255.134L91.8962 165.662Z" fill="#F34ED9"/>
<path d="M247.14 246.934C247.14 246.934 189.932 207.989 196.326 146.204C205.283 59.6539 293.377 57.8353 293.377 57.8353C293.377 57.8353 284.246 64.884 283.46 72.3025C280.732 98.0507 315.088 87.418 315.438 108.675C315.776 129.218 283.247 124.482 284.18 139.323C284.754 148.458 296.399 148.587 294.455 161.087C291.45 180.399 276.666 178.577 261.127 185.95C253.811 189.422 246.596 199.762 244.231 209.306C240.14 225.814 250.463 244.959 250.463 244.959L247.14 246.934Z" fill="white"/>
<path d="M233.857 217.71C233.857 217.71 221.108 189.481 221.369 167.792C221.617 147.174 230.607 116.9 244.49 119.874C257.41 122.641 232.492 158.335 241.021 154.767C246.877 152.317 256.903 151.424 252.788 161.931C250.319 168.236 240.158 174.847 236.606 187.072C232.084 202.637 233.857 217.71 233.857 217.71Z" fill="#FBC1F2"/>
<path d="M248.091 241.439C248.091 241.439 268.663 175.354 329.62 163.462C415.008 146.803 442.425 230.556 442.425 230.556C442.425 230.556 433.022 223.875 425.698 225.286C400.277 230.18 420.46 259.951 400.232 266.482C380.683 272.793 375.731 240.291 361.808 245.51C353.239 248.722 356.51 259.901 343.988 261.684C324.642 264.438 322.075 249.763 310.494 237.045C305.042 231.058 293.049 227.168 283.232 227.687C266.25 228.586 250.949 244.042 250.949 244.042L248.091 241.439Z" fill="white"/>
<path d="M272.17 220.213C272.17 220.213 295.452 199.786 316.272 193.714C336.064 187.942 367.638 187.718 368.841 201.868C369.96 215.035 328.56 201.6 334.458 208.719C338.508 213.608 342.285 222.94 331.036 222.066C324.286 221.542 315.002 213.747 302.274 213.912C286.069 214.123 272.17 220.213 272.17 220.213Z" fill="#FBC1F2"/>
<path d="M248.765 239.465C248.765 239.465 317.879 235.954 350.087 289.064C395.204 363.461 326.084 418.117 326.084 418.117C326.084 418.117 329.106 406.984 325.254 400.596C311.882 378.425 290.918 407.65 277.805 390.919C265.131 374.748 293.92 358.876 284.215 347.61C278.242 340.676 268.881 347.606 262.884 336.468C253.619 319.261 266.503 311.783 274.437 296.522C278.173 289.336 277.681 276.736 273.804 267.7C267.097 252.071 247.31 243.046 247.31 243.046L248.765 239.465Z" fill="white"/>
<path d="M276.998 254.736C276.998 254.736 304.204 269.536 317.091 286.982C329.342 303.566 340.455 333.126 327.593 339.141C315.625 344.738 313.935 301.238 309.292 309.233C306.103 314.723 298.651 321.49 295.586 310.63C293.747 304.113 297.855 292.707 293.305 280.817C287.511 265.68 276.998 254.736 276.998 254.736Z" fill="#FBC1F2"/>
<path d="M253.849 240.034C253.849 240.034 279.133 304.464 239.014 351.88C182.816 418.301 109.042 370.113 109.042 370.113C109.042 370.113 120.556 369.442 125.388 363.76C142.16 344.036 107.793 333.438 119.49 315.686C130.794 298.531 154.986 320.79 162.584 308.008C167.26 300.14 157.717 293.465 166.371 284.239C179.742 269.986 190.923 279.829 207.912 282.506C215.911 283.766 227.7 279.297 235.035 272.749C247.721 261.423 249.992 239.791 249.992 239.791L253.849 240.034Z" fill="white"/>
<path d="M248.34 271.66C248.34 271.66 242.952 302.163 230.506 319.927C218.676 336.813 194.182 356.742 184.394 346.456C175.285 336.883 215.988 321.462 206.933 319.598C200.716 318.318 191.933 313.401 201.255 307.044C206.849 303.23 218.968 303.503 228.794 295.41C241.305 285.107 248.34 271.66 248.34 271.66Z" fill="#FBC1F2"/>
<path d="M252.985 247.142C252.985 247.142 198.208 289.44 141.472 264.176C61.995 228.787 87.6201 144.468 87.6201 144.468C87.6201 144.468 91.4841 155.337 98.2907 158.388C121.915 168.977 122.477 133.012 142.788 139.28C162.418 145.337 147.816 174.793 162.211 178.514C171.071 180.804 174.81 169.773 186.087 175.503C203.508 184.356 197.186 197.846 199.368 214.909C200.396 222.942 207.983 233.013 216.319 238.225C230.739 247.24 252.139 243.37 252.139 243.37L252.985 247.142Z" fill="white"/>
<path d="M221.086 250.697C221.086 250.697 190.298 254.053 169.765 247.07C150.247 240.433 124.266 222.486 131.403 210.209C138.045 198.786 164.231 233.558 163.488 224.342C162.978 218.014 165.242 208.204 173.951 215.379C179.177 219.684 182.304 231.397 192.821 238.57C206.21 247.702 221.086 250.697 221.086 250.697Z" fill="#FBC1F2"/>
</g>
</g>
<defs>
<clipPath id="clip0_13_2">
<rect width="500" height="500" fill="white"/>
</clipPath>
<clipPath id="clip1_13_2">
<rect width="445" height="420" fill="white" transform="translate(27 40)"/>
</clipPath>
</defs>
</svg>
