<svg version="1.1" xmlns="http://www.w3.org/2000/svg" xmlns:xlink="http://www.w3.org/1999/xlink" width="140.87118" height="142.06249" viewBox="0,0,140.87118,142.06249"><g transform="translate(-169.57143,-109.83929)"><g data-paper-data="{&quot;isPaintingLayer&quot;:true}" fill-rule="nonzero" stroke-linejoin="miter" stroke-miterlimit="10" stroke-dasharray="" stroke-dashoffset="0" style="mix-blend-mode: normal"><path d="M186.8747,163.72743c0,0 -3.50775,-27.00185 -0.6891,-29.79167c1.68924,-1.67196 13.33334,1.66667 13.33334,1.66667c0,0 1.99247,-13.52563 5,-14.79167c3.63322,-1.52943 19.16666,4.79167 19.16666,4.79167" fill="none" stroke="#f01ace" stroke-width="3.5" stroke-linecap="round"/><path d="M196.39393,166.64409c0,0 -1.41119,-19.43831 0.20833,-22.5c1.1207,-2.11867 11.25,0.41667 11.25,0.41667c0,0 -0.39875,-8.11225 1.66667,-10.41666c1.30823,-1.45962 9.69697,2.3106 9.69697,2.3106" fill="none" stroke="#f01ace" stroke-width="2.5" stroke-linecap="round"/><path d="M238.4383,125.96029c0,0 24.83807,-11.1568 28.32307,-9.26401c2.08859,1.13437 2.25522,13.2465 2.25522,13.2465c0,0 13.52469,-1.99885 15.6054,0.51487c2.51357,3.03666 1.4295,20.32942 1.4295,20.32942" fill="none" stroke="#f01ace" stroke-width="3.5" stroke-linecap="round"/><path d="M238.39522,135.91624c0,0 18.20238,-6.96512 21.60133,-6.29888c2.35206,0.46103 2.85026,10.89092 2.85026,10.89092c0,0 7.65138,-2.7247 10.45412,-1.41285c1.77525,0.83093 0.58849,9.95107 0.58849,9.95107" fill="none" stroke="#f01ace" stroke-width="2.5" stroke-linecap="round"/><path d="M290.70297,163.72845c0,0 18.62902,19.85859 17.9727,23.76974c-0.39335,2.34399 -11.79266,6.44117 -11.79266,6.44117c0,0 6.28923,12.13912 4.58897,14.92431c-2.05397,3.36461 -19.03799,8.28943 -19.03799,8.28943" fill="none" stroke="#f01ace" stroke-width="3.5" stroke-linecap="round"/><path d="M281.27438,166.926c0,0 12.50693,14.94713 12.98247,18.37795c0.32907,2.37412 -9.37163,6.23767 -9.37163,6.23767c0,0 5.06524,6.34909 4.73634,9.42612c-0.20832,1.94898 -9.21855,3.7932 -9.21855,3.7932" fill="none" stroke="#f01ace" stroke-width="2.5" stroke-linecap="round"/><path d="M271.07133,225.77368c0,0 -13.21388,23.80751 -17.13845,24.37811c-2.35203,0.34196 -9.7375,-9.25941 -9.7375,-9.25941c0,0 -9.63572,9.69873 -12.80731,8.93119c-3.8314,-0.92722 -13.74906,-15.39444 -13.74906,-15.39444" fill="none" stroke="#f01ace" stroke-width="3.5" stroke-linecap="round"/><path d="M265.14482,217.77373c0,0 -10.4088,16.47716 -13.53007,17.97862c-2.15991,1.03901 -8.80372,-7.01645 -8.80372,-7.01645c0,0 -4.49694,6.76351 -7.52723,7.3909c-1.91938,0.39739 -6.42945,-7.61789 -6.42945,-7.61789" fill="none" stroke="#f01ace" stroke-width="2.5" stroke-linecap="round"/><path d="M206.70016,225.8388c0,0 -26.76777,-4.98903 -28.55255,-8.53056c-1.06963,-2.12247 5.69672,-12.16976 5.69672,-12.16976c0,0 -12.25223,-6.06592 -12.52922,-9.3173c-0.33462,-3.92778 10.31537,-17.50741 10.31537,-17.50741" fill="none" stroke="#f01ace" stroke-width="3.5" stroke-linecap="round"/><path d="M212.40992,217.68274c0,0 -18.92631,-4.65127 -21.33945,-7.13593c-1.66988,-1.71937 3.86523,-10.57336 3.86523,-10.57336c0,0 -7.83992,-2.12204 -9.3952,-4.79738c-0.98511,-1.69455 5.18802,-8.51202 5.18802,-8.51202" fill="none" stroke="#f01ace" stroke-width="2.5" stroke-linecap="round"/><g fill="#f01ace" stroke="#000000" stroke-width="0" stroke-linecap="butt"><path d="M220.19335,130.68353l14.93128,37.63993l-11.63777,-36.23006l18.78283,-16.12242zM240.6006,133.23626l16.85439,0.51346l-15.02974,16.56135l8.36271,3.964l-12.23183,27.37248l-23.13152,-51.88027l32.97538,-19.92798z"/><path d="M279.69695,148.3155l-31.72352,25.16596l31.32495,-21.60561l20.86012,13.326zM283.14693,168.59036l4.37622,16.28442l-20.1964,-9.60608l-1.3798,9.15119l-29.73874,-3.80499l42.98867,-37.12956l28.60253,25.81463z"/><path d="M282.98323,210.01491l-34.11599,-21.81299l30.6196,22.59414l-5.81638,24.06028zM264.93298,219.87193l-13.97553,9.43497l2.51461,-22.22269l-9.10238,1.67176l-6.07479,-29.35928l49.09318,28.57427l-15.10762,35.44376z"/><path d="M224.64053,232.57161l10.3409,-39.15065l-12.15339,36.06037l-24.6866,1.8164zM209.73793,218.39822l-13.25524,-10.42269l21.92772,-4.39846l-4.37404,-8.15573l26.09726,-14.75817l-12.20056,55.4777l-38.36526,-3.5506z"/><path d="M185.53995,183.95472l40.4099,-2.5977l-38.05319,-0.10061l-9.54527,-22.8389zM194.26076,165.32893l5.68539,-15.87483l11.12007,19.40401l6.34945,-6.73296l22.26713,20.07599l-56.48487,6.00744l-8.78922,-37.51332z"/></g></g></g></svg>