<svg version="1.1" xmlns="http://www.w3.org/2000/svg" xmlns:xlink="http://www.w3.org/1999/xlink" width="211.03465" height="198.78183" viewBox="0,0,211.03465,198.78183"><g transform="translate(-132.53436,-81.50872)"><g data-paper-data="{&quot;isPaintingLayer&quot;:true}" fill-rule="nonzero" stroke-width="0" stroke-linejoin="miter" stroke-miterlimit="10" stroke-dasharray="" stroke-dashoffset="0" style="mix-blend-mode: normal"><path d="M341.24162,89.37541l-14.17016,97.29536l-27.41379,-7.24138l-3.36207,-39.82759z" fill="#008282" stroke="#0060ff" stroke-linecap="round"/><path d="M207.75671,81.50872l2.74918,43.11358l-22.48768,-2.85714z" fill="#008282" stroke="#ff00e1" stroke-linecap="round"/><path d="M277.50007,264.21427c0,0 11.53455,1.60547 24.98124,-4.92648c12.91172,-6.27208 17.29148,-19.05079 17.29148,-19.05079c0,0 1.31158,4.13431 1.6352,8.17342c0.41204,5.14264 -0.15792,11.37204 -0.15792,11.37204c0,0 21.65249,-14.5754 22.31214,-44.02523c0.14988,-6.69146 -2.11461,-20.75529 -13.04748,-29.46022c-11.66866,-9.29077 -21.8783,-7.53728 -21.8783,-7.53728c0,0 3.20408,-17.09444 -5.90609,-37.67329c-11.00397,-24.85676 -30.45756,-32.21306 -30.45756,-32.21306c0,0 0.45722,4.97107 0.44324,8.9585c-0.0134,3.82322 -0.55687,7.97331 -0.55687,7.97331c0,0 -12.26883,-9.71192 -32.57064,-15.42044c-20.79098,-5.84606 -32.08845,-2.53411 -32.08845,-2.53411c0,0 3.79506,4.00504 5.86787,6.30168c2.30932,2.5587 4.81394,6.53923 4.81394,6.53923c0,0 -23.52588,2.11185 -37.29406,-1.36256c-24.70498,-6.23431 -31.45594,-20.11472 -31.45594,-20.11472c0,0 -17.08903,15.81224 -16.89589,48.22774c0.23907,40.1252 19.50954,55.52226 19.50954,55.52226c0,0 -2.6095,1.53332 -6.34217,2.07626c-3.39514,0.49384 -9.33965,0.08283 -9.33965,0.08283c0,0 3.17881,10.55399 12.97044,20.98953c8.81733,9.39717 22.37047,11.62411 22.37047,11.62411z" fill="#2e2e2e" stroke="#ffeb00" stroke-linecap="round"/><path d="M164.69371,174.79001c0,0 0.22055,9.5413 2.51567,14.75874c2.95643,6.72078 10.34147,10.54738 10.34147,10.54738l3.57143,-14.79592z" fill="#000000" stroke="#ffeb00" stroke-linecap="round"/><path d="M268.12807,144.99224c0,0 4.03414,7.75971 5.21241,11.98322c1.67541,6.00553 3.8785,14.15315 3.8785,14.15315l64.09091,-81.81818l-90.90909,50.68182c0,0 4.5055,3.68297 7.36109,6.70866c4.28239,4.53748 6.43374,8.92565 6.43374,8.92565c0,0 1.75922,-3.23567 2.40601,-4.98476c0.66359,-1.79452 1.52643,-5.64955 1.52643,-5.64955z" fill="#ffffff" stroke="#b2ff00" stroke-linecap="round"/><path d="M207.29161,121.8842l0.47619,-40.35714l15.95238,39.7619z" fill="#ffffff" stroke="#0060ff" stroke-linecap="round"/><path d="M179.96282,184.14583c0,0 -3.50984,13.28953 -3.72995,23.4405c-0.20001,9.22355 1.59927,21.11916 1.59927,21.11916c0,0 -8.41263,5.21145 -8.11048,20.20949c0.20216,10.0347 9.1062,31.28555 57.48693,31.37541c25.66806,0.04768 46.04407,-10.10384 59.14897,-20.75829c15.4429,-12.55528 16.10527,-23.79536 16.10527,-23.79536l-25,-48.18182z" fill="#f6deac" stroke="#ff0000" stroke-linecap="round"/><path d="M176.32598,207.09666l31.21951,12.92683c0,0 4.78351,28.88965 -14.5122,28.29268c-20.51897,-0.63482 -16.70732,-41.21951 -16.70732,-41.21951z" fill="#ffffff" stroke="#ff00e1" stroke-linecap="round"/><path d="M217.17964,221.12105l43.04878,-11.46341c0,0 0.91295,5.69851 0.89262,8.91059c-0.11717,18.50523 -11.86993,37.5669 -26.38042,37.18697c-28.48105,-0.74573 -17.56098,-34.63415 -17.56098,-34.63415z" fill="#ffffff" stroke="#ff00e1" stroke-linecap="round"/><path d="M207.80024,225.00717c0.9935,4.99861 -1.64327,9.75964 -5.88939,10.63406c-4.24612,0.87442 -8.49367,-2.46891 -9.48717,-7.46752c-0.9935,-4.99861 1.64327,-9.75964 5.88939,-10.63406c4.24612,-0.87442 8.49367,2.46891 9.48717,7.46752z" fill="#008282" stroke="#00ffff" stroke-linecap="butt"/><path d="M260.50438,223.5131c0.22316,6.22786 -3.97951,11.43362 -9.38694,11.62739c-5.40743,0.19376 -9.97192,-4.69784 -10.19509,-10.9257c-0.22316,-6.22786 3.97951,-11.43362 9.38694,-11.62739c5.40743,-0.19376 9.97192,4.69784 10.19509,10.9257z" fill="#008282" stroke="#00ffff" stroke-linecap="butt"/><path d="M163.12438,174.05186c0,0 15.58509,17.96281 44.42263,17.347c16.88328,-0.36053 27.1291,-3.7263 27.1291,-3.7263c0,0 -4.86645,7.09322 -6.91775,10.67616c-2.24206,3.91613 -6.01328,11.91005 -6.01328,11.91005c0,0 14.41564,-4.83357 22.30803,-7.77736c9.63226,-3.59274 31.31266,-12.22264 31.31266,-12.22264c0,0 7.25935,10.30471 7.3215,28.07217c0.05514,15.76428 -7.49392,26.41058 -7.49392,26.41058c0,0 8.1854,-0.8607 15.82249,-2.79767c5.70439,-1.44679 12.28096,-5.99543 12.28096,-5.99543l-24.13794,-50.68965z" fill="#2e2e2e" stroke="#ffa000" stroke-linecap="round"/></g></g></svg>