<svg version="1.1" xmlns="http://www.w3.org/2000/svg" xmlns:xlink="http://www.w3.org/1999/xlink" width="84.25558" height="70.62854" viewBox="0,0,84.25558,70.62854"><g transform="translate(-197.77789,-143.40819)"><g data-paper-data="{&quot;isPaintingLayer&quot;:true}" fill="none" fill-rule="nonzero" stroke-linecap="round" stroke-linejoin="miter" stroke-miterlimit="10" stroke-dasharray="" stroke-dashoffset="0" style="mix-blend-mode: normal"><g stroke="#ffffff" stroke-width="24"><path d="M236.07871,155.40819c0,0 0.2798,11.19029 -0.24796,21.71593c-0.62093,12.38389 -2.10605,24.43691 -2.75562,24.91261c-1.08089,0.79156 -8.296,-9.56054 -14.39783,-20.06304c-4.80459,-8.26968 -8.89941,-17.16226 -8.89941,-17.16226"/><path d="M270.03346,171.22394c0,0 2.03827,-10.01807 -7.28468,-12.83673c-9.01794,-2.72645 -14.46939,3.60099 -14.83784,10.91864c-0.73042,14.50662 21.94036,11.0882 17.79401,27.40859c-1.37484,5.41148 -7.65776,9.28907 -13.88493,7.38705c-10.72021,-3.27436 -8.68058,-14.08964 -8.68058,-14.08964"/></g><g stroke="#000000" stroke-width="15"><path d="M236.07871,155.40819c0,0 0.2798,11.19029 -0.24796,21.71593c-0.62093,12.38389 -2.10605,24.43691 -2.75562,24.91261c-1.08089,0.79156 -8.296,-9.56054 -14.39783,-20.06304c-4.80459,-8.26968 -8.89941,-17.16226 -8.89941,-17.16226"/><path d="M270.03346,171.22394c0,0 2.03827,-10.01807 -7.28468,-12.83673c-9.01794,-2.72645 -14.46939,3.60099 -14.83784,10.91864c-0.73042,14.50662 21.94036,11.0882 17.79401,27.40859c-1.37484,5.41148 -7.65776,9.28907 -13.88493,7.38705c-10.72021,-3.27436 -8.68058,-14.08964 -8.68058,-14.08964"/></g><g stroke-width="11"><path d="M236.0787,155.40819c0,0 0.2798,11.19029 -0.24796,21.71593c-0.62093,12.38389 -2.10605,24.43691 -2.75562,24.91261c-1.08089,0.79156 -8.296,-9.56054 -14.39783,-20.06304c-4.80459,-8.26968 -8.89941,-17.16226 -8.89941,-17.16226" stroke="#ff0000"/><path d="M270.03346,171.22394c0,0 2.03827,-10.01807 -7.28469,-12.83673c-9.01795,-2.72644 -14.46939,3.601 -14.83784,10.91864c-0.73042,14.50662 21.94036,11.0882 17.79401,27.40859c-1.37484,5.41148 -7.65775,9.28906 -13.88492,7.38705c-10.72022,-3.27436 -8.68058,-14.08964 -8.68058,-14.08964" stroke="#00ff6f"/></g></g></g></svg>